<svg width="82" height="77" viewBox="0 0 82 77" fill="none" xmlns="http://www.w3.org/2000/svg">
<path d="M80.0373 2.72245C80.3142 2.82048 80.6187 2.80452 80.8838 2.67807C81.1489 2.55161 81.3529 2.32504 81.4509 2.04817C81.5489 1.77131 81.533 1.46684 81.4065 1.20175C81.2801 0.93666 81.0535 0.732658 80.7766 0.634624C80.7766 0.634624 80.7766 0.634624 80.7766 0.634624C77.6564 -0.248709 74.8453 -0.0508013 71.9511 0.279567C70.2398 0.504601 68.5517 0.865868 66.8989 1.35923C66.8308 1.37959 66.7624 1.40024 66.6941 1.42116C61.7981 3.02989 57.9225 6.01948 53.9175 8.6542C53.7935 8.73813 53.6688 8.82252 53.5434 8.90737C45.1862 14.6114 38.4895 22.1762 32.2517 29.8859C32.0464 30.1415 31.8404 30.3993 31.6335 30.6592C24.1868 40.0656 17.7011 50.3009 13.2292 61.5392C13.0336 62.044 12.8481 62.5355 12.6657 63.0394C11.3652 66.5064 10.3551 70.2682 8.90836 73.2831C8.70359 73.6948 8.35832 74.0791 8.36118 74.044C6.26334 75.5592 4.63375 70.7715 3.97414 67.5577C3.20547 64.0286 2.85342 60.398 2.35976 56.6735C2.34603 56.5768 2.3323 56.4823 2.31855 56.3903C2.31875 56.4387 2.35736 56.5066 2.28849 56.801C2.27874 56.8446 2.17962 57.1835 1.87754 57.4052C1.57049 57.6483 1.14677 57.6645 0.947119 57.6113C0.704585 57.5515 0.642144 57.4947 0.572583 57.4536C0.44957 57.3667 0.454507 57.3575 0.440684 57.3466C0.431157 57.3369 0.430603 57.3357 0.43445 57.3402C0.447596 57.3544 0.499781 57.4216 0.536188 57.4718C0.627301 57.5966 0.721479 57.735 0.809798 57.8667C0.999143 58.1497 1.18451 58.4372 1.37389 58.7327C1.74891 59.3187 2.12536 59.9158 2.50289 60.511C3.25965 61.7053 4.01968 62.8936 4.80122 64.0809C6.3602 66.4467 7.97895 68.7893 9.74848 71.041L10.3427 71.8026L11.1952 71.3378C11.2735 71.2946 11.3516 71.251 11.4294 71.2069C14.5927 69.4038 17.1598 66.9109 19.5725 64.4386C20.694 63.2996 21.7858 62.1102 22.926 61.1664L22.8867 61.195C22.9026 61.1836 22.9184 61.1723 22.9341 61.161C23.8348 60.5093 24.7373 59.8576 25.7775 59.2888C25.8917 59.2251 25.9786 59.1131 26.0219 58.9839C26.065 58.8542 26.061 58.7179 26.008 58.5986C25.955 58.4793 25.8565 58.385 25.7313 58.3301C25.6064 58.2756 25.4651 58.2651 25.3413 58.3072C25.3413 58.3072 25.3413 58.3072 25.3413 58.3072C24.2282 58.6757 23.0105 59.064 21.9739 59.7473C21.9559 59.759 21.9378 59.7708 21.9197 59.7826L21.8804 59.8112C20.5194 60.8433 19.393 61.9689 18.2168 63.049C15.7113 65.3813 13.1594 67.6168 10.3087 69.2199C10.2386 69.2592 10.1685 69.298 10.0981 69.3363L11.5449 69.6331C9.84591 67.4517 8.26123 65.1504 6.72862 62.8148C5.95977 61.6421 5.21002 60.4654 4.4586 59.2741C4.08341 58.6798 3.70881 58.0826 3.32835 57.4847C3.1356 57.1823 2.94674 56.8872 2.74079 56.5773C2.64332 56.4313 2.54118 56.2791 2.41382 56.1032C2.36029 56.0299 2.28576 55.9285 2.19513 55.8228C2.16544 55.7883 2.13405 55.7534 2.09646 55.7151C2.05787 55.6793 2.02708 55.6346 1.8638 55.5204C1.77547 55.4669 1.69883 55.4029 1.43994 55.3392C1.2264 55.283 0.791274 55.3009 0.475335 55.5508C0.16476 55.7776 0.0575626 56.135 0.0465105 56.1853C-0.0301093 56.5079 0.00904051 56.6204 0.0183111 56.7301C0.0308189 56.8159 0.0434171 56.9047 0.0561114 56.9965C0.523762 60.6077 0.857815 64.3512 1.64045 68.0594C2.04453 69.9126 2.50738 71.7819 3.43482 73.627C3.91866 74.5342 4.50136 75.5058 5.64759 76.2135C6.80738 76.969 8.47111 76.7766 9.46284 76.217C10.4594 75.6398 10.7155 75.0003 11.0524 74.4427C12.8004 70.7637 13.5124 67.2694 14.7842 63.7929C14.953 63.31 15.1284 62.835 15.3168 62.3468C19.6441 51.4168 26.02 41.2855 33.353 32.0273C33.5578 31.7698 33.7618 31.5146 33.965 31.2615C40.1364 23.6267 46.744 16.2025 54.7759 10.7287C54.9013 10.6438 55.026 10.5595 55.15 10.4756C59.1289 7.83924 63.0563 4.92382 67.3419 3.53913C67.4056 3.51965 67.4692 3.50043 67.5327 3.48145C69.0722 3.02188 70.6468 2.68495 72.2395 2.47556C74.864 2.14489 77.7732 2.06521 80.0373 2.72245Z" fill="#0588D5"/>
</svg>
