<svg xmlns="http://www.w3.org/2000/svg" width="157" height="70" viewBox="0 0 157 70" fill="none">
<path d="M104.003 14.4907L103.958 14.3696C103.913 14.2486 103.823 14.0062 103.598 13.8246C103.372 13.6429 103.011 13.5219 102.516 13.3402C102.02 13.1586 101.388 12.9162 100.441 12.6741C99.4945 12.4319 98.2323 12.1896 97.0149 12.0079C95.7975 11.8262 94.6251 11.7052 92.1003 11.6446C89.5755 11.5841 85.6977 11.5841 82.2713 11.6144C78.8445 11.6446 75.8688 11.7052 73.0282 11.8869C70.1877 12.0686 67.4825 12.3712 64.5968 12.7649C61.7113 13.1586 58.6452 13.6429 54.9931 14.3696C51.341 15.0962 47.103 16.0652 43.3156 17.0037C39.5283 17.9424 36.1916 18.8507 33.3062 19.6682C30.4205 20.4857 27.9858 21.2124 25.3706 22.0602C22.7557 22.9079 19.9601 23.8769 17.1647 25.2394C14.3694 26.6019 11.5738 28.3579 9.72529 29.6599C7.87679 30.9619 6.97486 31.8096 6.11838 32.7482C5.26163 33.6869 4.45005 34.7162 3.86382 35.7457C3.27786 36.7752 2.91698 37.8046 2.69163 39.0762C2.46629 40.3479 2.37593 41.8619 2.78172 43.5877C3.18751 45.3136 4.08944 47.2512 5.08119 48.8561C6.0732 50.4607 7.1553 51.7324 8.41785 52.9436C9.68012 54.1546 11.1231 55.3052 12.6559 56.3044C14.189 57.3036 15.8121 58.1512 17.8862 59.0899C19.9601 60.0286 22.4852 61.0579 25.01 61.9057C27.5348 62.7536 30.0599 63.4196 32.4042 63.9949C34.7489 64.5702 36.9131 65.0546 39.7084 65.4786C42.504 65.9024 45.9305 66.2657 49.4473 66.5686C52.9642 66.8712 56.5714 67.1136 61.1703 67.2044C65.7692 67.2952 71.3599 67.2346 76.3197 67.1437C81.2793 67.0529 85.6077 66.9319 89.7556 66.6896C93.9039 66.4474 97.8714 66.0841 101.569 65.7207C105.266 65.3574 108.692 64.9941 112.029 64.6307C115.365 64.2674 118.612 63.9041 122.399 63.2986C126.186 62.6929 130.515 61.8452 134.212 60.9369C137.909 60.0286 140.975 59.0596 143.23 58.1512C145.484 57.2429 146.927 56.3952 148.189 55.4869C149.452 54.5786 150.534 53.6096 151.435 52.4591C152.337 51.3086 153.059 49.9762 153.419 48.7046C153.78 47.4329 153.78 46.2219 153.69 45.0107C153.6 43.7996 153.419 42.5886 153.014 41.4379C152.608 40.2874 151.976 39.1974 151.345 38.2286C150.714 37.2596 150.083 36.4119 148.55 34.5952C147.017 32.7786 144.582 29.9929 142.238 27.5707C139.893 25.1486 137.639 23.0896 135.925 21.5152C134.212 19.9407 133.04 18.8507 131.507 17.5186C129.974 16.1862 128.08 14.6119 125.465 12.6741C122.85 10.7362 119.513 8.43524 117.214 7.0424C114.914 5.64956 113.652 5.16524 112.029 4.55956C110.406 3.95407 108.422 3.2274 107.43 2.86407L106.438 2.50073" stroke="#0A0907" stroke-width="3" stroke-linecap="round" stroke-linejoin="round"/>
</svg>
