<svg width="224" height="208" viewBox="0 0 224 208" fill="none" xmlns="http://www.w3.org/2000/svg">
<path d="M0.518884 159.077C0.518884 159.33 0.619303 159.572 0.798048 159.751C0.976794 159.93 1.21922 160.03 1.47201 160.03C1.72479 160.03 1.96722 159.93 2.14597 159.751C2.32472 159.572 2.42513 159.33 2.42513 159.077C2.42435 158.971 2.42785 158.904 2.41984 158.725C2.41858 158.707 2.41822 158.696 2.41395 158.657C2.41088 158.635 2.41197 158.63 2.39852 158.561C2.38446 158.512 2.40626 158.544 2.3347 158.364C2.27501 158.281 2.24991 158.021 1.71144 157.831C1.38784 157.732 1.02012 157.874 0.880721 157.996C0.725512 158.12 0.676005 158.211 0.636915 158.274C0.522545 158.494 0.544608 158.509 0.532675 158.534C0.526594 158.559 0.522939 158.578 0.519987 158.593C0.515967 158.615 0.512978 158.634 0.510975 158.647C0.503366 158.699 0.500605 158.727 0.497112 158.758C0.490707 158.818 0.486087 158.869 0.481328 158.923C0.463518 159.128 0.449324 159.323 0.434927 159.522C0.434072 159.534 0.433208 159.546 0.432336 159.558C0.413914 159.816 0.396766 160.071 0.380511 160.329C0.17945 163.683 0.0722903 166.994 0.0238028 170.327C0.0236884 170.335 0.0235745 170.344 0.0234611 170.353C-0.0702243 178.861 0.139228 187.339 0.243032 195.843C0.251063 196.501 0.258406 197.159 0.264868 197.816C0.265286 197.857 0.280389 197.898 0.308614 197.928C0.336823 197.959 0.375569 197.977 0.416679 197.979C0.45779 197.982 0.498248 197.967 0.529504 197.94C0.560777 197.912 0.580014 197.874 0.584741 197.833C0.584741 197.833 0.584741 197.833 0.584741 197.833C0.659875 197.179 0.731226 196.524 0.798977 195.868C1.67571 187.392 1.95728 178.862 2.05063 170.379C2.05074 170.371 2.05086 170.362 2.05097 170.353C2.09843 167.038 2.1026 163.728 2.28497 160.445C2.29972 160.193 2.31578 159.946 2.33376 159.694C2.33461 159.682 2.33545 159.67 2.33629 159.659C2.35028 159.464 2.36445 159.272 2.38027 159.09C2.38436 159.043 2.38845 158.999 2.39244 158.962C2.39426 158.945 2.39677 158.925 2.39635 158.928C2.39613 158.93 2.39542 158.935 2.39325 158.946C2.39165 158.955 2.38933 158.967 2.38451 158.987C2.37343 159.009 2.39811 159.014 2.28593 159.23C2.24744 159.292 2.19851 159.383 2.04387 159.506C1.90503 159.628 1.53786 159.77 1.21479 159.671C0.677211 159.48 0.652955 159.222 0.59407 159.141C0.524129 158.965 0.545999 158.997 0.532727 158.952C0.520787 158.891 0.522321 158.89 0.520038 158.874C0.517326 158.849 0.517599 158.848 0.517234 158.843C0.518314 158.859 0.519063 158.988 0.518884 159.077Z" fill="black"/>
<path d="M15.2414 184.007C15.4652 183.827 15.6083 183.565 15.6391 183.28C15.67 182.994 15.5862 182.708 15.4061 182.484C15.226 182.26 14.9644 182.117 14.6788 182.087C14.3933 182.056 14.1071 182.139 13.8834 182.32C13.8834 182.32 13.8834 182.32 13.8834 182.32C13.6223 182.521 13.1761 182.814 12.7945 183.07C9.74438 185.106 6.65192 187.167 3.87397 189.789C3.8463 189.815 3.81874 189.842 3.7913 189.869L3.53464 190.257C3.3976 190.593 3.32001 191.13 3.50031 191.606C3.67437 192.077 3.96447 192.354 4.19295 192.549C4.6661 192.93 5.06348 193.113 5.44368 193.309C6.20009 193.683 6.87824 194 7.48545 194.384C7.51001 194.4 7.53457 194.416 7.55913 194.431C9.87891 196.03 12.1645 198.488 14.6874 200.411C15.0655 200.711 15.4371 200.996 15.8232 201.288C15.9131 201.356 16.0243 201.395 16.1384 201.39C16.2524 201.386 16.3593 201.338 16.4367 201.258C16.5142 201.177 16.5571 201.069 16.5573 200.955C16.5576 200.84 16.5144 200.731 16.4433 200.644C16.4433 200.644 16.4433 200.644 16.4433 200.644C16.1381 200.271 15.8428 199.91 15.5363 199.541C13.4423 197.126 11.6587 194.608 8.7576 192.569C8.72658 192.549 8.69548 192.529 8.6643 192.509C7.9029 192.03 7.10813 191.678 6.41057 191.344C6.07007 191.18 5.73538 191.002 5.57916 190.874C5.50005 190.813 5.50376 190.78 5.53999 190.869C5.57785 190.963 5.54573 191.076 5.55679 191.034L5.30013 191.423C5.32503 191.399 5.35008 191.374 5.37529 191.35C7.93097 188.933 10.962 186.894 13.997 184.872C14.4041 184.596 14.7631 184.373 15.2414 184.007Z" fill="black"/>
<path d="M23.964 166.098C24.0208 166.382 24.1881 166.632 24.429 166.793C24.67 166.953 24.9648 167.011 25.2488 166.955C25.5327 166.898 25.7825 166.731 25.9431 166.49C26.1037 166.249 26.162 165.954 26.1052 165.67C26.1052 165.67 26.1052 165.67 26.1052 165.67C26.0472 165.382 25.9903 165.087 25.9087 164.76C25.8655 164.593 25.8234 164.427 25.7331 164.199C25.6778 164.077 25.6498 163.961 25.4434 163.705C25.3348 163.591 25.1366 163.339 24.6312 163.274C24.1073 163.232 23.8055 163.493 23.6795 163.607C23.6579 163.627 23.6365 163.647 23.6152 163.668C23.3373 163.935 23.0744 164.231 22.8441 164.53C16.9233 176.537 22.0084 188.682 24.4329 200.015C24.4664 200.144 24.5075 200.271 24.5559 200.394C25.5452 202.512 27.4626 203.117 29.2762 203.218C29.3751 203.22 29.4737 203.218 29.571 203.212C31.8111 202.993 32.9947 201.512 34.241 200.467C34.2787 200.434 34.3164 200.401 34.3542 200.368C35.8367 199.084 37.0896 197.628 38.3197 196.199C38.9371 195.476 39.5384 194.756 40.1434 194.022C40.2409 193.904 40.2875 193.75 40.2745 193.595C40.2614 193.441 40.1897 193.298 40.0738 193.198C39.9578 193.098 39.8065 193.048 39.6516 193.057C39.4968 193.066 39.3511 193.135 39.248 193.248C39.248 193.248 39.248 193.248 39.248 193.248C38.6118 193.95 37.9844 194.641 37.3444 195.33C36.0671 196.698 34.7925 198.052 33.3516 199.144C33.3141 199.173 33.2764 199.201 33.2383 199.229C31.9952 200.154 30.4612 200.754 29.4366 200.794C29.3909 200.797 29.3459 200.798 29.3017 200.797C28.2459 200.81 26.9204 200.211 26.7 199.548C26.6851 199.511 26.6727 199.474 26.6626 199.435C24.0592 188.386 19.6343 175.547 24.5723 165.865C24.7425 165.644 24.9325 165.43 25.1295 165.241C25.1446 165.227 25.1598 165.212 25.175 165.198C25.1022 165.262 24.8679 165.481 24.4186 165.447C23.9871 165.388 23.8491 165.187 23.7877 165.128C23.6763 164.986 23.708 165.003 23.7087 165.017C23.7269 165.06 23.7623 165.177 23.7912 165.294C23.8515 165.534 23.9068 165.813 23.964 166.098Z" fill="black"/>
<path d="M45.4551 189.927C45.7213 189.927 45.9767 189.821 46.1649 189.633C46.3532 189.445 46.459 189.189 46.459 188.923C46.459 188.657 46.3532 188.401 46.1649 188.213C45.9767 188.025 45.7213 187.919 45.4551 187.919C45.2385 187.921 44.8868 187.907 44.4761 188.046C43.656 188.331 43.2808 189.001 43.0674 189.452C43.0645 189.458 43.0617 189.464 43.0588 189.47C42.3218 191.321 42.1986 192.94 42.0228 194.653C42.0226 194.655 42.0224 194.657 42.0222 194.659C41.8422 196.598 42.0579 198.766 42.9523 200.628C43.0532 200.844 43.1612 201.056 43.2757 201.264C43.3587 201.414 43.5018 201.526 43.669 201.579C43.8365 201.632 44.0144 201.62 44.168 201.545C44.3216 201.47 44.4397 201.336 44.5007 201.171C44.5615 201.007 44.5602 200.825 44.4928 200.668C44.4928 200.668 44.4928 200.668 44.4928 200.668C44.4123 200.478 44.3402 200.287 44.2762 200.094C43.7105 198.417 43.8303 196.663 44.0067 194.834C44.0069 194.832 44.0071 194.83 44.0073 194.828C44.1618 193.259 44.3817 191.533 44.8848 190.305C44.8864 190.302 44.888 190.298 44.8895 190.295C45.0178 190.009 45.1414 189.926 45.1237 189.946C45.1331 189.94 45.2317 189.924 45.4551 189.927Z" fill="black"/>
<path d="M50.6833 158.207C50.7303 158.348 50.8314 158.465 50.9644 158.531C51.0973 158.598 51.2513 158.609 51.3923 158.562C51.5334 158.515 51.6499 158.414 51.7164 158.281C51.7829 158.148 51.7938 157.994 51.7468 157.853C51.7468 157.853 51.7468 157.853 51.7468 157.853C51.7143 157.755 51.681 157.655 51.6428 157.549C51.6156 157.474 51.5875 157.398 51.547 157.308C51.5265 157.263 51.5037 157.214 51.4635 157.148C51.4431 157.116 51.4189 157.077 51.3691 157.022C51.3112 156.974 51.2583 156.86 50.9588 156.814C50.8083 156.798 50.6523 156.856 50.5646 156.92C50.4842 156.976 50.4382 157.035 50.4108 157.073C50.353 157.157 50.3369 157.203 50.3198 157.245C50.2892 157.326 50.277 157.381 50.2657 157.432C50.2443 157.533 50.2335 157.615 50.2236 157.698C50.2229 157.705 50.2222 157.711 50.2215 157.717C50.0986 159.36 50.141 160.871 50.1309 162.435C50.1309 162.537 50.1309 162.64 50.1309 162.742C50.1309 162.891 50.1899 163.034 50.295 163.139C50.4002 163.244 50.5427 163.303 50.6914 163.303C50.8401 163.303 50.9826 163.244 51.0878 163.139C51.1929 163.034 51.252 162.891 51.252 162.742C51.252 162.64 51.252 162.537 51.252 162.435C51.2601 160.894 51.2263 159.297 51.3357 157.841C51.3362 157.836 51.3367 157.832 51.3373 157.827C51.3443 157.766 51.3531 157.707 51.3616 157.668C51.3651 157.65 51.371 157.633 51.3658 157.648C51.3614 157.657 51.3599 157.671 51.3233 157.724C51.3057 157.748 51.2729 157.792 51.2061 157.839C51.1338 157.893 50.9948 157.945 50.8625 157.931C50.5998 157.889 50.5746 157.8 50.5413 157.778C50.5156 157.749 50.5124 157.741 50.5102 157.738C50.5075 157.733 50.5171 157.751 50.5256 157.77C50.5443 157.811 50.5666 157.869 50.5883 157.929C50.6195 158.016 50.6509 158.11 50.6833 158.207Z" fill="black"/>
<path d="M51.215 158.03C51.0422 157.512 50.8694 156.993 50.7804 157.763C50.6914 158.533 50.6914 160.606 50.6914 162.742" stroke="black" stroke-width="2" stroke-linecap="round"/>
<path d="M61.6487 185.781C61.6487 186.069 61.7631 186.346 61.9667 186.549C62.1704 186.753 62.4466 186.867 62.7346 186.867C63.0226 186.867 63.2988 186.753 63.5025 186.549C63.7061 186.346 63.8205 186.069 63.8205 185.781C63.8189 184.864 63.6619 183.982 63.4066 183.141C62.9451 181.63 62.1513 180.249 61.1354 179.073C61.1323 179.069 61.1292 179.066 61.1261 179.062C60.3079 178.105 59.0357 178.076 58.2447 178.233C57.3989 178.395 56.6884 178.719 56.0301 179.13C56.022 179.135 56.0139 179.14 56.0059 179.146C52.8734 181.214 51.7541 184.657 50.7519 187.581C50.7468 187.596 50.7418 187.611 50.7367 187.626C49.7477 190.603 49.6414 193.984 50.8493 197.003C50.8531 197.012 50.857 197.022 50.8609 197.032C52.0231 199.385 54.1483 199.886 55.95 200.297C55.9613 200.299 55.9726 200.301 55.9839 200.303C58.1685 200.68 60.2424 199.973 62.0187 199.024C62.024 199.021 62.0292 199.019 62.0344 199.016C63.6774 198.13 64.8599 196.799 66.0268 195.56C66.5641 194.979 67.09 194.396 67.6197 193.808C67.6608 193.762 67.6822 193.7 67.6806 193.637C67.6789 193.574 67.6543 193.515 67.6108 193.472C67.5674 193.428 67.5082 193.404 67.4451 193.402C67.3821 193.4 67.3202 193.422 67.2744 193.463C67.2744 193.463 67.2744 193.463 67.2744 193.463C66.6862 193.992 66.105 194.519 65.5176 195.04C64.2434 196.157 62.9639 197.301 61.4909 197.86C61.4861 197.862 61.4813 197.864 61.4765 197.865C59.812 198.502 57.9598 198.45 56.4013 198.132C56.393 198.13 56.3848 198.129 56.3766 198.127C54.8985 197.834 53.2984 197.063 52.9623 196.174C52.9609 196.171 52.9595 196.167 52.9582 196.164C51.9844 193.725 52.0465 190.899 52.901 188.341C52.9054 188.328 52.9097 188.315 52.9141 188.302C53.8732 185.41 55.0142 182.501 57.2427 181.081C57.2485 181.077 57.2542 181.074 57.26 181.07C58.1388 180.445 59.4621 180.221 59.4841 180.484C59.4866 180.487 59.4892 180.49 59.4917 180.493C60.3241 181.455 60.9646 182.58 61.3291 183.774C61.5312 184.437 61.6483 185.126 61.6487 185.781Z" fill="black"/>
<path d="M76.8261 165.153C77.0489 165.026 77.2122 164.816 77.2801 164.569C77.348 164.322 77.3149 164.058 77.1882 163.835C77.0615 163.613 76.8514 163.449 76.6043 163.382C76.3572 163.314 76.0932 163.347 75.8705 163.473C75.8705 163.473 75.8705 163.473 75.8705 163.473C75.6704 163.589 75.5392 163.72 75.4246 163.852C75.3297 163.964 75.2714 164.047 75.203 164.151C75.0577 164.378 74.9897 164.512 74.8942 164.703C74.7959 164.905 74.735 165.045 74.6602 165.222C74.5872 165.396 74.5156 165.58 74.4569 165.736C74.1953 166.435 73.9905 167.087 73.7928 167.755C70.7027 179.632 68.8086 191.649 68.929 203.966C68.9457 204.394 68.9679 204.812 68.9959 205.217C69.0056 205.356 69.023 205.491 69.053 205.626C69.0858 205.774 69.1445 205.967 69.2552 206.154C69.3893 206.382 69.6162 206.622 69.9566 206.744C70.3012 206.862 70.5576 206.826 70.7683 206.78C71.4945 206.564 71.7566 206.256 72.0734 206.002C72.6841 205.453 73.1537 204.904 73.626 204.336C74.55 203.211 75.3927 202.042 76.2082 200.87C77.8358 198.516 79.3633 196.118 80.8202 193.658C80.8386 193.627 80.8568 193.596 80.8748 193.565C80.9228 193.478 80.9442 193.457 81.0155 193.269C81.0324 193.22 81.0499 193.163 81.0639 193.087C81.0649 193.044 81.1343 192.842 81.0074 192.498C80.8907 192.13 80.4031 191.847 80.1498 191.848C80.0159 191.834 79.9177 191.846 79.8403 191.859C79.7876 191.869 79.7582 191.877 79.7242 191.887C79.4627 191.974 79.4369 192.013 79.3505 192.061C79.2802 192.106 79.2382 192.136 79.1837 192.176C79.0002 192.311 78.8526 192.439 78.7117 192.563C78.4274 192.816 78.1696 193.067 77.9162 193.324C77.4105 193.838 76.9329 194.37 76.4759 194.928C75.5787 196.059 74.6885 197.195 74.1848 198.828L74.0796 199.208L74.2486 199.569C74.338 199.759 74.4353 199.946 74.5389 200.127C76.3015 203.048 79.1659 204.536 81.8704 205.784L81.9205 205.806C81.9897 205.832 82.0593 205.858 82.1286 205.884C82.6349 206.069 83.1448 206.234 83.6555 206.385C85.001 206.782 86.35 207.086 87.6837 207.4C87.8582 207.441 88.0447 207.41 88.2013 207.317C88.358 207.224 88.472 207.076 88.5191 206.903C88.5662 206.731 88.5429 206.546 88.4553 206.386C88.3676 206.226 88.2228 206.104 88.0517 206.051C88.0517 206.051 88.0517 206.051 88.0517 206.051C86.7431 205.644 85.4471 205.231 84.1921 204.766C83.7156 204.59 83.2453 204.406 82.7834 204.212C82.7201 204.186 82.6568 204.159 82.5939 204.132L82.6439 204.154C80.1328 202.872 77.6716 201.238 76.3985 199.063C76.3219 198.929 76.2508 198.793 76.1859 198.656L76.2497 199.396C76.5381 198.392 77.3089 197.251 78.1035 196.238C78.5087 195.725 78.9408 195.226 79.3906 194.755C79.6148 194.52 79.8446 194.291 80.0739 194.082C80.1843 193.981 80.3059 193.877 80.392 193.812C80.4153 193.795 80.4312 193.784 80.438 193.779C80.4315 193.778 80.4726 193.776 80.2947 193.837C80.27 193.844 80.2477 193.85 80.2049 193.858C80.1417 193.869 80.0561 193.88 79.9331 193.868C79.7014 193.871 79.2289 193.598 79.1197 193.249C79.001 192.922 79.0667 192.755 79.0651 192.724C79.0761 192.665 79.0881 192.628 79.0973 192.601C79.1325 192.509 79.1269 192.536 79.1208 192.543C79.1035 192.573 79.086 192.603 79.0683 192.634C77.6587 195.051 76.1619 197.441 74.5861 199.752C73.7979 200.902 72.9805 202.046 72.122 203.101C71.6896 203.628 71.2439 204.142 70.7875 204.552C70.594 204.739 70.2685 204.931 70.3219 204.897C70.3503 204.892 70.4415 204.866 70.6102 204.923C70.7784 204.982 70.8868 205.109 70.9202 205.17C70.9719 205.274 70.9274 205.197 70.9246 205.083C70.8976 204.699 70.8762 204.301 70.8602 203.891C70.7314 191.999 72.6347 179.839 75.6465 168.301C75.8352 167.664 76.0311 167.043 76.2657 166.416C76.3181 166.277 76.3811 166.116 76.4428 165.969C76.5055 165.82 76.5561 165.705 76.6296 165.554C76.6986 165.414 76.7505 165.317 76.8217 165.207C76.8678 165.119 76.975 165.05 76.8261 165.153Z" fill="black"/>
<path d="M103.067 193.112C103.067 192.83 102.955 192.56 102.756 192.361C102.557 192.162 102.287 192.05 102.005 192.05C101.723 192.05 101.453 192.162 101.254 192.361C101.055 192.56 100.943 192.83 100.943 193.112C100.931 193.951 100.878 194.899 100.837 195.805C100.748 197.682 100.645 199.553 100.599 201.467C100.595 201.641 100.593 201.825 100.592 202C100.597 202.188 100.585 202.335 100.682 202.663C100.701 202.726 100.76 202.877 100.844 203.001C100.889 203.067 100.938 203.13 101.01 203.201C101.094 203.282 101.198 203.359 101.315 203.416C101.829 203.658 102.23 203.484 102.371 203.427C102.548 203.347 102.653 203.268 102.733 203.208C102.819 203.142 102.885 203.082 102.94 203.029C103.063 202.913 103.146 202.822 103.239 202.716C103.579 202.324 103.843 201.96 104.113 201.591C104.642 200.859 105.141 200.135 105.65 199.43C106.653 198.057 107.76 196.549 108.862 195.817C108.915 195.785 108.968 195.756 109.022 195.73C109.664 195.4 110.607 195.615 111.27 196.216C111.285 196.229 111.299 196.242 111.313 196.256C112.57 197.428 112.585 199.343 112.884 201.949C112.899 202.016 112.922 202.105 112.949 202.187C113.081 202.547 113.206 202.978 113.796 203.409C114.435 203.857 115.23 203.699 115.578 203.546C116.35 203.21 116.729 202.819 117.147 202.444C117.943 201.687 118.596 200.918 119.257 200.164C120.527 198.722 121.968 196.971 123.138 196.471L122.904 196.527C123.079 196.504 123.246 196.496 123.403 196.504C124.17 196.541 124.702 196.966 125.134 197.807C125.188 197.912 125.24 198.027 125.29 198.145C125.835 199.505 126.287 201.236 126.967 202.817C127.329 203.681 127.74 204.528 128.203 205.346C128.27 205.463 128.371 205.56 128.497 205.613C128.623 205.666 128.762 205.67 128.886 205.623C129.01 205.576 129.112 205.481 129.171 205.358C129.231 205.236 129.243 205.095 129.215 204.964C129.031 204.067 128.856 203.179 128.683 202.292C128.338 200.644 128.125 199.039 127.421 197.247C127.354 197.087 127.278 196.921 127.195 196.758C126.634 195.51 125.133 194.21 123.518 194.206C123.203 194.191 122.897 194.208 122.602 194.247L122.369 194.303C119.882 195.492 118.916 197.178 117.523 198.653C116.87 199.4 116.224 200.151 115.572 200.769C115.26 201.068 114.881 201.356 114.731 201.408C114.7 201.421 114.703 201.411 114.773 201.408C114.843 201.404 114.992 201.438 115.081 201.503C115.254 201.642 115.17 201.62 115.137 201.483C115.136 201.481 115.131 201.463 115.126 201.442C114.887 199.708 115.024 196.615 112.854 194.594C112.829 194.571 112.804 194.549 112.778 194.526C111.597 193.462 109.697 192.894 108.041 193.714C107.914 193.776 107.792 193.845 107.673 193.92C105.86 195.204 104.951 196.714 103.88 198.171C103.366 198.903 102.87 199.642 102.374 200.342C102.126 200.691 101.872 201.04 101.635 201.315C101.573 201.386 101.521 201.442 101.475 201.486C101.447 201.521 101.367 201.556 101.516 201.479C101.568 201.462 101.841 201.32 102.257 201.51C102.663 201.744 102.666 201.94 102.702 202.003C102.735 202.125 102.713 202.067 102.717 202.005C102.717 201.848 102.719 201.675 102.722 201.509C102.766 199.666 102.87 197.783 102.958 195.907C103 194.982 103.053 194.098 103.067 193.112Z" fill="black"/>
<path d="M142.706 198.872C142.706 198.631 142.61 198.401 142.44 198.231C142.27 198.061 142.04 197.965 141.799 197.965C141.559 197.965 141.329 198.061 141.159 198.231C140.989 198.401 140.893 198.631 140.893 198.872C140.894 198.988 140.888 199.03 140.869 199.157C140.839 199.352 140.791 199.577 140.742 199.801C140.742 199.802 140.742 199.802 140.742 199.802C140.217 202.077 139.852 204.396 139.535 206.695C139.516 206.834 139.497 206.975 139.478 207.12C139.452 207.316 139.5 207.517 139.616 207.679C139.732 207.842 139.906 207.952 140.101 207.985C140.296 208.019 140.498 207.974 140.661 207.86C140.825 207.746 140.938 207.573 140.979 207.379C140.979 207.379 140.979 207.379 140.979 207.379C141.009 207.237 141.039 207.098 141.068 206.962C141.553 204.697 141.994 202.433 142.511 200.194C142.511 200.194 142.511 200.193 142.511 200.193C142.565 199.95 142.616 199.712 142.66 199.435C142.686 199.281 142.709 199.04 142.706 198.872Z" fill="black"/>
<path d="M142.611 182.306C142.661 182.507 142.789 182.681 142.968 182.788C143.146 182.894 143.359 182.926 143.561 182.876C143.762 182.825 143.935 182.697 144.042 182.519C144.149 182.341 144.181 182.128 144.13 181.926C144.13 181.926 144.13 181.926 144.13 181.926C144.098 181.797 144.065 181.663 144.026 181.521C143.965 181.325 143.947 181.169 143.762 180.831C143.692 180.743 143.673 180.605 143.307 180.42C143.121 180.328 142.79 180.337 142.618 180.427C142.433 180.515 142.362 180.598 142.302 180.661C142.101 180.907 142.086 181.013 142.032 181.133C142.021 181.163 142.01 181.193 141.999 181.223C141.404 183.422 141.335 185.36 141.198 187.414C141.191 187.548 141.184 187.68 141.178 187.816C141.17 187.978 141.222 188.139 141.327 188.264C141.432 188.389 141.581 188.467 141.741 188.483C141.902 188.498 142.064 188.449 142.19 188.346C142.317 188.244 142.399 188.096 142.422 187.935C142.422 187.935 142.422 187.935 142.422 187.935C142.441 187.802 142.46 187.673 142.479 187.541C142.783 185.579 143.014 183.449 143.479 181.738C143.484 181.722 143.49 181.708 143.494 181.696C143.505 181.654 143.559 181.591 143.471 181.704C143.44 181.735 143.401 181.789 143.257 181.857C143.126 181.929 142.842 181.937 142.696 181.862C142.411 181.714 142.444 181.653 142.42 181.639C142.409 181.608 142.48 181.796 142.516 181.936C142.547 182.052 142.578 182.177 142.611 182.306Z" fill="black"/>
<path d="M143.371 182.116C143.198 181.425 143.025 180.734 142.763 181.414C142.501 182.095 142.156 184.169 141.8 187.876" stroke="black" stroke-width="2" stroke-linecap="round"/>
<path d="M155.937 198.937C156.232 198.937 156.515 198.819 156.724 198.611C156.932 198.402 157.049 198.119 157.049 197.824C157.049 197.529 156.932 197.246 156.724 197.038C156.515 196.829 156.232 196.712 155.937 196.712C156.092 196.723 155.895 196.701 155.812 196.679C155.705 196.655 155.588 196.628 155.47 196.6C155.23 196.544 154.987 196.486 154.741 196.431C153.665 196.188 152.574 195.993 151.478 195.85C151.477 195.85 151.477 195.85 151.476 195.85C149.096 195.706 147.939 197.296 146.993 198.395C146.987 198.403 146.98 198.411 146.974 198.42C146.021 199.661 145.276 201.334 145.615 203.174C145.617 203.183 145.619 203.193 145.621 203.202C146.024 205.263 147.745 206.641 149.409 207.212C149.414 207.213 149.418 207.215 149.423 207.216C151.753 207.977 154.011 207.543 156.153 206.913C156.154 206.913 156.155 206.913 156.156 206.912C157.642 206.457 158.946 205.585 160.058 204.661C160.45 204.338 160.826 204.009 161.196 203.685C161.362 203.54 161.463 203.335 161.478 203.116C161.492 202.896 161.419 202.679 161.274 202.514C161.129 202.348 160.924 202.247 160.705 202.232C160.485 202.217 160.269 202.291 160.103 202.436C160.103 202.436 160.103 202.436 160.103 202.436C159.733 202.759 159.369 203.078 159.002 203.38C157.959 204.245 156.872 204.956 155.661 205.328C155.66 205.328 155.659 205.328 155.658 205.328C153.861 205.872 151.797 205.546 150.211 204.997C150.208 204.996 150.205 204.995 150.202 204.993C149.028 204.586 148.117 203.729 147.935 202.745C147.934 202.741 147.934 202.736 147.933 202.732C147.753 201.847 148.142 200.756 148.84 199.857C148.844 199.851 148.849 199.846 148.853 199.84C149.602 198.829 150.619 197.921 151.188 198.055C151.188 198.055 151.188 198.055 151.189 198.055C152.22 198.19 153.235 198.372 154.252 198.601C154.486 198.654 154.718 198.709 154.961 198.766C155.082 198.794 155.204 198.823 155.337 198.852C155.494 198.879 155.539 198.917 155.937 198.937Z" fill="black"/>
<path d="M169.567 178.174C169.633 177.892 169.584 177.596 169.43 177.35C169.277 177.104 169.033 176.929 168.751 176.864C168.469 176.798 168.172 176.847 167.927 177C167.681 177.153 167.506 177.398 167.44 177.68C167.209 178.771 167.115 179.737 166.999 180.734C166.292 187.605 165.921 194.437 165.669 201.302C165.668 201.329 165.667 201.357 165.666 201.384C165.669 202.049 165.61 202.76 166.183 203.676C166.469 204.126 167.085 204.507 167.609 204.568C168.137 204.646 168.56 204.556 168.923 204.453C170.335 203.987 171.252 203.22 172.175 202.439C172.176 202.439 172.177 202.438 172.177 202.438C176.035 199.242 179.71 194.724 183.614 193.367L182.689 193.135C182.697 193.141 182.706 193.148 182.714 193.155C184.648 194.707 185.725 197.289 186.006 199.915L186.022 200.022C186.023 200.029 186.025 200.036 186.026 200.043C186.173 200.765 186.473 201.505 186.879 202.135C187.486 203.084 188.258 203.808 189.007 204.502C189.112 204.598 189.259 204.65 189.408 204.651C189.558 204.652 189.699 204.602 189.805 204.507C189.911 204.412 189.976 204.278 189.992 204.129C190.008 203.98 189.973 203.829 189.889 203.713C189.889 203.713 189.889 203.713 189.889 203.713C189.324 202.932 188.868 202.09 188.579 201.274C188.383 200.725 188.267 200.196 188.16 199.619C188.159 199.613 188.158 199.607 188.157 199.601L188.172 199.707C187.905 196.668 186.735 193.466 184.156 191.372C184.145 191.363 184.134 191.354 184.122 191.345L183.713 191.017L183.197 191.113C177.384 193.261 174.69 197.56 170.703 200.763C170.703 200.764 170.702 200.765 170.702 200.765C169.932 201.445 169.032 202.107 168.293 202.341C168.121 202.396 167.973 202.405 167.943 202.398C167.911 202.383 168.006 202.442 167.981 202.427C167.924 202.384 167.821 201.919 167.849 201.459C167.85 201.432 167.851 201.404 167.851 201.377C168.101 194.564 168.474 187.726 169.17 180.973C169.277 180.022 169.392 178.99 169.567 178.174Z" fill="black"/>
<path d="M134.097 152.947C134.214 153.212 134.43 153.42 134.7 153.525C134.969 153.63 135.269 153.624 135.534 153.508C135.799 153.392 136.007 153.175 136.112 152.906C136.217 152.636 136.211 152.336 136.094 152.071C136.094 152.071 136.094 152.071 136.094 152.071C135.64 150.229 135.739 147.211 135.806 144.724C136.052 138.194 136.782 131.655 137.792 125.175C137.794 125.164 137.795 125.154 137.797 125.143C139.629 113.424 144.753 102.505 150.334 91.9652C150.34 91.9543 150.346 91.9433 150.352 91.9324C154.577 84.1137 159.82 76.745 165.328 69.6871C165.334 69.68 165.339 69.6728 165.345 69.6657C170.333 63.3171 175.973 57.5134 182.126 52.2766L182.088 52.3072C182.093 52.3038 182.097 52.3005 182.101 52.2971C190.988 45.3235 200.48 39.033 210.665 34.1175C211.343 33.793 212.032 33.4723 212.715 33.1641L212.703 33.169C212.704 33.1688 212.704 33.1686 212.705 33.1684C214.411 32.441 216.01 31.52 217.744 30.9946C217.87 30.9546 217.979 30.8626 218.046 30.7433C218.112 30.6238 218.132 30.4868 218.1 30.3579C218.068 30.229 217.986 30.1176 217.871 30.0436C217.755 29.9698 217.617 29.9395 217.486 29.9639C217.486 29.9639 217.486 29.9639 217.486 29.9639C215.591 30.2994 213.768 30.8752 212.031 31.5721C212.031 31.5723 212.03 31.5725 212.03 31.5727L212.018 31.5776C211.318 31.8764 210.61 32.1871 209.914 32.5012C199.464 37.2561 189.637 43.3159 180.608 50.4005C180.603 50.4039 180.599 50.4073 180.595 50.4107L180.557 50.4413C174.302 55.764 168.533 61.7044 163.452 68.174C163.446 68.1812 163.44 68.1885 163.435 68.1958C157.852 75.3547 152.581 82.7441 148.222 90.8075C148.216 90.8188 148.21 90.8301 148.204 90.8415C142.589 101.457 137.534 112.71 135.643 124.803C135.641 124.814 135.639 124.825 135.638 124.836C134.616 131.394 133.878 137.989 133.626 144.648C133.613 147.362 133.274 149.712 134.097 152.947Z" fill="black"/>
<path d="M218.023 28.672C217.822 28.4709 217.549 28.358 217.265 28.358C216.981 28.358 216.708 28.471 216.507 28.6721C216.306 28.8732 216.193 29.1459 216.193 29.4303C216.193 29.7147 216.306 29.9874 216.507 30.1885C216.507 30.1885 216.507 30.1885 216.507 30.1885C216.308 29.9664 216.339 29.9386 216.32 29.9116C216.312 29.8906 216.315 29.8979 216.318 29.9101C216.325 29.9378 216.336 29.9911 216.346 30.051C216.365 30.1692 216.382 30.3129 216.397 30.4541C216.426 30.744 216.448 31.0464 216.466 31.3533C216.576 33.2971 216.614 35.2918 216.658 37.2745L216.659 37.2951C216.659 37.3006 216.659 37.3061 216.659 37.3116C217.012 45.0169 217.615 52.7187 219.485 60.3285L219.493 60.3569C219.493 60.3586 219.494 60.3603 219.494 60.3619C219.952 62.0311 220.736 63.698 221.646 65.1355C221.984 65.681 222.336 66.2089 222.704 66.7369C222.784 66.8506 222.897 66.942 223.032 66.9847C223.166 67.0275 223.31 67.019 223.433 66.9595C223.557 66.8999 223.653 66.7933 223.704 66.6614C223.754 66.5295 223.754 66.384 223.714 66.2507C223.714 66.2507 223.714 66.2507 223.714 66.2507C223.532 65.6351 223.341 65.0328 223.143 64.4339C222.597 62.8179 222.105 61.3357 221.662 59.7366C221.661 59.735 221.661 59.7334 221.66 59.7318L221.668 59.7603C219.874 52.48 219.145 44.8141 218.802 37.2254C218.802 37.22 218.802 37.2145 218.802 37.2091L218.802 37.2296C218.757 35.2344 218.721 33.2518 218.607 31.2233C218.587 30.8989 218.565 30.577 218.53 30.2367C218.513 30.0692 218.493 29.8939 218.462 29.7029C218.445 29.6032 218.428 29.5058 218.396 29.3788C218.38 29.318 218.36 29.2458 218.325 29.1521C218.277 29.0526 218.276 28.95 218.023 28.672Z" fill="black"/>
<path d="M216.98 29.7799C216.98 30.1337 217.12 30.473 217.37 30.7232C217.621 30.9733 217.96 31.1139 218.314 31.1139C218.668 31.1139 219.007 30.9733 219.257 30.7232C219.507 30.473 219.648 30.1337 219.648 29.7799C219.649 29.3938 219.485 29.0937 219.366 28.9365C219.248 28.7806 219.15 28.7013 219.074 28.641C218.924 28.5281 218.836 28.4867 218.753 28.4452C218.599 28.3724 218.502 28.3401 218.404 28.3068C218.217 28.2457 218.064 28.2065 217.914 28.1692C217.613 28.0958 217.342 28.0398 217.064 27.9842C216.012 27.777 214.996 27.6033 213.967 27.4222L214.078 27.4465C214.064 27.443 214.051 27.4395 214.038 27.436C207.602 25.6493 201.193 23.1943 194.843 20.7517L194.803 20.7368C194.8 20.7356 194.797 20.7345 194.793 20.7333C193.032 20.118 191.188 19.6357 189.338 19.3179C188.793 19.2222 188.253 19.1377 187.72 19.0528C187.477 19.0141 187.225 19.0752 187.021 19.2188C186.817 19.3625 186.678 19.5769 186.632 19.8187C186.587 20.0604 186.64 20.3108 186.778 20.5187C186.916 20.7263 187.128 20.8743 187.368 20.9264C187.368 20.9264 187.368 20.9264 187.368 20.9264C187.896 21.0403 188.416 21.1552 188.929 21.2799C190.665 21.6955 192.335 22.2644 194.017 22.8927C194.02 22.8939 194.023 22.895 194.026 22.8962L193.987 22.8813C200.325 25.4773 206.624 28.1428 213.354 30.0148C213.368 30.0185 213.382 30.0222 213.396 30.0259L213.507 30.0502C214.531 30.2303 215.555 30.406 216.543 30.6006C216.799 30.6519 217.048 30.704 217.277 30.7601C217.389 30.7874 217.498 30.8172 217.566 30.8398C217.599 30.8501 217.624 30.8624 217.593 30.8481C217.574 30.8375 217.544 30.8278 217.447 30.7557C217.398 30.7161 217.325 30.6601 217.227 30.5303C217.128 30.4005 216.979 30.1322 216.98 29.7799Z" fill="black"/>
<path d="M86.4699 145.714C86.5224 145.999 86.6858 146.251 86.9241 146.415C87.1624 146.579 87.4561 146.641 87.7406 146.589C88.0251 146.536 88.2771 146.373 88.4411 146.135C88.6052 145.896 88.6678 145.603 88.6153 145.318C88.6153 145.318 88.6153 145.318 88.6153 145.318C88.4868 143.036 88.557 140.05 88.4412 137.399C88.3001 133.335 88.0059 129.304 87.5928 125.263C87.5922 125.257 87.5916 125.251 87.5909 125.245C86.095 113.9 82.7745 103.158 79.2322 92.4818C79.2313 92.4791 79.2303 92.4764 79.2294 92.4737C75.0014 80.1683 69.6382 68.2815 63.2134 56.9659C63.2119 56.9632 63.2103 56.9605 63.2088 56.9578C57.2063 46.6224 50.6255 36.4698 41.5337 28.2555L41.3969 28.1522C41.3929 28.1495 41.3888 28.1468 41.3848 28.1442C34.2348 23.3939 26.2663 19.7432 17.9176 17.6346C17.8185 17.6092 17.7193 17.5839 17.62 17.5589L17.4932 17.5332C17.4931 17.5332 17.4929 17.5332 17.4927 17.5331C14.8231 17.1457 12.265 17.1437 9.73252 16.82C9.45526 16.7861 9.17227 16.8659 8.94652 17.037C8.72073 17.2084 8.57067 17.4571 8.52864 17.7331C8.48661 18.0091 8.55584 18.2912 8.72038 18.5221C8.88497 18.7526 9.13139 18.913 9.40615 18.9632C12.0022 19.4496 14.6345 19.7577 17.0997 20.1276C17.0999 20.1276 17.1 20.1276 17.1002 20.1276L16.9735 20.102C17.0695 20.1266 17.1654 20.1513 17.2611 20.1762C25.3279 22.2469 32.9525 25.779 39.9022 30.3928C39.9062 30.3954 39.9101 30.398 39.9141 30.4006L39.7773 30.2974C48.3823 38.0556 54.9825 48.1142 60.8827 58.2882C60.8842 58.2909 60.8857 58.2935 60.8872 58.2962C67.2235 69.4387 72.5455 81.2073 76.7348 93.3275C76.7357 93.3302 76.7366 93.3328 76.7375 93.3354C80.2683 103.882 83.9905 114.575 85.4207 125.468C85.4213 125.474 85.4219 125.479 85.4225 125.485C85.8313 129.484 86.1217 133.466 86.2609 137.475C86.3873 140.21 86.2651 142.629 86.4699 145.714Z" fill="black"/>
<path d="M8.40444 19.522C8.65139 19.6455 8.93727 19.6658 9.1992 19.5785C9.46112 19.4911 9.67763 19.3033 9.8011 19.0564C9.92456 18.8094 9.94487 18.5236 9.85755 18.2616C9.77024 17.9997 9.58245 17.7832 9.3355 17.6597C9.3355 17.6597 9.3355 17.6597 9.3355 17.6597C9.18545 17.5969 9.32071 17.5961 9.46627 17.8564C9.57977 18.1172 9.51401 18.1813 9.53225 18.1412L9.35991 18.5123C9.36217 18.5092 9.36443 18.5061 9.3667 18.503C9.51016 18.3076 9.66408 18.1066 9.81855 17.9123C14.8093 11.9495 21.7456 7.5676 28.7724 3.8781L28.7272 3.89955C28.7289 3.89883 28.7305 3.8981 28.7321 3.89738C30.4949 3.09687 32.2262 2.24209 34.035 1.45872C34.546 1.23571 35.058 1.01758 35.576 0.805273C35.6721 0.765777 35.7505 0.686681 35.7953 0.589261C35.8399 0.491616 35.8473 0.383637 35.8145 0.285201C35.7817 0.186764 35.711 0.104819 35.6167 0.0535149C35.5224 0.00243595 35.4122 -0.0138085 35.3117 0.0122321C35.3117 0.0122321 35.3117 0.0122321 35.3117 0.0122321C34.7699 0.153247 34.2287 0.285893 33.6839 0.419526C31.7663 0.883411 29.8065 1.39438 27.9799 2.19907C27.9782 2.19979 27.9766 2.20052 27.9749 2.20125L27.9298 2.2227C20.715 5.92381 13.6055 10.1843 8.18953 16.6163C8.01954 16.8297 7.84891 17.0522 7.68834 17.271C7.6858 17.2744 7.68327 17.2779 7.68074 17.2813L7.50841 17.6524C7.46027 17.8926 7.36058 18.2653 7.60574 18.7909C7.88331 19.3182 8.29856 19.4571 8.40444 19.522Z" fill="black"/>
<path d="M10.0516 16.3783C10.0212 16.0649 9.86749 15.7763 9.62433 15.5762C9.38118 15.376 9.06846 15.2806 8.75499 15.311C8.44152 15.3414 8.15296 15.4951 7.9528 15.7383C7.75264 15.9814 7.65727 16.2941 7.68768 16.6076C7.68768 16.6076 7.68768 16.6076 7.68768 16.6076C7.83704 17.4976 8.02229 17.8331 8.20716 18.373C10.2975 23.6751 12.8082 28.6353 15.6401 33.5082L15.732 33.6424C15.7336 33.6443 15.7351 33.6462 15.7366 33.6481C17.6417 36.0504 19.7898 38.2632 22.1415 40.2698L22.1302 40.2595C22.1307 40.2599 22.1312 40.2603 22.1317 40.2608C22.62 40.6879 23.1276 41.0995 23.6383 41.5149C24.0352 41.8376 24.4337 42.1622 24.8257 42.4957C24.9522 42.6031 25.123 42.6566 25.2952 42.6498C25.4676 42.6427 25.6273 42.576 25.7445 42.4588C25.8616 42.3416 25.9284 42.182 25.9355 42.0095C25.9422 41.8373 25.8888 41.6665 25.7814 41.54C25.7814 41.54 25.7814 41.54 25.7814 41.54C25.4478 41.1481 25.1211 40.7473 24.7874 40.3497C24.3582 39.838 23.9171 39.3314 23.4397 38.858C23.4392 38.8576 23.4387 38.8571 23.4382 38.8566L23.427 38.8462C21.3138 36.8016 19.438 34.494 17.5994 32.1749C17.5979 32.173 17.5965 32.1711 17.595 32.1693L17.6869 32.3035C14.9327 27.5719 12.4195 22.5883 10.432 17.542C10.3483 17.3181 10.2616 17.0764 10.1921 16.865C10.1214 16.6614 10.043 16.3516 10.0516 16.3783Z" fill="black"/>
</svg>
