<svg width="153" height="134" viewBox="0 0 153 134" fill="none" xmlns="http://www.w3.org/2000/svg">
<path d="M21.1213 14.6241C21.0792 14.4432 20.9671 14.2864 20.8095 14.1882C20.6519 14.09 20.4617 14.0585 20.2808 14.1005C20.0999 14.1425 19.9431 14.2547 19.8449 14.4123C19.7467 14.5699 19.7152 14.7601 19.7572 14.9409C19.7572 14.9409 19.7572 14.9409 19.7572 14.9409C21.0185 17.4962 22.964 18.2354 24.8365 19.3427C24.8368 19.3429 24.8371 19.343 24.8375 19.3432C24.8762 19.3633 24.9149 19.3833 24.9536 19.4029C27.5596 20.8104 30.6936 21.1064 33.2736 21.5289C33.2833 21.5311 33.293 21.5333 33.3028 21.5355C35.6568 22.0915 38.0333 22.8848 40.2908 23.8004C40.2926 23.8012 40.2944 23.8019 40.2962 23.8026C41.9619 24.6086 43.0836 26.9778 43.814 29.062C43.8161 29.0683 43.8182 29.0745 43.8203 29.0807C44.6748 31.5647 45.2434 34.1132 45.6403 36.725C45.6405 36.7268 45.6408 36.7286 45.6411 36.7305C46.1219 39.7531 46.3806 42.844 47.2221 45.9456C47.2248 45.9556 47.2276 45.9656 47.2305 45.9757C48.3637 48.8678 50.6618 49.9973 52.3629 51.6295C52.3637 51.6302 52.3645 51.6309 52.3652 51.6316C53.6895 52.8293 54.4508 54.7695 55.5487 56.6282C55.5505 56.6314 55.5524 56.6345 55.5543 56.6376C57.1198 59.5817 58.0607 63.1956 59.4483 66.5546C59.449 66.5564 59.4498 66.5582 59.4505 66.5599C61.0319 70.0649 64.1289 71.8706 66.6954 73.896C66.6961 73.8965 66.6968 73.8971 66.6976 73.8976C68.8394 75.4724 70.6539 77.2984 72.6456 79.2175C72.6496 79.2212 72.6536 79.2249 72.6575 79.2286C74.5686 81.0255 76.7549 82.5845 79.1637 83.7016C79.1762 83.7074 79.1886 83.7132 79.2011 83.719C81.682 84.8331 83.0805 87.7765 85.3954 90.183C85.4071 90.1951 85.4188 90.2072 85.4305 90.2192C87.1128 91.9638 89.1424 93.4166 91.3507 94.4329C91.3579 94.4362 91.365 94.4395 91.372 94.4428C93.2095 95.2742 94.6963 96.6655 96.3602 98.1534L96.3774 98.1681C96.3818 98.1718 96.3862 98.1755 96.3906 98.1792C96.7708 98.499 97.1532 98.8131 97.5351 99.1224C98.8431 100.191 100.173 101.167 101.155 102.293L101.173 102.314C101.174 102.315 101.176 102.316 101.177 102.318C101.539 102.725 102.205 102.955 102.838 102.794C102.933 102.768 103.025 102.741 103.102 102.704C103.18 102.667 103.239 102.619 103.275 102.555C103.31 102.491 103.32 102.416 103.312 102.33C103.303 102.244 103.277 102.152 103.249 102.057C103.249 102.057 103.249 102.057 103.249 102.057C103.083 101.457 103.02 101.12 102.77 100.85C102.769 100.849 102.768 100.848 102.767 100.847L102.786 100.868C101.558 99.4752 100.15 98.4953 98.868 97.4607C98.4909 97.1613 98.1179 96.8601 97.7487 96.5537C97.7445 96.5502 97.7402 96.5467 97.736 96.5431L97.7531 96.5578C96.1681 95.1636 94.4133 93.5288 92.2491 92.5578C92.2407 92.5539 92.2324 92.55 92.2241 92.5462C90.2329 91.634 88.4423 90.353 86.9123 88.7776C86.9017 88.7667 86.8911 88.7558 86.8805 88.7449C84.8252 86.7209 83.4232 83.4812 80.0459 81.8822C80.0345 81.877 80.0231 81.8718 80.0116 81.8665C77.8046 80.8604 75.772 79.479 73.9682 77.8175C73.9644 77.814 73.9606 77.8105 73.9568 77.8069C72.0498 76.0054 70.0401 74.0104 67.8092 72.4071C67.8084 72.4066 67.8077 72.406 67.8069 72.4054C65.1848 70.4283 62.2364 68.5864 61.0702 65.8972C61.0694 65.8955 61.0687 65.8938 61.068 65.8921C59.6933 62.6119 58.8582 59.1688 57.044 55.7457C57.0416 55.7416 57.0392 55.7376 57.0368 55.7336C56.0156 54.0603 55.2691 51.9865 53.5028 50.3523C53.5018 50.3514 53.5007 50.3505 53.4997 50.3495C51.7068 48.7382 49.4721 47.2539 48.8662 45.5152C48.8636 45.506 48.861 45.4968 48.8584 45.4875C48.0712 42.6266 47.7943 39.5396 47.301 36.4729C47.3007 36.471 47.3004 36.4691 47.3001 36.4673C46.8873 33.7965 46.2708 31.1152 45.368 28.5512C45.3657 28.5448 45.3635 28.5384 45.3613 28.532C44.467 26.2497 43.5827 23.7541 40.8945 22.355C40.8913 22.3537 40.8882 22.3524 40.8851 22.3512C38.5145 21.4125 36.138 20.6225 33.6314 20.0519C33.6209 20.0496 33.6105 20.0474 33.6 20.0451C30.6424 19.5893 28.0092 19.4398 25.5887 18.1548C25.5536 18.137 25.5184 18.1189 25.4832 18.1006C25.4829 18.1004 25.4826 18.1003 25.4823 18.1001C23.7779 17.2092 21.7125 15.8601 21.1213 14.6241Z" fill="#0588D5"/>
<path d="M99.1065 107.154C99.1456 106.862 99.0671 106.566 98.8882 106.332C98.7092 106.097 98.4446 105.944 98.1525 105.905C97.8603 105.866 97.5646 105.944 97.3304 106.123C97.0962 106.302 96.9426 106.567 96.9035 106.859C96.9035 106.859 96.9035 106.859 96.9035 106.859C96.8725 107.094 96.8488 107.309 96.8247 107.531C96.6368 109.41 96.469 111.241 96.5368 113.228C96.5368 113.229 96.5369 113.23 96.5369 113.231L96.5925 113.528C96.7631 114.194 97.4997 114.888 98.0578 115.079C98.6226 115.31 99.0767 115.38 99.5097 115.445C99.5099 115.445 99.5102 115.445 99.5104 115.445C100.803 115.611 101.959 115.597 103.153 115.629C103.362 115.634 103.572 115.639 103.782 115.646C103.958 115.654 104.139 115.615 104.29 115.518C104.441 115.42 104.549 115.275 104.591 115.107C104.634 114.939 104.609 114.759 104.523 114.601C104.437 114.444 104.296 114.323 104.138 114.246C103.929 114.146 103.716 114.055 103.502 113.97C102.284 113.488 100.981 113.269 99.831 113.119C99.8308 113.119 99.8306 113.119 99.8304 113.119C99.4569 113.069 99.0954 113.017 98.8969 112.953C98.689 112.865 98.7668 112.951 98.7013 112.825L98.7569 113.122C98.7569 113.121 98.7569 113.12 98.7568 113.119C98.6955 111.419 98.8524 109.559 99.0346 107.769C99.0573 107.559 99.0812 107.345 99.1065 107.154Z" fill="#0588D5"/>
<path d="M106.844 109.636C107.096 109.762 107.388 109.783 107.655 109.694C107.922 109.605 108.143 109.413 108.269 109.161C108.395 108.909 108.416 108.617 108.327 108.35C108.238 108.083 108.046 107.862 107.794 107.736C107.794 107.736 107.794 107.736 107.794 107.736C107.692 107.689 107.521 107.58 107.185 107.517C106.849 107.443 106.356 107.561 106.106 107.744C106.103 107.746 106.1 107.748 106.097 107.75C105.849 107.912 105.649 108.119 105.498 108.326C104.857 109.285 104.845 110.09 104.758 110.83C104.758 110.836 104.757 110.843 104.757 110.85C104.687 112.815 105.274 114.315 105.892 115.845C105.893 115.848 105.894 115.85 105.895 115.853C106.121 116.582 107.171 117.392 107.934 117.411C107.94 117.412 107.945 117.413 107.951 117.413C109.839 117.505 110.632 116.379 111.382 115.671C111.385 115.668 111.388 115.664 111.392 115.66C112.369 114.607 112.948 113.282 113.268 112.046L111.011 111.915C111.011 111.919 111.012 111.924 111.013 111.929C111.159 113.005 111.398 114.126 111.702 115.198L111.719 115.258C111.72 115.261 111.721 115.265 111.722 115.268C111.994 116.087 112.457 116.865 112.936 117.521C113.172 117.846 113.414 118.157 113.656 118.464C113.783 118.623 113.976 118.729 114.185 118.761C114.395 118.793 114.603 118.75 114.772 118.636C114.941 118.521 115.059 118.344 115.107 118.138C115.155 117.932 115.13 117.714 115.029 117.536C115.029 117.536 115.029 117.536 115.029 117.536C114.847 117.215 114.678 116.891 114.525 116.569C114.206 115.901 113.983 115.281 113.807 114.619C113.806 114.616 113.805 114.613 113.804 114.61L113.821 114.67C113.602 113.649 113.443 112.653 113.298 111.591C113.297 111.584 113.296 111.577 113.295 111.571L111.038 111.44C110.764 112.499 110.35 113.417 109.714 114.127C109.711 114.129 109.709 114.132 109.707 114.134C109.145 114.798 108.377 115.305 108.221 115.227C108.22 115.227 108.22 115.227 108.219 115.227C108.061 115.209 108.032 115.191 108.005 115.179C107.98 115.167 107.926 115.118 107.871 114.994C107.87 114.993 107.87 114.992 107.87 114.991C107.302 113.679 106.816 112.168 106.877 111.017C106.877 111.014 106.877 111.01 106.878 111.007C106.92 110.393 107.061 109.765 107.213 109.58C107.242 109.541 107.259 109.529 107.266 109.525C107.266 109.524 107.266 109.524 107.266 109.524C107.202 109.581 106.943 109.645 106.828 109.612C106.714 109.588 106.746 109.583 106.844 109.636Z" fill="#0588D5"/>
<path d="M10.0029 3.68981C10.1791 3.86601 10.418 3.965 10.6672 3.96501C10.9163 3.96503 11.1553 3.86606 11.3315 3.68989C11.5077 3.51372 11.6067 3.27477 11.6067 3.02561C11.6067 2.77645 11.5077 2.53749 11.3316 2.3613C11.3316 2.3613 11.3316 2.3613 11.3316 2.3613C11.3199 2.35076 11.3037 2.32922 11.2234 2.26353C11.1752 2.23041 11.1349 2.17902 10.9279 2.1004C10.8281 2.06704 10.6363 2.014 10.38 2.07752C10.1163 2.14144 9.92162 2.32731 9.84016 2.44725C9.67996 2.69389 9.69375 2.7732 9.67314 2.84665C9.66106 2.91656 9.65931 2.95524 9.65752 2.98802C9.65479 3.05302 9.65696 3.09199 9.65862 3.12424C9.66703 3.24971 9.67829 3.30917 9.6891 3.37889C9.68998 3.38426 9.69088 3.38963 9.69178 3.395C9.70085 3.44867 9.70934 3.49543 9.71753 3.54099C9.85817 4.28694 9.91727 5.00444 10.0089 5.75079C10.0093 5.75397 10.0097 5.75716 10.0101 5.76035C10.245 7.68757 10.5463 9.62797 10.9463 11.5881C10.977 11.7391 11.0083 11.8898 11.0401 12.042C11.0599 12.1359 11.1057 12.2255 11.1784 12.2907C11.251 12.356 11.3433 12.3916 11.4378 12.3897C11.5323 12.3878 11.6231 12.3485 11.693 12.2804C11.763 12.2123 11.8052 12.121 11.8212 12.0263C11.8212 12.0263 11.8212 12.0263 11.8212 12.0263C11.8469 11.8714 11.871 11.7174 11.8937 11.563C12.1864 9.55695 12.2287 7.52828 11.9834 5.51699C11.983 5.51366 11.9826 5.51033 11.9822 5.507C11.8872 4.73637 11.7185 3.94861 11.5654 3.19567C11.5575 3.15501 11.5501 3.11576 11.5446 3.08311C11.5441 3.07987 11.5436 3.07676 11.5431 3.07379C11.5369 3.03882 11.5327 2.99681 11.5344 3.01669C11.5347 3.02371 11.536 3.03527 11.5344 3.07446C11.5332 3.09461 11.5325 3.12027 11.5228 3.17689C11.5046 3.23744 11.5214 3.30412 11.3688 3.53975C11.2912 3.65428 11.1017 3.83582 10.8444 3.89812C10.5945 3.96 10.4095 3.9081 10.3158 3.87682C10.1212 3.80264 10.0917 3.75903 10.0537 3.73395C9.99381 3.68464 9.99601 3.68189 10.0029 3.68981Z" fill="#0588D5"/>
<path d="M9.9288 3.33091C9.9288 3.52672 10.0066 3.7145 10.145 3.85296C10.2835 3.99141 10.4713 4.06919 10.6671 4.06919C10.8629 4.06919 11.0507 3.99141 11.1891 3.85296C11.3276 3.7145 11.4054 3.52672 11.4054 3.33091C11.3574 3.62776 11.3732 3.44248 11.457 3.38586C11.5354 3.3024 11.6458 3.20727 11.764 3.11687C12.2625 2.73929 12.8816 2.40993 13.5058 2.12228C13.5227 2.11454 13.5397 2.10694 13.5568 2.09944C13.6823 2.04418 13.7447 2.083 13.7076 2.09988C13.6728 2.1121 13.6865 2.1289 13.743 2.23261C13.7499 2.24538 13.757 2.25924 13.764 2.27406C14.0593 2.83325 13.5439 4.20454 13.1059 5.4166C13.0889 5.46485 13.0719 5.51329 13.0549 5.56188C12.6503 6.57825 12.7946 7.99797 13.431 8.90713C13.7266 9.37233 14.0769 9.74845 14.3959 10.0774C14.5545 10.2409 14.7083 10.3954 14.8232 10.5262C14.9404 10.6415 14.9966 10.8102 14.9414 10.6334C14.9417 10.6362 14.9417 10.6374 14.9417 10.6396C14.9583 10.6424 14.7579 10.8451 14.5007 11.0881C14.4791 11.1091 14.4571 11.1308 14.4354 11.1529C14.1036 11.4919 13.6583 11.7801 13.3021 11.9009C13.2879 11.9058 13.2737 11.9106 13.2592 11.9152C12.9471 12.0223 12.467 12.3549 11.9868 12.2337C11.9786 12.2316 11.9706 12.2294 11.9627 12.2271C11.8815 12.2033 11.8034 12.1757 11.727 12.1438C11.4895 12.0456 11.2662 11.8968 10.9787 11.6895C10.8063 11.5663 10.5921 11.5167 10.3831 11.5516C10.1741 11.5864 9.98751 11.7028 9.86437 11.8752C9.74123 12.0476 9.69162 12.2619 9.72644 12.4708C9.76127 12.6798 9.87769 12.8664 10.0501 12.9896C10.0501 12.9896 10.0501 12.9896 10.0501 12.9896C10.333 13.1931 10.6949 13.4464 11.1099 13.6174C11.2422 13.6729 11.3778 13.7206 11.5137 13.7604C11.527 13.7643 11.5404 13.7682 11.5537 13.7722C12.2655 13.982 13.0778 14.3466 13.9506 14.0769C13.9863 14.0654 14.0217 14.0535 14.0572 14.0409C14.9167 13.7227 15.5291 13.2046 16.0562 12.5868C16.0908 12.5453 16.1244 12.5021 16.1566 12.458C16.4315 12.0458 16.7814 11.5045 16.802 10.6301C16.8014 10.5253 16.7919 10.4196 16.7741 10.317C16.6327 9.70108 16.3838 9.51289 16.2174 9.29802C16.0391 9.09731 15.8771 8.93811 15.7271 8.78339C15.4279 8.47775 15.1758 8.19665 14.9953 7.9125C14.6329 7.34403 14.5775 6.81955 14.799 6.16767C14.8152 6.12082 14.8315 6.07371 14.848 6.02641C15.1856 4.77771 16.082 3.4538 15.2473 1.47599C15.2253 1.43667 15.2018 1.39721 15.1768 1.35769C14.9919 1.06279 14.656 0.717089 14.1652 0.593222C13.6734 0.469659 13.2444 0.615312 12.9458 0.754332C12.9273 0.763059 12.9087 0.771674 12.8902 0.780165C12.2005 1.10048 11.526 1.44819 10.866 1.94473C10.7055 2.06837 10.5454 2.20121 10.3818 2.37378C10.3002 2.46122 10.217 2.55727 10.1319 2.68997C10.053 2.82613 9.93983 2.98761 9.9288 3.33091Z" fill="#0588D5"/>
<path d="M20.68 2.50288C20.5009 2.68199 20.4002 2.92491 20.4002 3.17822C20.4002 3.43152 20.5008 3.67445 20.6799 3.85357C20.859 4.03269 21.102 4.13332 21.3553 4.13333C21.6086 4.13334 21.8515 4.03273 22.0306 3.85362C22.0306 3.85362 22.0306 3.85362 22.0306 3.85362C22.2835 3.57838 22.2888 3.415 22.3206 3.30442C22.3428 3.1918 22.3452 3.12027 22.3467 3.05501C22.3479 2.92899 22.3374 2.84187 22.3263 2.76092C22.3029 2.60187 22.2716 2.47648 22.2379 2.3548C22.1702 2.11563 22.0909 1.90381 22.0059 1.69878C21.9443 1.55091 21.8795 1.4081 21.8116 1.26758C21.8115 1.26744 21.8115 1.2673 21.8114 1.26717C21.6123 0.82167 21.1743 0.459334 20.8392 0.299362C20.4958 0.127391 20.2105 0.0519353 19.9564 0.0232433C19.9547 0.0230655 19.953 0.0228884 19.9513 0.0227121C19.1769 -0.063827 18.2077 0.0842329 17.458 0.689181C17.4524 0.69363 17.4468 0.698103 17.4412 0.702601C16.5252 1.4941 16.1755 2.41427 16.0142 3.41538C16.0124 3.42831 16.0107 3.44125 16.0091 3.4542C15.882 4.43749 16.1225 5.42542 16.5839 6.24348C16.5936 6.26085 16.6035 6.27814 16.6134 6.29535C17.8334 8.59978 20.7028 9.5078 21.9096 10.3115C21.9116 10.3132 21.9133 10.3148 21.9147 10.3161C21.9361 10.3408 21.8746 10.3074 21.8512 10.2514C21.8251 10.1973 21.8259 10.1699 21.802 10.1986C21.8012 10.1994 21.8002 10.2006 21.799 10.2021C21.6729 10.3871 20.907 10.8284 20.2396 11.089C20.2324 11.092 20.2251 11.0949 20.2179 11.0978C19.5611 11.363 18.8315 11.62 18.096 11.9088C17.7252 12.054 17.3516 12.2068 16.9797 12.3701C16.8064 12.4471 16.6665 12.5969 16.5876 12.7777C16.5089 12.959 16.4977 13.1565 16.5595 13.3354C16.6213 13.5144 16.7519 13.6629 16.9257 13.757C17.0993 13.8506 17.3019 13.8822 17.4858 13.8359C17.4858 13.8359 17.4858 13.8359 17.4858 13.8359C17.8461 13.7463 18.213 13.6716 18.5859 13.6016C19.327 13.4609 20.0908 13.3472 20.8945 13.1287C20.9034 13.1263 20.9123 13.1238 20.9212 13.1214C21.7781 12.8407 22.6324 12.7208 23.6145 11.6782C23.631 11.6579 23.6472 11.6372 23.6631 11.6161C24.3151 10.9003 24.178 9.32452 23.3581 8.72082C23.3328 8.69799 23.307 8.67572 23.2807 8.65402C20.9599 7.21364 19.3346 6.83627 18.4536 5.23271C18.4481 5.22313 18.4426 5.2135 18.4372 5.20383C18.1778 4.74253 18.083 4.22077 18.1571 3.74362C18.158 3.7371 18.159 3.73057 18.1601 3.72403C18.2323 3.21688 18.5485 2.63446 18.8229 2.43829C18.8244 2.43712 18.826 2.43596 18.8275 2.43481C19.0203 2.28881 19.3171 2.22337 19.7193 2.26465C19.7205 2.26478 19.7217 2.2649 19.7229 2.26502C19.897 2.28212 20.0427 2.26847 20.1044 2.2475C20.1723 2.23395 20.1071 2.14807 20.0915 2.09818C20.0915 2.09829 20.0916 2.0984 20.0916 2.09851C20.1459 2.21073 20.1964 2.32238 20.2424 2.43291C20.3058 2.58509 20.3615 2.73818 20.3987 2.87093C20.4173 2.93641 20.4309 2.99922 20.4354 3.03194C20.4379 3.04667 20.4368 3.05655 20.4368 3.02706C20.4375 3.01059 20.4366 2.98653 20.4491 2.92202C20.471 2.85846 20.4609 2.74348 20.68 2.50288Z" fill="#0588D5"/>
<path d="M2.37562 120.532C2.35877 120.706 2.41184 120.88 2.52315 121.015C2.63447 121.15 2.79491 121.236 2.96918 121.253C3.14345 121.27 3.31728 121.216 3.45242 121.105C3.58757 120.994 3.67296 120.833 3.68981 120.659C3.67236 120.757 3.68634 120.677 3.71815 120.627C3.74925 120.569 3.79417 120.498 3.84241 120.428C3.94044 120.285 4.05575 120.136 4.17646 119.988C4.41888 119.692 4.68198 119.397 4.95136 119.105C5.49019 118.522 6.05431 117.948 6.62386 117.379C6.62538 117.378 6.6269 117.376 6.62842 117.375C7.65278 116.342 8.42797 115.176 9.17052 114.021C10.5658 111.81 11.8435 109.58 13.1937 107.384C13.1961 107.38 13.1985 107.376 13.2009 107.372C15.3524 103.994 16.2852 99.9184 17.2381 96.3391C17.2389 96.3366 17.2397 96.3342 17.2405 96.3317C18.7413 91.3747 19.8328 86.3548 20.1788 81.1413C20.1794 81.1308 20.1799 81.1204 20.1805 81.11C20.2618 78.7904 21.0372 76.7888 22.2944 74.7145C22.2995 74.7054 22.3047 74.6963 22.3098 74.6872C23.4877 72.4647 25.631 71.1608 27.9354 69.5355C27.9378 69.5337 27.9403 69.5319 27.9427 69.53C32.3464 66.4535 37.3825 63.851 42.1043 60.9641C42.114 60.9583 42.1237 60.9525 42.1334 60.9467C46.4443 58.2126 51.0787 56.6468 56.0515 55.2605C56.0708 55.2547 56.0901 55.2489 56.1095 55.243C58.1258 54.5963 60.2173 54.3275 62.4092 53.4546C62.4311 53.4453 62.453 53.436 62.4749 53.4266C64.4658 52.5914 66.7198 52.1188 68.9481 51.4503C68.9742 51.4425 69.0003 51.4347 69.0264 51.4268C71.4779 50.6739 73.9794 50.0989 76.5006 49.2377C76.5333 49.2263 76.5659 49.2148 76.5984 49.2034C80.6111 47.8499 84.5991 46.3355 88.5579 44.8067C88.6012 44.79 88.6447 44.7732 88.6883 44.7563C91.8299 43.5513 93.9409 41.0316 96.1052 39.0234C96.1358 38.9945 96.1665 38.9655 96.1973 38.9366C98.46 36.7644 101.007 35.0098 103.958 34.2332C104.002 34.2212 104.046 34.2094 104.09 34.1977C106.825 33.4643 109.617 35.5504 112.204 37.4533C112.213 37.46 112.222 37.4668 112.232 37.4735C115.37 39.6564 118.021 42.1413 121.23 44.5674C121.244 44.5763 121.257 44.5853 121.27 44.5942C122.691 45.5218 124.258 45.7784 125.723 45.9476C127.148 46.105 128.569 46.1092 129.848 46.269L129.874 46.2721C129.879 46.2726 129.884 46.273 129.888 46.2735C130.518 46.3321 131.051 46.3343 131.563 46.3961C131.566 46.3964 131.569 46.3967 131.571 46.397C132.461 46.5007 133.545 46.4151 134.577 46.4977C134.637 46.5028 134.703 46.481 134.757 46.4435C134.811 46.4057 134.85 46.3553 134.866 46.2971C134.883 46.2388 134.876 46.1756 134.849 46.115C134.822 46.0548 134.778 46.0021 134.723 45.975C134.723 45.975 134.723 45.975 134.723 45.975C133.788 45.5194 132.91 44.849 131.774 44.702C131.77 44.7016 131.767 44.7012 131.764 44.7009C131.153 44.6248 130.554 44.6195 130.058 44.5711C130.054 44.5707 130.051 44.5703 130.047 44.5699L130.073 44.573C128.6 44.393 127.235 44.4005 125.902 44.2557C124.544 44.1128 123.198 43.8456 122.21 43.1879C122.199 43.1802 122.187 43.1724 122.175 43.1646C119.303 40.996 116.355 38.2757 113.223 36.0979C113.214 36.0914 113.204 36.0849 113.195 36.0784C110.658 34.2833 107.601 31.5893 103.649 32.5256C103.6 32.5384 103.551 32.5515 103.503 32.5647C100.227 33.4152 97.3417 35.4258 95.0104 37.6733C94.9786 37.7031 94.9469 37.733 94.9153 37.7628C92.6737 39.869 90.6959 42.1723 88.0705 43.1617C88.027 43.1785 87.9837 43.1954 87.9405 43.2121C83.981 44.7461 80.0578 46.2394 76.0325 47.6011C76.002 47.6119 75.9713 47.6226 75.9406 47.6334C73.5702 48.4477 71.0279 49.0397 68.5373 49.8056C68.5124 49.8131 68.4873 49.8206 68.4622 49.8282C66.3086 50.4811 64.0505 50.943 61.8095 51.878C61.7912 51.8858 61.7728 51.8936 61.7544 51.9014C59.9371 52.6412 57.7155 52.9666 55.6224 53.6314C55.6032 53.6372 55.5841 53.643 55.565 53.6488C50.7207 54.9896 45.6143 56.7337 41.2748 59.5076C41.2651 59.5134 41.2555 59.5191 41.2458 59.5249C36.5035 62.4279 31.6286 64.9155 26.9326 68.188C26.93 68.19 26.9273 68.192 26.9247 68.194C24.8819 69.6433 22.18 71.2086 20.7978 73.8374C20.7928 73.8463 20.7878 73.8552 20.7828 73.8641C19.5319 75.8819 18.5056 78.4991 18.458 81.0221C18.4575 81.032 18.457 81.0419 18.4565 81.0518C18.1471 86.0135 17.106 91.048 15.6981 95.8457C15.6973 95.848 15.6966 95.8504 15.6959 95.8528C14.6977 99.7406 13.974 103.386 11.9765 106.633C11.9741 106.637 11.9718 106.641 11.9694 106.645C10.6386 108.869 9.38112 111.137 8.038 113.306C7.32699 114.436 6.5865 115.545 5.69508 116.441C5.69376 116.442 5.69244 116.443 5.69112 116.445C5.11425 117.021 4.54111 117.603 3.98096 118.21C3.70028 118.514 3.4239 118.823 3.15321 119.154C3.01773 119.32 2.88482 119.49 2.75319 119.682C2.68789 119.777 2.62155 119.88 2.55669 119.999C2.49454 120.127 2.41594 120.236 2.37562 120.532Z" fill="#0588D5"/>
<path d="M0.320747 123.613C0.473138 123.766 0.67981 123.851 0.895299 123.851C1.11079 123.851 1.31744 123.765 1.4698 123.613C1.62215 123.461 1.70773 123.254 1.70771 123.039C1.70768 122.823 1.62205 122.616 1.46966 122.464C1.46966 122.464 1.46966 122.464 1.46966 122.464C1.4581 122.454 1.44145 122.431 1.36426 122.37C1.32017 122.339 1.27323 122.291 1.10289 122.23C1.01862 122.203 0.882486 122.171 0.706873 122.199C0.532899 122.224 0.359177 122.328 0.271444 122.416C-0.0401836 122.782 0.0509861 122.832 0.0150001 122.909C0.00446082 122.976 0.00290491 123.013 0.00125088 123.047C-0.00260804 123.174 0.00405311 123.234 0.00901032 123.305C0.00942281 123.31 0.00984778 123.315 0.010285 123.32C0.0133216 123.356 0.0163669 123.388 0.0196106 123.42C0.106843 124.187 0.15801 124.872 0.255421 125.587C0.255827 125.59 0.256234 125.593 0.256643 125.596C0.501397 127.332 0.791587 129.058 1.12728 130.787C1.15358 130.922 1.1801 131.057 1.20709 131.193C1.23724 131.344 1.31786 131.484 1.44084 131.581C1.56374 131.678 1.71754 131.723 1.87046 131.708C2.02338 131.692 2.16472 131.616 2.26545 131.497C2.36626 131.377 2.41681 131.224 2.4156 131.069C2.4156 131.069 2.4156 131.069 2.4156 131.069C2.41426 130.929 2.41245 130.791 2.40991 130.652C2.37807 128.877 2.23665 127.104 1.98972 125.353C1.98931 125.35 1.9889 125.347 1.98849 125.344C1.89098 124.638 1.71897 123.908 1.63624 123.251C1.63351 123.226 1.63125 123.204 1.62944 123.183C1.62918 123.18 1.62893 123.177 1.6287 123.174C1.62534 123.138 1.62494 123.095 1.62483 123.115C1.6243 123.122 1.62467 123.134 1.61838 123.174C1.58708 123.226 1.68319 123.247 1.39003 123.595C1.30692 123.678 1.13934 123.778 0.97185 123.802C0.802777 123.83 0.673398 123.799 0.595323 123.774C0.437587 123.717 0.401715 123.676 0.368052 123.654C0.311671 123.608 0.313576 123.605 0.320747 123.613Z" fill="#0588D5"/>
<path d="M0.429765 125.336C0.593682 125.5 0.815997 125.592 1.0478 125.592C1.27961 125.592 1.50192 125.5 1.66582 125.336C1.82973 125.172 1.9218 124.95 1.92179 124.718C1.92178 124.486 1.82969 124.264 1.66577 124.1C1.66577 124.1 1.66577 124.1 1.66577 124.1C1.86912 124.318 1.87783 124.466 1.89686 124.545C1.90858 124.619 1.90696 124.662 1.90626 124.688C1.90348 124.743 1.89945 124.754 1.89838 124.761C1.89574 124.773 1.90043 124.753 1.90753 124.732C1.92256 124.686 1.94853 124.621 1.97745 124.555C2.03601 124.422 2.10887 124.277 2.18683 124.132C2.44187 123.661 2.74747 123.185 3.0694 122.724C3.07267 122.719 3.07595 122.715 3.07924 122.71C3.16599 122.592 3.24745 122.534 3.42774 122.485C3.60527 122.439 3.86226 122.433 4.1458 122.465C4.15585 122.466 4.16592 122.467 4.17602 122.468C4.63636 122.521 5.16869 122.744 5.48942 123.013C5.49982 123.021 5.51006 123.03 5.51952 123.039C5.61827 123.13 5.65123 123.212 5.64826 123.25C5.645 123.289 5.63825 123.311 5.63006 123.408C5.62878 123.42 5.62708 123.434 5.62491 123.448C5.54602 124.103 4.98225 124.71 4.31488 125.836C4.29455 125.875 4.27364 125.917 4.25379 125.958C3.96177 126.522 4.0585 127.266 4.25456 127.68C4.44605 128.119 4.67608 128.416 4.88578 128.685C5.09669 128.951 5.29988 129.182 5.46372 129.389C5.62647 129.584 5.74818 129.807 5.72837 129.781L5.91262 128.846C5.89695 128.866 5.88115 128.886 5.86523 128.906C5.09159 129.88 3.82824 130.804 2.84131 131.065L2.96207 131.046C2.95547 131.046 2.9488 131.047 2.94206 131.048C2.75789 131.065 2.54182 131.076 2.31459 131.083C1.98756 131.093 1.63601 131.093 1.27459 131.083C1.03012 131.076 0.787933 131.171 0.601833 131.338C0.415702 131.506 0.300905 131.733 0.282163 131.977C0.263421 132.22 0.342118 132.462 0.500409 132.657C0.658731 132.85 0.883679 132.98 1.1263 133.011C1.1263 133.011 1.1263 133.011 1.1263 133.011C1.48569 133.056 1.85485 133.114 2.25058 133.146C2.52681 133.168 2.81589 133.18 3.13394 133.151C3.14563 133.15 3.15731 133.149 3.169 133.148L3.28976 133.129C5.19556 132.579 6.39726 131.547 7.51741 130.227C7.53879 130.2 7.56001 130.173 7.58109 130.146L7.90934 129.723L7.76534 129.211C7.3389 128.085 6.83292 127.83 6.49622 127.374C6.32509 127.173 6.18715 126.979 6.13372 126.863C6.08133 126.728 6.10807 126.813 6.08996 126.825C6.0974 126.809 6.10617 126.791 6.11555 126.772C6.44421 126.122 7.40703 125.165 7.61685 123.734C7.62334 123.689 7.62881 123.642 7.63312 123.594C7.75645 122.863 7.20209 121.928 6.68855 121.603C6.6644 121.584 6.63961 121.565 6.61548 121.548C5.90213 121.044 5.18186 120.803 4.36294 120.708C4.34881 120.707 4.33461 120.705 4.32034 120.704C3.57624 120.618 2.31637 120.715 1.64708 121.708C1.64351 121.713 1.63994 121.718 1.63639 121.723C1.28601 122.226 0.951942 122.742 0.647735 123.304C0.553904 123.478 0.463478 123.656 0.376866 123.853C0.333539 123.952 0.29092 124.054 0.248513 124.181C0.228157 124.243 0.205801 124.314 0.185343 124.413C0.175512 124.464 0.164269 124.519 0.159531 124.62C0.157946 124.667 0.156959 124.736 0.172126 124.83C0.195082 124.933 0.210963 125.103 0.429765 125.336Z" fill="#0588D5"/>
<path d="M9.86544 122.466C10.0376 122.638 10.2711 122.735 10.5145 122.735C10.758 122.735 10.9915 122.638 11.1636 122.466C11.3358 122.294 11.4325 122.061 11.4325 121.817C11.4325 121.574 11.3358 121.34 11.1637 121.168C11.1637 121.168 11.1637 121.168 11.1637 121.168C11.1185 121.125 11.0749 121.077 10.9506 121C10.8834 120.961 10.7947 120.908 10.6213 120.873C10.4512 120.833 10.1355 120.864 9.92331 121.014C9.52833 121.322 9.56397 121.489 9.51782 121.586C9.49344 121.68 9.48766 121.739 9.48272 121.788C9.46908 121.97 9.47951 122.05 9.4852 122.142C9.55785 122.855 9.67791 123.393 9.78903 123.989L9.7842 123.962C9.78771 123.983 9.79123 124.005 9.79476 124.027C9.9811 125.205 10.4234 126.383 10.5218 127.571C10.5224 127.579 10.523 127.587 10.5235 127.595C10.5626 128.13 10.5775 128.645 10.5352 129.157C10.5254 129.282 10.5128 129.409 10.4995 129.542C10.4829 129.708 10.5329 129.873 10.6386 130.002C10.7442 130.132 10.8967 130.213 11.0627 130.23C11.2287 130.247 11.3945 130.197 11.5235 130.091C11.6526 129.985 11.7345 129.833 11.7511 129.667C11.7511 129.667 11.7511 129.667 11.7511 129.667C11.7643 129.534 11.7781 129.397 11.7891 129.256C11.8381 128.665 11.8197 128.07 11.778 127.503C11.7774 127.495 11.7768 127.486 11.7762 127.478C11.68 126.227 11.8028 124.974 11.6072 123.734C11.6035 123.711 11.5998 123.688 11.5961 123.665L11.5913 123.638C11.4841 123.077 11.3604 122.458 11.3155 121.999C11.3113 121.959 11.3137 121.906 11.311 121.955C11.3092 121.971 11.3081 121.996 11.2919 122.059C11.2549 122.124 11.3021 122.258 10.9349 122.546C10.7368 122.687 10.4383 122.715 10.2846 122.678C10.1273 122.647 10.0537 122.601 10.0011 122.571C9.90506 122.511 9.88559 122.484 9.86544 122.466Z" fill="#0588D5"/>
<path d="M10.6672 123.211C10.956 123.211 11.233 123.097 11.4372 122.892C11.6414 122.688 11.7561 122.411 11.7561 122.123C11.7561 121.834 11.6414 121.557 11.4372 121.353C11.233 121.148 10.956 121.034 10.6672 121.034C10.707 121.034 10.7581 121.035 10.8375 121.048C10.8814 121.07 11.1044 121.034 11.4617 121.387C11.6207 121.529 11.7868 121.966 11.7394 122.222C11.7261 122.357 11.6923 122.461 11.6586 122.541C11.6296 122.608 11.6163 122.63 11.5959 122.666C11.5208 122.792 11.4574 122.853 11.424 122.887C11.3122 122.991 11.2961 122.992 11.2717 123.01C11.2375 123.032 11.2345 123.032 11.2326 123.034C11.2318 123.034 11.2474 123.026 11.2646 123.018C11.2998 123.001 11.3461 122.98 11.3934 122.96C11.7678 122.799 12.1926 122.639 12.6094 122.487L12.5517 122.506C12.5659 122.502 12.5799 122.498 12.5939 122.493C13.0134 122.369 13.5955 122.301 14.167 122.165C14.1794 122.163 14.1919 122.16 14.2045 122.157C15.3089 121.888 16.281 121.487 17.3002 120.97C17.4094 120.914 17.5181 120.857 17.6284 120.798C17.7362 120.74 17.8352 120.66 17.9 120.554C17.9649 120.449 17.9904 120.329 17.9699 120.214C17.9494 120.098 17.884 119.994 17.7869 119.918C17.6898 119.841 17.5692 119.8 17.448 119.783C17.448 119.783 17.448 119.783 17.448 119.783C17.3214 119.766 17.1965 119.751 17.0712 119.738C15.916 119.619 14.7393 119.734 13.6967 119.989C13.6853 119.992 13.674 119.994 13.6628 119.997C13.1525 120.123 12.6314 120.217 11.9819 120.403C11.9619 120.409 11.9421 120.415 11.922 120.421L11.8643 120.44C11.4217 120.603 10.9916 120.762 10.5257 120.962C10.4634 120.989 10.4004 121.017 10.3284 121.052C10.2905 121.07 10.2551 121.087 10.2004 121.116C10.1721 121.131 10.1423 121.147 10.0842 121.184C10.0463 121.212 10.018 121.22 9.89631 121.335C9.86015 121.371 9.7937 121.436 9.71706 121.564C9.69625 121.601 9.68272 121.624 9.65328 121.692C9.61918 121.773 9.58504 121.878 9.57172 122.013C9.524 122.271 9.69094 122.71 9.85092 122.853C10.21 123.208 10.4388 123.174 10.4851 123.197C10.5677 123.21 10.6227 123.211 10.6672 123.211Z" fill="#0588D5"/>
<path d="M10.2164 126.089C10.0131 126.168 9.8496 126.325 9.76177 126.525C9.67394 126.724 9.66901 126.951 9.74805 127.154C9.82709 127.357 9.98363 127.521 10.1832 127.608C10.3829 127.696 10.6092 127.701 10.8124 127.622C10.8124 127.622 10.8124 127.622 10.8124 127.622C10.9057 127.586 10.9988 127.55 11.0918 127.514C11.8163 127.234 12.5448 126.948 13.2398 126.729C13.2399 126.729 13.24 126.729 13.2401 126.729C13.7022 126.585 14.1053 126.558 14.6053 126.504C14.6054 126.504 14.6056 126.504 14.6057 126.504C15.0854 126.442 15.4641 126.336 15.9702 126.176C16.0677 126.144 16.1672 126.11 16.2688 126.073C16.3655 126.039 16.4598 125.992 16.5331 125.922C16.6065 125.852 16.6529 125.765 16.663 125.672C16.6732 125.579 16.6466 125.484 16.59 125.4C16.5334 125.316 16.4514 125.25 16.3644 125.195C16.2664 125.137 16.1667 125.083 16.0648 125.035C15.5641 124.786 14.9243 124.694 14.4011 124.766C14.4009 124.766 14.4008 124.766 14.4007 124.766C13.8796 124.819 13.2717 124.992 12.7541 125.158C12.754 125.158 12.7538 125.158 12.7537 125.158C11.9575 125.409 11.2303 125.698 10.4966 125.981C10.4031 126.017 10.3096 126.053 10.2164 126.089Z" fill="#0588D5"/>
<path d="M9.59546 130.368C9.59546 130.611 9.69228 130.845 9.86461 131.017C10.0369 131.19 10.2707 131.287 10.5144 131.287C10.7581 131.287 10.9919 131.19 11.1642 131.017C11.3365 130.845 11.4333 130.611 11.4333 130.368C11.4352 130.592 11.3428 130.777 11.2895 130.856C11.2395 130.933 11.1939 130.98 11.1572 131.016C11.0974 131.071 11.0624 131.093 11.0392 131.108C10.9964 131.135 10.9827 131.14 10.9746 131.144C10.9611 131.15 10.9722 131.145 10.9862 131.14C11.016 131.129 11.063 131.114 11.112 131.1C11.9218 130.872 12.8709 130.677 13.772 130.48L13.7953 130.475C13.8003 130.474 13.8052 130.473 13.8102 130.472C14.6536 130.268 15.3673 129.662 16.1602 129.414C16.1622 129.413 16.1641 129.413 16.1661 129.412C16.6069 129.276 17.0475 129.143 17.4898 129.01C17.6087 128.974 17.7277 128.938 17.8468 128.903C17.9847 128.861 18.1005 128.767 18.1688 128.64C18.2371 128.513 18.2522 128.365 18.2108 128.227C18.1694 128.089 18.075 127.973 17.9482 127.905C17.8214 127.836 17.6727 127.821 17.5347 127.863C17.5347 127.863 17.5347 127.863 17.5347 127.863C17.4156 127.898 17.2965 127.934 17.1772 127.97C16.7337 128.103 16.2899 128.238 15.8467 128.374C15.8447 128.375 15.8427 128.375 15.8408 128.376C15.0401 128.622 14.1552 128.497 13.3763 128.686C13.3717 128.687 13.367 128.688 13.3624 128.689L13.3857 128.684C12.4603 128.887 11.5761 129.062 10.5852 129.339C10.5151 129.36 10.4448 129.382 10.357 129.414C10.3116 129.43 10.2647 129.448 10.1956 129.48C10.1588 129.497 10.1168 129.517 10.0493 129.56C10.0128 129.584 9.96432 129.615 9.89415 129.68C9.85099 129.722 9.80034 129.775 9.74664 129.857C9.68917 129.943 9.59349 130.137 9.59546 130.368Z" fill="#0588D5"/>
<path d="M135.098 36.1831C134.861 36.2264 134.651 36.3618 134.515 36.5597C134.378 36.7575 134.326 37.0016 134.369 37.2381C134.412 37.4747 134.547 37.6844 134.745 37.8211C134.943 37.9578 135.187 38.0103 135.424 37.967C135.424 37.967 135.424 37.967 135.424 37.967C135.618 37.9383 136.054 37.9203 136.394 37.9165C138.132 37.9061 139.932 38.0513 141.52 38.5299C141.561 38.5424 141.601 38.5553 141.641 38.5684C141.553 38.5412 141.36 38.4467 141.239 38.2269C141.128 38.0166 141.147 37.859 141.155 37.7978C141.178 37.679 141.177 37.723 141.155 37.7554C141.109 37.8365 141.012 37.9701 140.911 38.094C140.7 38.3511 140.448 38.6183 140.192 38.8787C139.676 39.4008 139.123 39.9165 138.567 40.4293C137.452 41.4558 136.31 42.4773 135.205 43.5522L134.662 44.0805L135.013 44.7533C135.034 44.7941 135.057 44.8338 135.08 44.8725C136.064 46.1693 137.076 46.1038 137.922 46.3004C138.787 46.4309 139.611 46.4734 140.392 46.5756L140.334 46.5616C140.344 46.5638 140.355 46.5659 140.365 46.5681C140.493 46.5953 140.621 46.6149 140.747 46.6344C141.061 46.6801 141.372 46.7378 141.724 46.8993C141.812 46.9386 141.924 46.94 142.026 46.9123C142.129 46.8841 142.215 46.8291 142.271 46.7503C142.327 46.6715 142.352 46.5726 142.345 46.4662C142.338 46.3602 142.3 46.2555 142.234 46.1841C142.234 46.1841 142.234 46.1841 142.234 46.1841C141.982 45.9036 141.653 45.5561 141.266 45.3308C141.111 45.2382 140.951 45.1618 140.788 45.1048C140.775 45.1002 140.762 45.0957 140.749 45.0912L140.691 45.0771C139.861 44.8597 139.052 44.6898 138.309 44.4802C137.595 44.3037 136.806 43.9102 136.82 43.813C136.819 43.8118 136.819 43.8111 136.819 43.8106L136.626 45.0117C137.707 43.9583 138.805 42.9028 139.897 41.8224C140.443 41.2814 140.99 40.7353 141.529 40.1589C141.798 39.8687 142.068 39.5728 142.337 39.2329C142.469 39.0616 142.604 38.8866 142.745 38.6338C142.813 38.5016 142.898 38.3644 142.95 38.0617C142.962 37.9757 142.969 37.8843 142.958 37.7692C142.945 37.6411 142.907 37.4955 142.83 37.3551C142.662 37.0498 142.392 36.9046 142.204 36.8445C142.156 36.8286 142.107 36.813 142.057 36.7978C140.149 36.2298 138.268 36.097 136.371 36.1032C135.96 36.1135 135.639 36.1062 135.098 36.1831Z" fill="#0588D5"/>
<path d="M144.496 38.5649C144.608 38.7882 144.804 38.958 145.041 39.037C145.278 39.1159 145.536 39.0975 145.759 38.9859C145.983 38.8742 146.152 38.6784 146.231 38.4415C146.31 38.2047 146.292 37.9461 146.18 37.7228C146.18 37.7228 146.18 37.7228 146.18 37.7228C146.169 37.7014 146.154 37.6683 146.121 37.6107C146.077 37.5498 146.071 37.4766 145.834 37.2777C145.722 37.1847 145.413 37.0274 145.082 37.0868C144.761 37.1455 144.62 37.2896 144.538 37.3647C144.382 37.5286 144.361 37.5979 144.323 37.6641C144.319 37.6707 144.316 37.6773 144.313 37.684C144.219 37.8828 144.198 37.9916 144.168 38.098C143.987 38.9152 143.881 39.5136 143.829 40.1966C143.829 40.1989 143.829 40.2012 143.829 40.2034C143.681 42.6701 143.773 45.1192 144.053 47.5608C144.073 47.7333 144.094 47.9045 144.116 48.0775C144.136 48.2304 144.205 48.3763 144.319 48.483C144.434 48.5896 144.583 48.6483 144.736 48.6461C144.889 48.6439 145.036 48.5809 145.147 48.4709C145.259 48.361 145.323 48.2131 145.339 48.0597C145.339 48.0597 145.339 48.0597 145.339 48.0597C145.356 47.888 145.373 47.7181 145.389 47.5471C145.624 45.1308 145.791 42.7191 145.934 40.3362C145.934 40.334 145.934 40.3319 145.934 40.3297C145.975 39.7052 145.931 38.9936 146.009 38.527C146.014 38.4876 146.031 38.4497 146.003 38.513C146.002 38.5152 146.001 38.5175 146 38.5198C145.983 38.544 145.985 38.5728 145.863 38.7029C145.797 38.7616 145.676 38.8911 145.379 38.946C145.071 39.0014 144.785 38.8538 144.692 38.775C144.492 38.6055 144.511 38.5731 144.491 38.5525C144.481 38.5355 144.486 38.5444 144.496 38.5649Z" fill="#0588D5"/>
<path d="M149.461 39.8233C149.704 39.8233 149.937 39.7268 150.109 39.555C150.28 39.3832 150.377 39.1502 150.377 38.9073C150.377 38.6643 150.28 38.4314 150.109 38.2596C149.937 38.0878 149.704 37.9913 149.461 37.9913C149.457 37.9904 149.207 37.987 149 38.0989C148.794 38.2065 148.7 38.3294 148.643 38.4043C148.534 38.559 148.514 38.6306 148.485 38.6973C148.437 38.824 148.417 38.9041 148.396 38.9853C148.395 38.9877 148.394 38.9901 148.394 38.9926C148.38 39.047 148.369 39.0994 148.359 39.1506C148.198 40.0842 148.314 40.8869 148.232 41.7226C148.232 41.7241 148.232 41.7255 148.232 41.7269C148.033 43.9661 147.874 46.1928 147.707 48.4228C147.695 48.5921 147.682 48.7616 147.669 48.9312C147.655 49.1228 147.718 49.3123 147.843 49.4578C147.969 49.6034 148.147 49.6931 148.339 49.7073C148.53 49.7215 148.72 49.659 148.865 49.5335C149.011 49.4081 149.101 49.2299 149.115 49.0382C149.115 49.0382 149.115 49.0382 149.115 49.0382C149.127 48.8687 149.14 48.6992 149.152 48.5299C149.319 46.3023 149.478 44.0704 149.675 41.8587C149.675 41.8572 149.675 41.8558 149.676 41.8544C149.753 41.0516 149.999 40.2115 150.148 39.5303C150.156 39.4973 150.164 39.4662 150.171 39.4377C150.171 39.4364 150.172 39.4351 150.172 39.4339C150.182 39.3932 150.195 39.3529 150.192 39.3627C150.186 39.3716 150.191 39.385 150.119 39.489C150.08 39.5389 150.008 39.6383 149.831 39.7317C149.651 39.8288 149.434 39.8238 149.461 39.8233Z" fill="#0588D5"/>
<path d="M143.986 45.3638C144.079 45.6414 144.278 45.871 144.539 46.0018C144.801 46.1327 145.104 46.1543 145.382 46.0617C145.66 45.9692 145.889 45.7702 146.02 45.5084C146.151 45.2466 146.172 44.9436 146.08 44.6659C146.08 44.6659 146.08 44.6659 146.08 44.6659C146.16 44.8738 146.136 45.2068 146.041 45.3897C145.955 45.5716 145.867 45.6484 145.821 45.6912C145.721 45.7749 145.705 45.7706 145.704 45.7738C146.154 45.6023 147.352 45.4832 148.266 45.43L148.232 45.4315C148.244 45.4312 148.257 45.4308 148.269 45.4305C148.87 45.4116 149.493 44.751 150.152 44.806C150.158 44.8064 150.164 44.8069 150.17 44.8075C150.569 44.8455 150.968 44.8849 151.367 44.9247C151.482 44.9361 151.596 44.9476 151.711 44.9591C151.818 44.9697 151.924 44.9376 152.007 44.8697C152.09 44.8018 152.143 44.7037 152.154 44.597C152.164 44.4903 152.132 44.3837 152.064 44.3008C151.996 44.2178 151.898 44.1652 151.791 44.1545C151.791 44.1545 151.791 44.1545 151.791 44.1545C151.677 44.143 151.562 44.1316 151.447 44.1201C151.048 44.0802 150.647 44.0407 150.247 44.0025C150.241 44.002 150.235 44.0013 150.229 44.0007C149.593 43.9219 148.91 43.2022 148.209 43.2243C148.194 43.2247 148.18 43.2251 148.166 43.2255L148.132 43.227C147.058 43.327 146.21 43.2644 144.773 43.7727C144.665 43.8254 144.548 43.8765 144.361 44.036C144.274 44.115 144.143 44.2385 144.034 44.4713C143.915 44.7075 143.887 45.1002 143.986 45.3638Z" fill="#0588D5"/>
<path d="M55.5389 53.1166C55.6629 53.3644 55.8802 53.5529 56.1431 53.6406C56.406 53.7282 56.693 53.7078 56.9408 53.5839C57.1887 53.46 57.3772 53.2427 57.4648 52.9798C57.5525 52.7168 57.5321 52.4299 57.4082 52.182C57.4082 52.182 57.4082 52.182 57.4082 52.182C57.39 52.1068 57.1087 51.6987 56.886 51.5855C56.6634 51.4462 56.5086 51.4035 56.3743 51.3638C56.3735 51.3635 56.3727 51.3633 56.372 51.3631C55.8393 51.2186 55.2604 51.2366 54.7136 51.4712C54.5514 51.5412 54.3973 51.6293 54.2569 51.73C54.2544 51.7318 54.2519 51.7336 54.2494 51.7354C53.4192 52.4093 53.0861 53.0855 52.902 54.0532C52.9018 54.0548 52.9016 54.0563 52.9014 54.0579C52.7429 54.7765 53.1493 56.0524 54.1888 56.3782C54.1902 56.3787 54.1916 56.3792 54.193 56.3797C55.2197 56.6847 56.0749 56.4653 56.8184 55.7248C56.8192 55.7238 56.8201 55.7229 56.8209 55.722C57.5442 54.8518 57.5136 54.0191 57.4705 53.3159C57.4705 53.3156 57.4705 53.3153 57.4704 53.315C57.4438 53.064 57.4042 52.7958 57.266 52.4569C57.1454 52.1455 56.7864 51.5897 56.1459 51.4304C56.1453 51.4302 56.1446 51.43 56.144 51.4298C55.4418 51.2795 55.0553 51.4948 54.7311 51.6529C54.4116 51.8289 54.1664 52.0383 53.9523 52.2671C53.9519 52.2675 53.9514 52.268 53.951 52.2684C53.3751 52.9108 53.0739 53.6066 52.9158 54.4096C52.9153 54.4123 52.9148 54.4151 52.9143 54.4178C52.8536 54.7696 52.8229 55.1522 52.9172 55.5998C53.0016 56.0358 53.3048 56.595 53.8019 56.891C53.806 56.8935 53.8101 56.8961 53.8142 56.8986C54.9218 57.4484 55.6082 57.2552 56.4373 57.003C56.4402 57.002 56.443 57.0009 56.4458 56.9998C57.1173 56.7801 57.7598 56.0898 57.9918 55.5487C57.9934 55.5453 57.9951 55.542 57.9967 55.5387C58.253 55.0636 58.4594 54.2062 58.208 53.4975C58.2061 53.4914 58.2042 53.4854 58.2022 53.4794C57.8942 52.6866 57.5501 52.1985 56.6902 51.7167C56.6822 51.7129 56.6741 51.7091 56.666 51.7054C56.3141 51.5309 55.7664 51.4632 55.3258 51.6266C54.8834 51.7823 54.5992 52.0585 54.3998 52.3103C54.3937 52.318 54.3878 52.3258 54.3818 52.3335C53.9104 52.9848 53.7898 53.6044 53.7677 54.2622C53.7676 54.2719 53.7675 54.2815 53.7674 54.2912C53.7703 54.9218 53.9077 55.5706 54.3646 56.1763C54.3731 56.1872 54.3816 56.1981 54.3903 56.209C54.5752 56.4364 54.7996 56.6579 55.1444 56.8281C55.473 56.9969 56.0338 57.0943 56.53 56.8597C56.553 56.8492 56.5759 56.8381 56.5984 56.8265C57.666 56.127 57.6476 55.3669 57.6457 54.6808C57.6446 54.6671 57.6433 54.6535 57.6417 54.6398C57.5935 54.2464 57.3577 53.9263 57.0522 53.6589C56.7519 53.4115 56.3211 53.0926 55.7298 53.1335C55.722 53.1341 55.7142 53.1348 55.7064 53.1356C55.2838 53.1973 55.0986 53.3809 54.9223 53.5195C54.4621 53.9315 54.1798 54.3399 53.87 54.7339C53.7749 54.8574 53.7328 55.0137 53.753 55.1683C53.7731 55.3229 53.8539 55.4632 53.9775 55.5583C54.1011 55.6533 54.2574 55.6954 54.412 55.6753C54.5666 55.6551 54.7068 55.5743 54.8019 55.4507C54.8019 55.4507 54.8019 55.4507 54.8019 55.4507C55.1014 55.0634 55.4041 54.6602 55.6881 54.4117C55.779 54.3253 55.8943 54.2865 55.8269 54.3052C55.8257 54.3053 55.8245 54.3054 55.8232 54.3055C55.7126 54.3059 55.6632 54.3746 55.5871 54.5155C55.5127 54.6482 55.4099 54.7816 55.4062 54.847C55.4061 54.8495 55.4062 54.8521 55.4063 54.8545C55.4119 54.9169 55.405 54.9803 55.3998 55.0088C55.4052 55.0397 55.3633 55.0113 55.5761 54.8866C55.5843 54.8825 55.5928 54.8785 55.6014 54.8748C55.7948 54.7858 55.9939 54.8467 56.0232 54.8773C56.065 54.91 56.0313 54.9092 56.0054 54.8811C56.0039 54.8796 56.0025 54.8781 56.001 54.8765C55.9144 54.7892 55.817 54.5426 55.8221 54.3009C55.8221 54.297 55.8221 54.2932 55.8222 54.2893C55.8192 54.0283 55.9402 53.7069 56.0291 53.6186C56.0301 53.6175 56.0311 53.6164 56.032 53.6154C56.0637 53.5781 56.0756 53.603 55.9887 53.6416C55.9025 53.6841 55.7514 53.6632 55.733 53.6528C55.7325 53.6527 55.7321 53.6526 55.7317 53.6526C55.7538 53.6525 56.0456 54.0285 56.0702 54.1736C56.0706 54.1746 56.0709 54.1757 56.0712 54.1767C56.0969 54.2833 56.1281 54.3233 56.0132 54.6062C56.0124 54.608 56.0117 54.6097 56.0109 54.6115C55.8757 54.8974 55.8582 54.9267 55.6692 55.0216C55.6683 55.022 55.6675 55.0224 55.6666 55.0227C55.5367 55.078 55.3376 55.1203 55.1707 55.1263C55.0064 55.1394 54.8497 55.0864 54.8989 55.1076C54.8992 55.1078 54.8995 55.108 54.8999 55.1082C54.9484 55.1354 54.967 55.2118 54.9433 55.1439C54.9251 55.0844 54.9189 54.9393 54.9484 54.7819C54.9486 54.7806 54.9488 54.7794 54.949 54.7781C55.0144 54.4021 55.2544 53.9713 55.4965 53.7325C55.4967 53.7324 55.4968 53.7322 55.497 53.732C55.5836 53.6445 55.6801 53.5741 55.7456 53.5422C55.8024 53.4989 55.8609 53.5611 55.5893 53.5176C55.5891 53.5175 55.5888 53.5174 55.5886 53.5174C55.4762 53.4921 55.352 53.4091 55.3004 53.3511C55.2451 53.292 55.2375 53.2674 55.2367 53.2745C55.2393 53.2895 55.2628 53.4007 55.2736 53.5272C55.2736 53.5274 55.2736 53.5275 55.2737 53.5276C55.3242 53.9077 55.2112 54.2837 55.1963 54.2687C55.1963 54.2687 55.1963 54.2688 55.1963 54.2688C55.2118 54.3142 54.8712 54.4268 54.8743 54.408C54.8744 54.4081 54.8744 54.4081 54.8744 54.4081C54.8811 54.4116 54.9295 54.4653 54.9228 54.4763C54.92 54.4881 54.8953 54.4323 54.91 54.3324C54.9101 54.332 54.9102 54.3316 54.9102 54.3312C54.935 54.0438 55.2609 53.5153 55.446 53.4105C55.4464 53.4103 55.4468 53.41 55.4472 53.4098C55.4713 53.3939 55.4936 53.3832 55.5165 53.3751C55.5846 53.349 55.707 53.3472 55.8151 53.3774C55.8153 53.3774 55.8154 53.3775 55.8155 53.3775C55.8384 53.3819 55.8387 53.3934 55.754 53.3422C55.6716 53.3144 55.4894 53.0442 55.5389 53.1166Z" fill="#0588D5"/>
<path d="M57.722 42.5718C57.722 42.2812 57.6065 42.0025 57.401 41.7971C57.1956 41.5916 56.9169 41.4761 56.6263 41.4761C56.3357 41.4761 56.057 41.5916 55.8515 41.7971C55.646 42.0025 55.5306 42.2812 55.5306 42.5718C55.5374 42.5107 55.5097 42.4661 55.6022 42.1917C55.6383 42.0993 55.6974 41.978 55.8146 41.8492C55.9157 41.7271 56.1747 41.5543 56.4025 41.517C56.8364 41.4443 57.0371 41.5861 57.1066 41.6114C57.4109 41.7916 57.3479 41.7917 57.3872 41.8181C57.4196 41.8532 57.4107 41.8449 57.4068 41.8395C57.3945 41.8242 57.3699 41.7927 57.3457 41.7617C57.2959 41.6978 57.241 41.6286 57.1857 41.5612C57.0744 41.4254 56.9581 41.2923 56.8398 41.1644C56.8144 41.1369 56.7902 41.1111 56.7645 41.0839C56.7239 41.0411 56.6815 41.0013 56.6379 40.9645C56.0091 40.4854 55.5344 40.5352 55.172 40.5236C54.8014 40.5354 54.4887 40.5938 54.1719 40.7151C54.1411 40.7272 54.1106 40.74 54.0806 40.7534C52.4579 41.6119 52.2631 42.9462 51.9423 43.8936C51.934 43.9229 51.9263 43.9523 51.9192 43.9818C51.6104 46.0648 52.734 47.0141 53.3873 47.9577C53.3999 47.9733 53.4126 47.9889 53.4254 48.0042C54.0351 48.6991 54.6859 49.1883 55.7131 49.402C55.7299 49.4048 55.7466 49.4075 55.7634 49.41C57.6144 49.5887 58.4712 48.2993 59.0311 47.6667L59.239 47.2905C59.2454 47.2721 59.2516 47.2536 59.2578 47.2351C59.7265 45.6311 59.3214 44.3476 58.9602 43.1326L58.9545 43.1082C58.9529 43.1037 58.9513 43.0992 58.9498 43.0947C58.8713 42.8707 58.768 42.6524 58.6535 42.4413C58.4958 42.1497 58.317 41.8739 58.1594 41.6027C58.0871 41.4788 57.955 41.3808 57.8083 41.325C57.6607 41.2695 57.5106 41.2607 57.3749 41.3059C57.2392 41.3511 57.1244 41.4482 57.0396 41.5812C56.9558 41.7138 56.9089 41.8715 56.9254 42.0141C56.9254 42.0141 56.9254 42.0141 56.9254 42.0141C56.9626 42.3262 56.977 42.6344 56.9935 42.9326C57.0057 43.149 57.0197 43.3612 57.0492 43.5697C57.0498 43.5739 57.0504 43.5781 57.051 43.5822L57.0453 43.5578C57.168 44.6289 57.0873 45.7746 56.8639 46.4431C56.8615 46.4505 56.859 46.4577 56.8566 46.4648L57.0645 46.0886C56.8101 46.4089 56.581 46.6711 56.3896 46.824C56.1868 46.9823 56.1329 46.9788 56.1014 46.9842C56.1003 46.9842 56.0992 46.9842 56.0981 46.9841C55.8959 46.9733 55.4289 46.7542 55.2338 46.5011C55.2293 46.4956 55.2248 46.4902 55.2204 46.4847C54.5753 45.7343 54.1059 44.7264 54.2365 44.553C54.2374 44.5498 54.2383 44.5467 54.2393 44.5436C54.4528 43.7032 54.892 42.9639 55.0642 42.9537C55.0676 42.9522 55.0708 42.9507 55.0741 42.949C55.1786 42.9018 55.3095 42.8409 55.3913 42.8076C55.4737 42.7567 55.4948 42.826 55.2258 42.6404C55.2082 42.6255 55.1905 42.6089 55.1734 42.5909C55.1932 42.6118 55.2117 42.6315 55.2311 42.6525C55.3214 42.7501 55.4078 42.8491 55.4913 42.9509C55.5332 43.002 55.5736 43.0529 55.6189 43.1109C55.6422 43.1406 55.6644 43.1695 55.7003 43.2143C55.7204 43.2387 55.7363 43.2606 55.7948 43.3237C55.8469 43.3633 55.7979 43.3785 56.1189 43.5677C56.1918 43.5948 56.3985 43.7388 56.8366 43.665C57.0667 43.6274 57.3281 43.453 57.4305 43.3294C57.5492 43.1989 57.6096 43.0755 57.6467 42.9804C57.7423 42.6977 57.715 42.6436 57.722 42.5718Z" fill="#0588D5"/>
<path d="M62.486 41.2599C62.624 41.0017 62.6537 40.6992 62.5687 40.419C62.4837 40.1388 62.2909 39.9039 62.0326 39.7659C61.7744 39.6279 61.4719 39.5981 61.1917 39.6831C60.9115 39.7681 60.6766 39.961 60.5386 40.2192C60.5386 40.2192 60.5386 40.2192 60.5386 40.2192C60.4215 40.4419 60.3494 40.6184 60.2758 40.8001C59.5865 42.6957 59.061 44.5167 59.2681 46.7567L59.3315 47.2367L59.7277 47.5152C59.7293 47.5163 59.7308 47.5174 59.7324 47.5184C60.9372 48.2075 61.6425 48.2383 62.3938 48.3847C62.3951 48.3849 62.3965 48.3851 62.3979 48.3853C62.832 48.4462 63.4545 48.4444 64.0366 48.2128C64.2354 48.1343 64.4222 48.0333 64.6001 47.9136C64.7139 47.8308 64.8223 47.7398 64.8999 47.6306C64.9775 47.5212 65.0179 47.4012 65.0111 47.2803C65.0043 47.1593 64.9509 47.0446 64.8616 46.9445C64.7722 46.8447 64.6543 46.7664 64.532 46.6967C64.532 46.6967 64.532 46.6967 64.532 46.6967C64.3643 46.5964 64.2076 46.5051 64.0616 46.4217C63.6505 46.1858 63.2949 45.9963 62.7488 45.9179C62.7472 45.9177 62.7456 45.9175 62.744 45.9172C62.3452 45.8616 61.9865 45.8539 61.6583 45.8274C61.3458 45.8113 61 45.7254 60.9972 45.7086C60.9973 45.7087 60.9973 45.7087 60.9974 45.7087L61.457 46.4673C61.2964 45.0224 61.7408 43.1622 62.3259 41.62C62.3803 41.4832 62.4451 41.3359 62.486 41.2599Z" fill="#0588D5"/>
<path d="M66.649 41.3138C66.8013 41.0853 66.8566 40.8057 66.8028 40.5365C66.7489 40.2673 66.5903 40.0305 66.3619 39.8783C66.1335 39.726 65.8539 39.6707 65.5847 39.7245C65.3155 39.7784 65.0787 39.9369 64.9264 40.1654C64.9264 40.1654 64.9264 40.1654 64.9264 40.1654C64.8501 40.2762 64.7099 40.5015 64.6296 40.7089C64.5755 40.843 64.5362 40.9717 64.5056 41.0925C64.5055 41.0928 64.5054 41.0931 64.5053 41.0934C64.3136 42.0088 64.242 42.5955 64.1741 43.3094C64.1741 43.3096 64.174 43.3098 64.174 43.31C64.0433 44.9937 64.1211 46.6799 64.3864 48.3846C64.4079 48.523 64.4308 48.6616 64.4548 48.8C64.4723 48.8994 64.5135 48.9965 64.5836 49.0711C64.6536 49.1458 64.7456 49.1918 64.8434 49.1993C64.9412 49.2068 65.0391 49.1754 65.1197 49.1123C65.2004 49.0492 65.2559 48.9595 65.2883 48.8641C65.2883 48.8641 65.2883 48.8641 65.2883 48.8641C65.3333 48.7307 65.3769 48.597 65.4192 48.4632C65.9404 46.8166 66.2566 45.1506 66.3859 43.4838C66.386 43.4837 66.386 43.4835 66.386 43.4833C66.4414 42.8264 66.4156 42.0316 66.5125 41.6009C66.5125 41.6008 66.5125 41.6006 66.5126 41.6005C66.525 41.5514 66.5377 41.5126 66.5492 41.4845C66.5694 41.4378 66.5724 41.4285 66.649 41.3138Z" fill="#0588D5"/>
<path d="M63.1997 41.6518C63.3201 41.8928 63.5314 42.076 63.7869 42.1612C64.0424 42.2463 64.3214 42.2265 64.5623 42.1061C64.8032 41.9856 64.9864 41.7744 65.0716 41.5189C65.1568 41.2633 65.137 40.9844 65.0165 40.7435C65.0165 40.7435 65.0165 40.7435 65.0165 40.7435C65.1278 40.9563 65.1124 41.2042 65.0814 41.3073C65.0503 41.4212 65.0221 41.4569 65.0107 41.4768C64.968 41.5274 65.0891 41.395 65.2083 41.3127C65.3328 41.2202 65.482 41.124 65.6387 41.0308L65.5181 41.0921C65.5211 41.0908 65.524 41.0896 65.5269 41.0883C66.3672 40.7322 67.2106 40.2884 68.1238 40.0477C68.1271 40.0472 68.1281 40.0469 68.1291 40.0467C68.447 39.9667 68.756 39.8222 69.0647 39.687C69.1577 39.6462 69.2507 39.6063 69.3441 39.5693C69.4149 39.5409 69.4783 39.4778 69.5218 39.4047C69.5651 39.3311 69.585 39.2536 69.5756 39.1782C69.5661 39.1028 69.5278 39.0326 69.4677 38.9719C69.4076 38.9118 69.3306 38.8662 69.2549 38.8561C69.2549 38.8561 69.2549 38.8561 69.2549 38.8561C69.1553 38.8432 69.0554 38.8274 68.9555 38.8107C68.6238 38.7553 68.2921 38.6896 67.969 38.6849C67.968 38.6849 67.9669 38.6849 67.9659 38.6849C66.8737 38.6786 65.7515 38.7875 64.7317 39.2192C64.7282 39.2207 64.7247 39.2222 64.7212 39.2237L64.6007 39.2849C64.1949 39.5549 63.838 39.6741 63.3068 40.3711C63.2428 40.4726 63.1692 40.5949 63.1135 40.8037C63.058 40.9997 63.0438 41.3518 63.1997 41.6518Z" fill="#0588D5"/>
<path d="M69.1528 40.4312C69.2735 40.6726 69.4851 40.8561 69.7412 40.9415C69.9972 41.0268 70.2766 41.0069 70.518 40.8862C70.7594 40.7655 70.9429 40.5539 71.0283 40.2979C71.1136 40.0418 71.0938 39.7624 70.9731 39.521C70.9731 39.521 70.9731 39.521 70.9731 39.521C70.9664 39.5084 70.955 39.4822 70.9185 39.4202C70.8988 39.3878 70.8743 39.3462 70.8187 39.278C70.756 39.2129 70.6861 39.0911 70.381 38.962C70.2236 38.8993 69.9978 38.8713 69.797 38.9165C69.61 38.9552 69.4615 39.0465 69.3866 39.104C69.2124 39.2424 69.1749 39.3194 69.1336 39.3766C69.0604 39.4931 69.0439 39.5437 69.0236 39.5916C68.9603 39.7605 68.9531 39.8183 68.934 39.8959C68.8821 40.136 68.8569 40.316 68.8282 40.5098C68.8259 40.5257 68.8236 40.542 68.8213 40.5585C68.5842 42.3093 68.6645 44.0379 68.9701 45.7556C68.9892 45.8632 69.0094 45.9673 69.0304 46.075C69.0507 46.1756 69.0968 46.2727 69.1721 46.3451C69.2472 46.4176 69.3439 46.4594 69.4444 46.4614C69.5449 46.4635 69.6432 46.4257 69.7213 46.3564C69.7994 46.2871 69.8495 46.192 69.8739 46.0923C69.8739 46.0923 69.8739 46.0923 69.8739 46.0923C69.8993 45.9869 69.9241 45.8852 69.9486 45.7804C70.3455 44.1118 70.6181 42.4511 70.8364 40.8434C70.8385 40.8286 70.8405 40.814 70.8426 40.7998C70.8668 40.6319 70.8946 40.4552 70.9202 40.3397C70.9246 40.3142 70.9411 40.2709 70.9159 40.3407C70.9054 40.3639 70.8995 40.3908 70.8405 40.485C70.8061 40.5317 70.7764 40.598 70.6131 40.7281C70.5429 40.7821 70.401 40.8697 70.22 40.9072C70.0259 40.951 69.8065 40.9237 69.6554 40.8634C69.3625 40.739 69.3024 40.627 69.248 40.572C69.2007 40.5138 69.1834 40.4832 69.1704 40.4623C69.1474 40.4228 69.1476 40.4203 69.1528 40.4312Z" fill="#0588D5"/>
<path d="M69.4322 40.4741C69.1999 40.6009 69.0274 40.8147 68.9527 41.0687C68.878 41.3226 68.9072 41.5958 69.034 41.8282C69.1607 42.0606 69.3746 42.2331 69.6285 42.3078C69.8825 42.3825 70.1557 42.3532 70.3881 42.2265C70.3881 42.2265 70.3881 42.2265 70.3881 42.2265C70.4766 42.1782 70.565 42.13 70.6533 42.0818C71.5942 41.5701 72.5328 41.056 73.4626 40.6009C73.4626 40.6009 73.4626 40.6009 73.4627 40.6009C74.1088 40.2864 74.6682 40.003 75.2643 39.8165C75.3464 39.7904 75.4298 39.7657 75.5148 39.7422C75.7195 39.6893 75.9073 39.5719 76.0346 39.3989C76.1619 39.2261 76.2186 39.0142 76.1917 38.8059C76.1648 38.5977 76.0561 38.4071 75.8891 38.2723C75.7221 38.1374 75.5106 38.0715 75.2991 38.0724C75.2991 38.0724 75.2991 38.0724 75.2991 38.0724C75.1842 38.0747 75.0682 38.0806 74.9519 38.0905C74.085 38.1597 73.2714 38.473 72.5889 38.8062C72.5889 38.8062 72.5889 38.8062 72.5889 38.8062C71.5895 39.2957 70.6441 39.8149 69.6979 40.3292C69.6093 40.3776 69.5207 40.4258 69.4322 40.4741Z" fill="#0588D5"/>
<path d="M68.9724 45.0366C69.1401 45.2044 69.3677 45.2986 69.6049 45.2986C69.8422 45.2986 70.0697 45.2043 70.2374 45.0366C70.4052 44.8688 70.4994 44.6413 70.4994 44.404C70.4994 44.1668 70.4051 43.9393 70.2374 43.7715C70.2374 43.7715 70.2374 43.7715 70.2374 43.7715C70.2311 43.7666 70.2495 43.7784 70.3052 43.8514C70.3523 43.9164 70.4879 44.1112 70.4695 44.418C70.4443 44.7195 70.3058 44.8727 70.2456 44.9415C70.1755 45.0152 70.1399 45.037 70.1106 45.0579C70.0119 45.1197 70.0268 45.1027 70.0305 45.1037C70.075 45.0861 70.209 45.048 70.3262 45.0189C70.3328 45.0172 70.3394 45.0156 70.3461 45.0139C71.3876 44.7581 72.4976 44.5447 73.6516 44.3048C73.7246 44.2899 73.7953 44.275 73.869 44.26C73.9801 44.2373 74.0874 44.1865 74.1676 44.1036C74.2478 44.0208 74.2943 43.9142 74.2969 43.8033C74.2996 43.6924 74.2583 43.5838 74.1821 43.4972C74.106 43.4106 74.0013 43.3546 73.8913 43.3267C73.8149 43.3081 73.741 43.2905 73.6644 43.2738C72.4505 43.0086 71.1768 42.9688 69.9139 43.2778C69.9057 43.2799 69.8977 43.2819 69.8897 43.2839C69.7388 43.3232 69.604 43.3542 69.3901 43.4332C69.3245 43.4611 69.271 43.472 69.1105 43.5745C69.0652 43.6062 69.0158 43.6385 68.9327 43.7262C68.86 43.8085 68.7109 43.9781 68.6844 44.2982C68.6647 44.6237 68.8091 44.8361 68.8672 44.9158C68.934 45.0036 68.9656 45.0285 68.9724 45.0366Z" fill="#0588D5"/>
<path d="M68.5238 47.3876C68.6267 47.5933 68.807 47.7498 69.0252 47.8225C69.2434 47.8952 69.4816 47.8783 69.6873 47.7754C69.893 47.6726 70.0494 47.4922 70.1221 47.274C70.1949 47.0558 70.1779 46.8177 70.0751 46.612C70.0751 46.612 70.0751 46.612 70.0751 46.612C70.0403 46.566 70.1903 46.732 70.1176 47.0938C70.0208 47.4241 69.8842 47.4733 69.8547 47.5069C69.7336 47.5768 69.9316 47.479 70.0476 47.4522C70.0518 47.451 70.056 47.4497 70.0603 47.4485C71.1115 47.173 72.3222 46.8077 73.3987 46.2985C73.4692 46.266 73.5368 46.2337 73.6069 46.2001C73.7424 46.1342 73.8581 46.0269 73.9246 45.889C73.991 45.7511 74.0032 45.5955 73.9575 45.4533C73.9117 45.3112 73.8111 45.1919 73.6767 45.1186C73.5423 45.0453 73.3857 45.0256 73.2372 45.0511C73.2372 45.0511 73.2372 45.0511 73.2372 45.0511C73.1632 45.0639 73.0918 45.0758 73.018 45.0887C71.863 45.2952 70.7901 45.4641 69.5752 45.7834C69.5693 45.7851 69.5634 45.7868 69.5575 45.7885C69.3557 45.86 69.2279 45.8527 68.8292 46.1082C68.7408 46.1855 68.545 46.2891 68.4302 46.6929C68.3392 47.1295 68.5258 47.3681 68.5238 47.3876Z" fill="#0588D5"/>
<path d="M78.2036 38.4144C78.2753 38.1991 78.2587 37.9642 78.1572 37.7613C78.0557 37.5584 77.8778 37.404 77.6626 37.3323C77.4473 37.2605 77.2124 37.2772 77.0095 37.3787C76.8065 37.4802 76.6522 37.6581 76.5805 37.8733C76.5805 37.8733 76.5805 37.8733 76.5805 37.8733C76.5427 37.9865 76.5031 38.1057 76.4647 38.2277C76.2701 38.8448 76.1395 39.4547 76.0212 40.0517C76.0212 40.0518 76.0212 40.0518 76.0212 40.0519C75.722 41.609 75.4823 43.1398 75.2307 44.6769C75.2116 44.7947 75.1925 44.9126 75.1734 45.0306C75.1371 45.2545 75.1912 45.4838 75.3239 45.6678C75.4566 45.8518 75.6569 45.9756 75.8809 46.012C76.1048 46.0483 76.3341 45.9941 76.5181 45.8615C76.7021 45.7288 76.8259 45.5284 76.8623 45.3045C76.8623 45.3045 76.8623 45.3045 76.8623 45.3045C76.8814 45.1865 76.9005 45.0686 76.9196 44.9509C77.1702 43.4191 77.4123 41.8779 77.7001 40.3817C77.7001 40.3817 77.7001 40.3816 77.7001 40.3815C77.813 39.8104 77.933 39.259 78.0969 38.7408C78.1301 38.6352 78.1658 38.5277 78.2036 38.4144Z" fill="#0588D5"/>
<path d="M78.3865 38.5569C78.3341 38.2931 78.179 38.061 77.9554 37.9115C77.7318 37.762 77.458 37.7075 77.1941 37.76C76.9303 37.8124 76.6982 37.9675 76.5487 38.1911C76.3992 38.4147 76.3447 38.6885 76.3971 38.9524C76.3971 38.9524 76.3971 38.9524 76.3971 38.9524C76.4573 39.234 76.511 39.4133 76.5702 39.6268C76.9402 40.8792 77.2854 42.044 77.8749 43.3374C77.8753 43.3381 77.8756 43.3387 77.8759 43.3394C78.018 43.6172 78.138 43.9458 78.5016 44.3092C78.8351 44.6937 79.6941 44.9174 80.1953 44.7208L80.5339 44.5559C80.5344 44.5556 80.5349 44.5552 80.5354 44.5549C82.1696 43.3364 82.8591 41.6476 83.2851 39.9816L83.2706 40.0292C83.2707 40.0287 83.2708 40.0283 83.271 40.0279C83.3722 39.6661 83.467 39.3074 83.5915 38.9326C83.6524 38.7485 83.7201 38.5603 83.7942 38.3677C83.8671 38.1775 83.8592 37.9561 83.7824 37.7575C83.705 37.5585 83.5651 37.3985 83.3832 37.3075C83.2012 37.2166 82.9893 37.2006 82.7837 37.2581C82.5786 37.3159 82.3968 37.4423 82.2884 37.6147C82.2884 37.6147 82.2884 37.6147 82.2884 37.6147C82.1788 37.7895 82.0629 37.9686 81.9484 38.1558C81.7145 38.5361 81.491 38.9517 81.33 39.3841C81.3298 39.3846 81.3296 39.3852 81.3294 39.3857L81.3149 39.4332C80.8847 40.7336 80.0743 41.9852 79.1748 42.6225C79.1745 42.6227 79.1743 42.6229 79.174 42.6231L79.5126 42.4583C79.5675 42.4107 79.9121 42.5312 79.8901 42.608C79.8916 42.6716 79.7628 42.5903 79.6989 42.4502C79.6987 42.4497 79.6985 42.4493 79.6983 42.4488C79.2458 41.465 78.8561 40.2221 78.5218 39.0744C78.4701 38.8918 78.4103 38.6713 78.3865 38.5569Z" fill="#0588D5"/>
</svg>
