<svg width="607" height="369" viewBox="0 0 607 369" fill="none" xmlns="http://www.w3.org/2000/svg">
<path d="M150.823 153.177C151.332 153.686 152.022 153.972 152.742 153.972C153.462 153.972 154.152 153.686 154.661 153.177C155.17 152.668 155.456 151.978 155.456 151.258C155.456 150.538 155.17 149.848 154.661 149.339C153.898 148.568 153.06 147.695 152.233 146.865C150.954 145.582 149.656 144.311 148.22 143.064C148.155 143.008 148.09 142.953 148.025 142.897C147.233 142.058 145.087 141.582 143.92 142.157C142.743 142.628 142.18 143.241 141.685 143.76C140.738 144.823 140.177 145.821 139.647 146.814C138.617 148.802 137.866 150.762 137.208 152.804C137.195 152.845 137.183 152.885 137.17 152.926C135.973 157.307 135.656 161.466 138.343 166.396C138.392 166.462 138.444 166.529 138.503 166.6C138.953 167.138 139.647 167.762 140.654 168.073C141.659 168.392 142.702 168.242 143.403 167.987C144.819 167.447 145.521 166.741 146.205 166.108C146.865 165.466 147.408 164.83 147.912 164.232C148.162 163.934 148.404 163.643 148.623 163.388C148.733 163.26 148.839 163.141 148.923 163.052C149.004 162.963 149.094 162.888 149.027 162.942C149.092 162.891 149.137 162.864 149.123 162.872C149.106 162.877 149.031 162.929 148.765 162.972C148.517 163.021 147.966 162.98 147.576 162.741C147.184 162.511 147.047 162.269 146.998 162.175C146.947 162.07 146.964 162.059 146.979 162.087C147.03 162.213 147.076 162.339 147.116 162.465C148.941 167.751 147.473 172.849 143.778 177.55L144.305 177.014C144.318 177.004 144.336 176.991 144.361 176.975C144.444 176.921 144.64 176.827 144.867 176.797C145.094 176.764 145.289 176.798 145.363 176.815C145.514 176.858 145.335 176.771 145.123 176.611C145.103 176.597 145.084 176.583 145.065 176.569C144.99 176.516 144.92 176.467 144.851 176.422C144.274 176.044 143.601 175.766 142.607 175.082C142.344 174.876 142.061 174.69 141.753 174.593C141.445 174.495 141.137 174.494 140.863 174.602C140.588 174.711 140.364 174.923 140.207 175.205C140.049 175.487 139.97 175.816 139.92 176.147C139.767 177.619 140.42 179.336 141.672 180.392C141.806 180.51 141.944 180.619 142.082 180.718C142.117 180.743 142.152 180.768 142.186 180.791C142.574 181.049 143.017 181.369 143.869 181.634C144.69 181.946 146.226 181.77 146.982 181.219C147.095 181.15 147.199 181.078 147.296 181.005L147.823 180.468C151.849 175.646 154.334 167.484 151.825 160.953C151.774 160.794 151.725 160.634 151.676 160.472C151.465 159.95 151.342 159.111 149.999 158.26C149.324 157.864 148.433 157.789 147.868 157.896C147.284 157.997 146.908 158.18 146.609 158.341C146.31 158.508 146.086 158.666 145.891 158.813C145.217 159.354 145.003 159.657 144.703 159.985C144.426 160.302 144.181 160.596 143.942 160.877C143.469 161.435 143.016 161.95 142.586 162.363C142.176 162.773 141.696 163.078 141.677 163.061C141.665 163.059 141.917 162.992 142.194 163.081C142.469 163.168 142.555 163.296 142.518 163.249C142.54 163.275 142.554 163.293 142.563 163.305C141.579 161.501 141.194 157.375 142.217 154.508C142.226 154.479 142.235 154.45 142.245 154.421C142.821 152.668 143.548 150.888 144.385 149.337C144.796 148.577 145.276 147.835 145.671 147.415C145.848 147.208 146.057 147.123 145.816 147.237C145.696 147.287 145.387 147.351 145.075 147.286C144.763 147.224 144.567 147.083 144.505 147.029C144.56 147.076 144.616 147.123 144.672 147.172C145.918 148.252 147.158 149.461 148.384 150.692C149.192 151.503 149.958 152.302 150.823 153.177Z" fill="#F70A0C"/>
<path d="M164.98 136.631C164.962 136.132 164.746 135.661 164.381 135.322C164.015 134.982 163.53 134.802 163.032 134.82C162.533 134.839 162.062 135.054 161.723 135.42C161.383 135.785 161.203 136.271 161.221 136.769C161.236 137.344 161.216 138.165 161.2 138.871C160.897 149.679 160.408 160.541 160.284 171.432L160.369 172.01C160.369 172.011 160.369 172.011 160.37 172.011C160.792 173.338 161.275 174.474 161.851 175.488C161.851 175.488 161.852 175.488 161.852 175.488C162.567 176.731 163.372 177.894 164.219 178.998C164.678 179.596 165.152 180.178 165.64 180.75C165.914 181.07 166.289 181.299 166.71 181.371C167.131 181.443 167.559 181.354 167.905 181.119C168.251 180.884 168.493 180.52 168.582 180.103C168.671 179.685 168.596 179.251 168.401 178.878C168.056 178.221 167.705 177.575 167.347 176.935C166.687 175.752 166.01 174.601 165.358 173.468C165.358 173.468 165.358 173.468 165.358 173.468C164.824 172.539 164.213 171.701 163.96 170.887C163.959 170.887 163.959 170.887 163.959 170.887L164.045 171.466C164.168 160.675 164.655 149.847 164.961 138.959C164.976 138.212 165.001 137.484 164.98 136.631Z" fill="#F70A0C"/>
<path d="M153.655 142.859C153.655 143.359 153.854 143.839 154.208 144.193C154.561 144.547 155.041 144.746 155.542 144.746C156.042 144.746 156.522 144.547 156.876 144.193C157.23 143.839 157.428 143.359 157.428 142.859C157.44 143.274 157.24 143.769 157.006 144.035C156.745 144.335 156.597 144.404 156.439 144.493C156.189 144.618 156.073 144.632 155.991 144.652C155.842 144.679 155.809 144.675 155.784 144.677C155.744 144.677 155.776 144.676 155.81 144.679C155.887 144.685 156.006 144.699 156.127 144.716C157.083 144.857 158.181 145.088 159.238 145.308L159.285 145.317C159.3 145.32 159.316 145.323 159.331 145.325C162.48 145.918 165.701 146.812 168.219 148.218L168.133 148.168C168.136 148.17 168.139 148.172 168.142 148.174C168.726 148.549 169.204 148.959 169.742 149.471C169.938 149.657 170.139 149.853 170.345 150.053C170.754 150.449 171.299 150.659 171.867 150.628C172.435 150.599 172.98 150.331 173.374 149.892C173.768 149.454 173.977 148.884 173.947 148.316C173.917 147.748 173.65 147.229 173.214 146.864C172.985 146.673 172.751 146.48 172.506 146.283C171.843 145.747 171.05 145.183 170.273 144.724C170.269 144.722 170.265 144.72 170.261 144.717L170.175 144.667C166.776 142.944 163.405 142.272 160.014 141.614C159.998 141.611 159.981 141.608 159.965 141.605L160.012 141.615C158.916 141.388 157.864 141.16 156.648 140.979C156.48 140.956 156.309 140.933 156.093 140.917C155.984 140.909 155.868 140.9 155.682 140.905C155.585 140.909 155.477 140.909 155.258 140.95C155.139 140.977 154.987 141.001 154.707 141.141C154.53 141.24 154.37 141.317 154.096 141.633C153.85 141.913 153.643 142.426 153.655 142.859Z" fill="#F70A0C"/>
<path d="M178.499 149.433C178.98 149.433 179.441 149.242 179.782 148.901C180.122 148.561 180.313 148.1 180.313 147.618C180.313 147.137 180.122 146.676 179.782 146.335C179.441 145.995 178.98 145.804 178.499 145.804C177.635 145.81 177.159 146.358 177.037 146.513C176.854 146.754 176.823 146.848 176.769 146.961C176.691 147.146 176.666 147.248 176.642 147.338C176.6 147.512 176.586 147.611 176.569 147.717C176.541 147.918 176.527 148.073 176.514 148.229C176.49 148.54 176.477 148.818 176.465 149.099C176.404 150.827 176.407 152.476 176.404 154.151C176.404 154.162 176.404 154.174 176.404 154.185C176.341 160.488 176.237 168.081 175.188 172.82L175.227 172.747C175.226 172.749 175.225 172.751 175.224 172.754C174.561 173.879 173.92 175.415 173.721 176.892C173.634 177.481 173.598 178.068 173.606 178.655C173.616 178.965 173.693 179.278 173.867 179.54C174.041 179.801 174.293 179.987 174.583 180.06C174.873 180.134 175.183 180.091 175.46 179.945C175.738 179.798 175.955 179.559 176.112 179.293C176.384 178.844 176.648 178.413 176.909 177.992C177.577 176.904 178.185 176.028 178.888 174.821C178.889 174.819 178.89 174.816 178.892 174.814L178.931 174.741C180.929 166.719 179.824 160.965 180.033 154.185C180.033 154.174 180.033 154.162 180.033 154.151C180.035 152.498 180.035 150.833 180.091 149.243C180.102 148.991 180.114 148.744 180.132 148.518C180.14 148.409 180.151 148.303 180.161 148.238C180.165 148.207 180.171 148.183 180.161 148.224C180.154 148.248 180.149 148.286 180.096 148.412C180.057 148.491 180.038 148.561 179.878 148.772C179.774 148.904 179.328 149.426 178.499 149.433Z" fill="#F70A0C"/>
<path d="M179.015 137.583C179.324 137.891 179.742 138.064 180.178 138.064C180.614 138.064 181.033 137.891 181.341 137.583C181.65 137.274 181.823 136.856 181.823 136.42C181.823 135.984 181.649 135.565 181.341 135.257C181.311 135.238 181.204 135.076 180.817 134.875C180.585 134.757 180.229 134.677 179.942 134.699C179.651 134.717 179.442 134.794 179.294 134.86C179.002 134.998 178.885 135.108 178.783 135.194C178.59 135.366 178.502 135.479 178.413 135.586C178.4 135.602 178.387 135.619 178.375 135.635C178.175 135.899 178.069 136.125 177.979 136.391C177.935 136.523 177.901 136.66 177.87 136.816C177.855 136.895 177.841 136.977 177.825 137.079C177.816 137.13 177.808 137.184 177.795 137.26C177.784 137.343 177.762 137.395 177.74 137.678C177.744 137.768 177.708 137.907 177.827 138.253C177.9 138.448 178.056 138.705 178.351 138.884C178.491 138.969 178.642 139.021 178.775 139.045C178.882 139.064 178.973 139.066 179.054 139.062C179.626 138.981 179.581 138.883 179.69 138.83C179.812 138.583 179.915 138.325 179.947 138.063C179.978 137.801 179.934 137.555 179.807 137.352C179.68 137.149 179.478 137.001 179.229 136.914C178.979 136.828 178.702 136.808 178.427 136.809C178.503 136.776 178.429 136.696 178.965 136.618C179.042 136.614 179.129 136.616 179.232 136.634C179.36 136.657 179.508 136.707 179.644 136.79C179.931 136.964 180.082 137.215 180.152 137.401C180.265 137.731 180.23 137.85 180.235 137.925C180.22 138.152 180.217 138.147 180.225 138.18C180.232 138.203 180.246 138.206 180.261 138.207C180.292 138.207 180.329 138.19 180.367 138.17C180.444 138.129 180.524 138.073 180.598 138.015C180.745 137.901 180.888 137.754 180.963 137.664C180.967 137.659 180.971 137.654 180.974 137.65C180.993 137.624 181.017 137.607 180.953 137.666C180.914 137.696 180.866 137.753 180.652 137.856C180.543 137.904 180.375 137.968 180.127 137.983C179.883 138.002 179.57 137.932 179.377 137.832C179.052 137.663 178.996 137.553 179.015 137.583Z" fill="#F70A0C"/>
<path d="M196.219 136.359C196.351 135.966 196.322 135.536 196.138 135.165C195.953 134.793 195.629 134.51 195.235 134.377C194.842 134.245 194.412 134.274 194.041 134.459C193.669 134.643 193.386 134.968 193.253 135.361C193.156 135.67 193.148 135.808 193.126 135.947C193.107 136.093 193.096 136.212 193.087 136.326C193.067 136.567 193.057 136.771 193.047 136.99C193.029 137.418 193.019 137.825 193.011 138.233C192.949 143.037 192.911 147.755 192.754 152.507C192.754 152.512 192.754 152.516 192.754 152.52L192.753 152.575C193.162 161.37 191.928 170.278 197.633 179.204L197.587 179.15C197.588 179.152 197.59 179.154 197.592 179.156C198.211 179.889 198.791 180.585 199.443 181.352C199.957 181.954 200.507 182.566 201.094 183.152C201.347 183.403 201.672 183.588 202.03 183.643C202.389 183.699 202.748 183.622 203.038 183.425C203.328 183.227 203.531 182.921 203.611 182.567C203.691 182.213 203.637 181.843 203.496 181.516C203.173 180.767 202.835 180.041 202.442 179.309C201.95 178.386 201.321 177.436 200.621 176.61C200.619 176.608 200.617 176.605 200.615 176.603L200.568 176.549C196.66 170.685 196.058 160.897 195.882 152.563L195.881 152.619C195.881 152.614 195.882 152.61 195.882 152.605C196.039 147.831 196.078 143.024 196.139 138.295C196.147 137.9 196.157 137.508 196.173 137.126C196.182 136.932 196.191 136.755 196.205 136.581C196.212 136.501 196.22 136.421 196.228 136.358C196.232 136.311 196.257 136.23 196.219 136.359Z" fill="#F70A0C"/>
<path d="M187.686 145.761C188.159 145.997 188.706 146.036 189.207 145.869C189.708 145.702 190.123 145.342 190.359 144.87C190.595 144.397 190.634 143.85 190.467 143.349C190.3 142.848 189.941 142.433 189.468 142.197C189.509 142.218 189.55 142.237 189.645 142.301C189.73 142.373 189.872 142.411 190.173 142.847C190.317 143.074 190.539 143.525 190.46 144.151C190.382 144.755 190.038 145.154 189.88 145.303C189.686 145.486 189.56 145.553 189.467 145.605C189.365 145.66 189.312 145.681 189.259 145.701C188.912 145.817 188.976 145.773 188.959 145.783C188.974 145.781 189.078 145.776 189.18 145.776C189.606 145.777 190.139 145.817 190.657 145.867L190.317 145.803C190.346 145.811 190.376 145.82 190.406 145.829C193.235 146.764 196.329 148.691 199.32 150.315L199.374 150.344C199.384 150.349 199.394 150.354 199.404 150.359C200.369 150.863 201.476 151.235 202.447 151.444C202.715 151.504 202.977 151.557 203.242 151.61C203.631 151.695 204.046 151.689 204.422 151.544C204.799 151.399 205.103 151.131 205.275 150.785C205.448 150.439 205.478 150.034 205.367 149.647C205.255 149.259 205.009 148.924 204.708 148.666C204.463 148.465 204.21 148.276 203.959 148.101C203.035 147.469 202.236 147.011 201.361 146.556C201.352 146.551 201.343 146.547 201.334 146.542L201.387 146.57C198.26 144.897 195.311 143.278 191.523 142.004C191.475 141.99 191.428 141.977 191.381 141.964L191.041 141.901C190.446 141.845 189.868 141.795 189.179 141.792C188.994 141.793 188.819 141.793 188.547 141.82C188.387 141.846 188.311 141.818 187.828 141.983C187.758 142.01 187.69 142.037 187.571 142.101C187.463 142.162 187.322 142.239 187.115 142.434C186.945 142.594 186.589 143.009 186.51 143.631C186.429 144.275 186.657 144.742 186.811 144.985C186.958 145.215 187.103 145.35 187.186 145.425C187.282 145.511 187.359 145.564 187.415 145.603C187.542 145.688 187.611 145.722 187.686 145.761Z" fill="#F70A0C"/>
<path d="M214.859 153.968C215.355 154.423 216.011 154.662 216.683 154.632C217.355 154.603 217.989 154.308 218.443 153.812C218.898 153.316 219.137 152.66 219.108 151.988C219.079 151.316 218.784 150.682 218.288 150.228C217.705 149.691 217.093 149.114 216.48 148.545C215.5 147.641 214.552 146.751 213.404 145.817C213.388 145.805 213.373 145.792 213.357 145.78C212.389 144.935 210.746 144.854 209.915 145.169C209.02 145.455 208.477 145.863 207.993 146.24C207.967 146.261 207.941 146.282 207.916 146.303C205.996 147.856 204.542 149.975 203.475 151.523C203.459 151.545 203.443 151.566 203.428 151.586C201.045 155.844 202.177 158.57 202.329 161.483C202.679 164.314 203.237 167.091 203.429 169.563C203.429 169.571 203.43 169.579 203.431 169.588C203.474 170.197 203.489 171.707 204.301 172.974C204.305 172.981 204.31 172.988 204.314 172.995C205.839 175.752 209.484 178.01 212.854 177.75L213.699 177.574C213.733 177.56 213.766 177.547 213.798 177.533C215.654 176.608 216.242 175.708 217.067 174.871C217.074 174.863 217.081 174.855 217.088 174.848C217.535 174.351 217.696 173.942 217.943 173.468C218.254 172.854 218.718 172.137 219.309 171.559C219.472 171.402 219.58 171.153 219.624 170.9C219.667 170.646 219.644 170.409 219.543 170.207C219.441 170.006 219.265 169.846 219.034 169.73C218.805 169.616 218.541 169.553 218.317 169.592C217.43 169.761 216.443 169.87 215.448 170.274C214.691 170.575 213.972 171.084 213.555 171.511C213.548 171.518 213.542 171.525 213.535 171.532C213.173 171.898 212.828 172.24 212.509 172.52C212.208 172.795 211.856 173.023 211.861 173.008C211.862 173.008 211.864 173.007 211.866 173.006L212.711 172.83C210.892 172.885 209.548 172.092 208.5 170.406C208.497 170.402 208.495 170.398 208.492 170.394C208.46 170.335 208.45 170.327 208.42 170.168C208.391 170.014 208.374 169.705 208.348 169.263C208.347 169.252 208.346 169.241 208.345 169.23C208.108 166.192 207.562 163.531 207.249 160.874C206.898 158.396 206.881 155.146 207.425 154.552C207.449 154.519 207.474 154.486 207.498 154.452C208.789 152.578 209.741 151.223 211.07 150.132C211.079 150.124 211.088 150.117 211.097 150.11C211.253 149.978 211.414 149.934 211.309 149.987C211.256 150.009 211.107 150.053 210.87 150.026C210.636 150.005 210.35 149.878 210.198 149.751C210.209 149.759 210.22 149.768 210.231 149.777C211.115 150.494 212.085 151.392 213.027 152.263C213.63 152.822 214.223 153.383 214.859 153.968Z" fill="#F70A0C"/>
<path d="M231.131 132.462C230.601 132.462 230.093 132.673 229.718 133.047C229.343 133.422 229.133 133.93 229.133 134.46C229.133 134.99 229.343 135.498 229.718 135.873C230.093 136.248 230.601 136.458 231.131 136.458C231.004 136.457 230.856 136.448 230.655 136.398C230.428 136.339 230.174 136.24 229.893 136.012C229.311 135.531 229.198 134.9 229.182 134.639C229.168 134.091 229.253 134.018 229.273 133.918C229.331 133.755 229.344 133.75 229.35 133.735C229.358 133.721 229.33 133.769 229.298 133.816C229.233 133.917 229.141 134.046 229.048 134.175C228.859 134.435 228.648 134.712 228.439 134.984C228.318 135.142 228.196 135.3 228.072 135.459L228.038 135.504C228.018 135.531 227.998 135.558 227.979 135.585C223.642 145.806 224.46 154.735 223.959 164.24C223.959 164.246 223.958 164.259 223.958 164.272C223.894 167.514 223.821 170.744 223.716 173.978C223.693 174.687 223.669 175.396 223.645 176.107C223.625 176.681 223.835 177.239 224.229 177.659C224.622 178.078 225.168 178.323 225.744 178.341C226.32 178.359 226.88 178.148 227.299 177.755C227.718 177.361 227.962 176.817 227.979 176.242C227.999 175.531 228.019 174.819 228.039 174.107C228.129 170.849 228.188 167.593 228.227 164.34C228.227 164.327 228.227 164.314 228.227 164.301C228.451 155.324 228.303 144.905 231.242 137.892C231.248 137.883 231.254 137.875 231.26 137.868L231.226 137.913C231.353 137.749 231.48 137.585 231.607 137.419C231.829 137.131 232.052 136.837 232.28 136.524C232.395 136.366 232.51 136.206 232.64 136.008C232.706 135.906 232.774 135.803 232.866 135.634C232.914 135.539 232.966 135.456 233.054 135.209C233.088 135.069 233.185 134.95 233.169 134.359C233.152 134.075 233.032 133.422 232.432 132.926C232.142 132.691 231.879 132.588 231.64 132.526C231.429 132.473 231.271 132.463 231.131 132.462Z" fill="#F70A0C"/>
<path d="M225.906 152.203C225.563 152.624 225.4 153.163 225.455 153.703C225.51 154.243 225.776 154.74 226.197 155.083C226.617 155.426 227.157 155.589 227.697 155.534C228.237 155.479 228.734 155.213 229.077 154.792C229.351 154.46 229.966 153.91 230.514 153.448C231.954 152.238 233.517 151.056 235.081 149.886C235.086 149.882 235.092 149.878 235.097 149.873C235.37 149.67 235.642 149.518 235.813 149.459C235.98 149.376 236.036 149.532 235.482 149.498C235.475 149.497 235.469 149.496 235.462 149.495C235.248 149.463 235.158 149.351 235.235 149.426C235.302 149.491 235.443 149.682 235.579 149.923C235.859 150.414 236.14 151.086 236.441 151.806L236.272 150.956C236.272 150.967 236.272 150.979 236.272 150.99C236.106 160.042 235.635 170.104 233.455 178.002C233.454 178.005 233.453 178.007 233.451 178.01L233.484 177.939C233.311 178.303 233.177 178.706 233.083 179.21C232.91 180.03 232.889 181.678 233.837 182.488C233.963 182.58 234.089 182.667 234.218 182.722C234.348 182.777 234.474 182.796 234.593 182.768C234.712 182.739 234.817 182.666 234.908 182.559C234.999 182.451 235.073 182.317 235.144 182.179C235.683 181.442 236.226 181.509 236.728 180.939C237.009 180.655 237.274 180.289 237.479 179.866L237.512 179.795C237.515 179.789 237.518 179.782 237.521 179.775C240.37 169.601 240.366 160.644 240.631 151.008C240.632 150.996 240.632 150.984 240.632 150.972L240.462 150.122C240.16 149.407 239.854 148.63 239.367 147.764C238.864 146.984 238.207 145.604 236.114 145.185C236.098 145.182 236.082 145.18 236.066 145.178C234.79 145.052 234.153 145.528 233.705 145.794C233.256 146.093 232.951 146.368 232.649 146.592C232.644 146.596 232.638 146.601 232.632 146.605C231.037 147.799 229.454 148.992 227.871 150.321C227.235 150.873 226.645 151.341 225.906 152.203Z" fill="#F70A0C"/>
<path d="M250.077 149.108C250.026 148.538 249.752 148.012 249.313 147.645C248.874 147.278 248.308 147.1 247.738 147.15C247.169 147.201 246.643 147.476 246.276 147.914C245.908 148.353 245.731 148.919 245.781 149.489C245.836 150.039 245.883 150.425 245.927 150.885C246.513 157.175 246.38 163.652 246.018 170.085C246.017 170.097 246.016 170.109 246.016 170.12L246.051 169.839C245.841 171.072 247.008 172.616 245.914 173.956C245.914 173.956 245.914 173.957 245.914 173.957C245.71 174.258 245.552 174.594 245.444 174.932C245.283 175.435 245.224 175.931 245.166 176.389C245.149 176.528 245.187 176.668 245.273 176.778C245.359 176.889 245.485 176.96 245.624 176.978C245.763 176.995 245.903 176.957 246.013 176.871C246.123 176.785 246.195 176.659 246.212 176.52C246.269 176.061 246.326 175.634 246.448 175.254C246.531 174.998 246.642 174.763 246.788 174.547C246.788 174.547 246.788 174.546 246.788 174.546C247.656 173.636 249.982 172.343 250.285 170.654L250.321 170.372C250.321 170.36 250.322 170.348 250.323 170.337C250.691 163.754 250.84 157.158 250.219 150.465C250.175 150.003 250.112 149.461 250.077 149.108Z" fill="#F70A0C"/>
<path d="M248.769 137.929C249.243 137.929 249.698 137.741 250.034 137.405C250.369 137.07 250.558 136.615 250.558 136.14C250.558 135.666 250.369 135.21 250.034 134.875C249.698 134.539 249.243 134.351 248.769 134.351C248.754 134.347 248.289 134.352 247.937 134.525C247.582 134.689 247.401 134.876 247.28 135.002C247.051 135.26 246.988 135.396 246.916 135.519C246.85 135.639 246.806 135.734 246.765 135.825C246.765 135.826 246.764 135.827 246.764 135.828C245.981 137.795 246.86 139.142 247.596 140.039C247.646 140.096 247.697 140.152 247.75 140.209C247.935 140.391 248.151 140.549 248.397 140.629C248.643 140.708 248.897 140.704 249.12 140.61C249.343 140.516 249.522 140.337 249.637 140.105C249.751 139.874 249.789 139.609 249.787 139.35C249.789 139.283 249.79 139.219 249.792 139.156C249.794 138.141 249.936 137.294 250.03 137.288C250.03 137.288 250.031 137.287 250.031 137.287C250.044 137.256 250.056 137.233 250.054 137.238C250.046 137.246 250.052 137.267 249.911 137.428C249.835 137.506 249.704 137.649 249.408 137.786C249.116 137.931 248.719 137.932 248.769 137.929Z" fill="#F70A0C"/>
<path d="M259.084 141.817C258.659 141.606 258.168 141.572 257.718 141.723C257.268 141.874 256.897 142.197 256.686 142.622C256.474 143.047 256.44 143.538 256.591 143.988C256.742 144.438 257.066 144.81 257.49 145.021C257.572 145.049 258.048 145.434 258.388 145.778C259.626 147.014 260.824 148.528 261.92 150.038C261.935 150.059 261.949 150.079 261.963 150.099C264.025 154.347 260.846 162.24 260.839 169.104L260.838 169.146C260.838 169.174 260.837 169.201 260.837 169.229C260.816 170.296 260.838 171.524 260.901 172.455C260.902 172.467 260.902 172.48 260.903 172.492C260.933 173.017 260.932 173.477 260.903 174.001C260.875 174.506 260.824 175.037 260.764 175.582C260.704 176.105 260.84 176.637 261.156 177.064C261.472 177.49 261.94 177.775 262.46 177.856C262.98 177.937 263.513 177.809 263.944 177.499C264.375 177.19 264.667 176.724 264.77 176.208C264.889 175.603 264.99 174.985 265.055 174.332C265.123 173.667 265.14 172.932 265.1 172.264C265.099 172.248 265.098 172.233 265.097 172.218C265.018 171.078 264.893 170.233 264.884 169.224C264.884 169.2 264.883 169.175 264.883 169.149L264.883 169.191C264.907 165.96 265.353 162.677 265.798 159.282C266.036 155.901 267.365 152.299 264.869 148.011C264.854 147.989 264.838 147.967 264.822 147.946C263.628 146.308 262.413 144.746 260.896 143.226C260.404 142.768 260.028 142.333 259.084 141.817Z" fill="#F70A0C"/>
<path d="M261.433 148.955C261.267 149.458 261.308 150.005 261.547 150.477C261.785 150.949 262.201 151.307 262.704 151.473C263.206 151.638 263.754 151.597 264.226 151.358C264.698 151.12 265.056 150.704 265.221 150.201C265.16 150.365 265.182 150.286 265.226 150.228C265.272 150.16 265.343 150.067 265.424 149.97C265.586 149.776 265.788 149.563 266 149.359C266.579 148.803 267.28 148.252 267.87 147.924C267.871 147.924 267.871 147.924 267.871 147.923C267.684 148.038 267.341 148.093 267.155 148.057C266.962 148.027 266.907 147.982 266.905 147.986C266.91 147.99 267.068 148.131 267.199 148.304C267.2 148.305 267.202 148.307 267.203 148.308C269.449 153.309 269.117 162.006 268.815 169.044L268.82 168.981C268.819 168.996 268.817 169.01 268.816 169.024C268.592 171.473 268.194 173.801 267.231 175.564L267.188 175.649C267.185 175.654 267.182 175.659 267.18 175.665C266.743 176.571 266.476 177.585 266.426 178.633C266.387 179.429 266.472 180.245 266.688 181.043C266.745 181.233 266.822 181.42 266.943 181.571C267.065 181.722 267.22 181.824 267.395 181.86C267.569 181.895 267.753 181.862 267.923 181.77C268.094 181.679 268.238 181.537 268.365 181.385C268.862 180.802 269.311 180.253 269.712 179.71C270.238 178.994 270.68 178.288 271.047 177.523C271.05 177.519 271.052 177.514 271.054 177.51L271.011 177.594C272.476 174.839 272.713 171.976 272.951 169.382C272.952 169.367 272.953 169.352 272.955 169.336L272.959 169.273C272.978 161.546 274.356 154.518 270.374 145.82C270.368 145.812 270.362 145.804 270.356 145.797C270.023 145.388 269.655 144.983 269.028 144.587C268.71 144.394 268.308 144.192 267.745 144.106C267.19 144.013 266.461 144.132 265.947 144.43C265.946 144.431 265.945 144.431 265.945 144.431C264.858 145.047 264.047 145.716 263.234 146.486C262.94 146.77 262.651 147.069 262.362 147.414C262.071 147.797 261.784 148.038 261.433 148.955Z" fill="#F70A0C"/>
<path d="M284.658 172.309C284.227 172.74 283.985 173.325 283.985 173.935C283.985 174.544 284.227 175.129 284.658 175.56C285.089 175.991 285.674 176.233 286.283 176.233C286.893 176.233 287.478 175.991 287.909 175.56C288.908 174.635 290.239 173.425 291.376 172.316C291.469 172.227 291.563 172.135 291.655 172.045C291.686 172.015 291.717 171.985 291.748 171.955C298.241 164.099 295.421 155.356 293.061 147.816C293.06 147.813 293.058 147.81 293.057 147.807C292.253 146.132 291.224 145.689 290.426 145.216C289.6 144.783 288.823 144.504 288.093 144.252C288.068 144.244 288.044 144.236 288.02 144.228C287.419 144.026 286.708 143.825 285.794 143.84C284.884 143.841 283.842 144.22 283.178 144.7C283.106 144.75 283.037 144.8 282.969 144.852C281.149 146.215 279.824 148.14 278.979 148.786C278.947 148.811 278.917 148.832 278.892 148.849C276.182 150.774 275.874 153.652 275.743 155.739C275.66 157.933 275.935 159.95 276.296 161.925C277.031 165.846 278.245 169.624 279.404 173.188C279.406 173.195 279.408 173.201 279.41 173.207C282.038 179.144 287.842 179.454 289.489 181.432C289.382 181.311 289.289 181.166 289.226 181.024C289.039 180.588 289.096 180.338 289.102 180.263C289.116 180.181 289.115 180.21 289.088 180.263C289.037 180.377 288.907 180.593 288.751 180.805C288.432 181.241 288.004 181.709 287.545 182.156C286.621 183.051 285.561 183.885 284.472 184.61L285.693 184.206C285.696 184.206 285.697 184.205 285.696 184.205C285.529 184.304 283.978 183.239 282.967 182.056C282.783 181.856 282.598 181.649 282.412 181.436C282.392 181.414 282.373 181.392 282.353 181.369C281.554 180.423 280.517 180.109 279.199 179.557C279.04 179.463 278.882 179.375 278.723 179.324C278.563 179.273 278.412 179.265 278.274 179.312C278.136 179.359 278.021 179.457 277.925 179.595C277.83 179.732 277.759 179.899 277.69 180.07C277.207 181.93 277.923 183.547 278.752 184.514C278.773 184.539 278.795 184.563 278.817 184.588C279.023 184.824 279.237 185.063 279.459 185.302C280.888 186.645 282.025 188.486 285.532 188.932C285.652 188.936 285.776 188.935 285.9 188.93L286.585 188.894L287.121 188.526C288.454 187.607 289.675 186.58 290.817 185.4C291.389 184.803 291.937 184.18 292.465 183.418C292.727 183.034 292.989 182.62 293.231 182.063C293.406 181.505 293.921 180.787 293.333 179.179C293.218 178.925 293.059 178.675 292.868 178.459C290.579 176.221 288.673 175.803 286.958 174.786C285.263 173.895 283.871 172.794 283.632 171.867C283.632 171.866 283.631 171.864 283.63 171.862C282.444 168.218 281.362 164.693 280.737 161.123C280.068 157.773 280.151 153.339 281.469 152.72C281.579 152.647 281.685 152.572 281.784 152.497C283.837 150.771 284.576 149.454 285.796 148.599C285.81 148.589 285.822 148.581 285.832 148.573C285.948 148.509 285.844 148.558 285.888 148.55C285.929 148.548 286.158 148.582 286.453 148.694C286.474 148.701 286.495 148.709 286.516 148.716C287.131 148.94 287.689 149.183 288.118 149.434C288.33 149.557 288.505 149.684 288.595 149.768C288.69 149.848 288.666 149.887 288.578 149.697C288.578 149.698 288.579 149.699 288.579 149.7C290.781 155.861 292.47 164.59 288.535 168.666C288.505 168.695 288.476 168.724 288.446 168.752C288.358 168.839 288.267 168.927 288.178 169.013C287.03 170.131 285.992 171.064 284.658 172.309Z" fill="#F70A0C"/>
<path d="M324.115 147.26C324.095 146.656 323.835 146.085 323.393 145.673C322.951 145.261 322.364 145.041 321.76 145.062C321.156 145.082 320.585 145.342 320.173 145.784C319.761 146.226 319.541 146.813 319.562 147.417C319.579 147.916 319.594 148.453 319.607 148.96C319.713 157.024 319.973 165.671 318.614 172.979L319.084 172.075C319.084 172.075 319.084 172.075 319.084 172.075C318.77 172.462 318.637 173.679 317.922 174.381C317.922 174.382 317.921 174.382 317.92 174.383C317.672 174.63 317.441 174.888 317.226 175.147C316.85 175.6 316.525 176.056 316.221 176.482C316.006 176.783 315.919 177.158 315.98 177.524C316.041 177.89 316.244 178.217 316.546 178.432C316.848 178.648 317.223 178.735 317.589 178.674C317.955 178.613 318.282 178.409 318.497 178.107C318.801 177.681 319.086 177.285 319.378 176.933C319.546 176.73 319.717 176.541 319.894 176.365C319.894 176.364 319.895 176.364 319.895 176.364C320.428 175.825 321.72 175.983 322.553 175.029C322.554 175.029 322.554 175.028 322.554 175.028L323.025 174.124C324.661 165.224 324.232 157.223 324.162 148.845C324.149 148.327 324.133 147.778 324.115 147.26Z" fill="#F70A0C"/>
<path d="M320.518 136.14C320.518 136.639 320.716 137.117 321.068 137.47C321.421 137.823 321.9 138.021 322.398 138.021C322.897 138.021 323.376 137.823 323.728 137.47C324.081 137.117 324.279 136.639 324.279 136.14C324.277 136.177 324.287 136.155 324.263 136.369C324.256 136.417 324.248 136.477 324.222 136.578C324.209 136.629 324.191 136.691 324.16 136.773C324.153 136.794 324.144 136.816 324.134 136.839C324.105 136.908 324.065 136.993 324.001 137.098C323.871 137.293 323.631 137.667 322.994 137.893C322.361 138.144 321.53 137.83 321.348 137.666C321.173 137.546 321.064 137.434 320.983 137.343C320.826 137.158 320.768 137.041 320.722 136.953C320.632 136.763 320.637 136.751 320.62 136.708C320.573 136.558 320.574 136.538 320.566 136.506C320.547 136.41 320.551 136.418 320.549 136.407C320.548 136.397 320.549 136.412 320.551 136.426C320.566 136.63 320.56 136.937 320.531 137.182L321.838 135.601C322.213 135.484 322.522 135.515 322.701 135.549C323.129 135.645 323.19 135.745 323.251 135.802C323.301 135.863 323.295 135.904 323.274 135.941C323.229 136.011 323.116 136.061 322.991 136.102C322.863 136.141 322.721 136.17 322.571 136.168C322.493 136.167 322.418 136.159 322.309 136.126C322.254 136.111 322.19 136.084 322.067 136.045C321.995 136.023 321.916 135.996 321.755 135.986C321.604 135.973 321.303 136.018 321.09 136.209C320.82 136.459 320.813 136.644 320.788 136.729C320.769 136.834 320.77 136.883 320.768 136.933C320.779 137.329 320.83 137.394 320.865 137.562C320.903 137.708 320.943 137.842 320.983 137.974C321.064 138.237 321.148 138.489 321.231 138.739C321.253 138.804 321.274 138.869 321.296 138.934C321.369 139.152 321.525 139.332 321.731 139.435C321.936 139.538 322.175 139.555 322.393 139.482C322.611 139.41 322.791 139.253 322.894 139.047C322.997 138.842 323.014 138.604 322.941 138.385C322.92 138.32 322.898 138.256 322.877 138.191C322.795 137.945 322.714 137.701 322.641 137.464C322.605 137.347 322.571 137.23 322.543 137.123C322.515 137.038 322.493 136.848 322.501 136.982C322.5 137.007 322.503 137.034 322.489 137.113C322.469 137.175 322.471 137.334 322.22 137.569C322.021 137.747 321.739 137.789 321.607 137.778C321.465 137.769 321.402 137.747 321.349 137.733C321.258 137.708 321.227 137.702 321.201 137.707C321.152 137.717 321.133 137.757 321.11 137.804C321.069 137.901 321.033 138.033 321.012 138.174C320.993 138.316 320.987 138.467 321.055 138.631C321.091 138.714 321.144 138.801 321.255 138.902C321.378 138.998 321.505 139.135 322.005 139.245C322.215 139.285 322.557 139.316 322.962 139.191L324.13 138.825L324.269 137.609C324.323 137.112 324.338 136.671 324.301 136.13C324.296 136.076 324.292 136.023 324.282 135.944C324.276 135.901 324.275 135.873 324.25 135.745C324.24 135.704 324.239 135.676 324.189 135.518C324.172 135.473 324.177 135.459 324.085 135.267C324.038 135.177 323.98 135.06 323.822 134.875C323.741 134.782 323.632 134.67 323.457 134.551C323.274 134.386 322.443 134.072 321.809 134.323C321.171 134.55 320.931 134.924 320.801 135.119C320.736 135.225 320.697 135.31 320.667 135.379C320.657 135.403 320.649 135.425 320.641 135.446C320.609 135.529 320.592 135.591 320.578 135.643C320.552 135.746 320.543 135.809 320.536 135.859C320.51 136.089 320.52 136.084 320.518 136.14Z" fill="#F70A0C"/>
<path d="M322.398 136.14C322.398 135.955 322.491 136.599 322.4 137.396C322.216 137.453 321.755 136.806 321.655 136.889C321.556 136.971 321.833 137.803 322.118 138.66" stroke="#F70A0C" stroke-width="4" stroke-linecap="round"/>
<path d="M338.34 148.017C338.966 148.021 339.567 147.777 340.013 147.338C340.458 146.898 340.71 146.3 340.715 145.675C340.719 145.049 340.474 144.448 340.035 144.002C339.596 143.557 338.998 143.305 338.372 143.3C337.695 143.313 337.407 143.471 337.179 143.56C336.948 143.665 336.807 143.75 336.662 143.842C336.407 144.006 336.207 144.167 336.041 144.308C335.701 144.6 335.433 144.875 335.178 145.152C334.676 145.703 334.252 146.251 333.853 146.814C332.169 149.219 330.972 151.815 330.131 154.546C330.129 154.55 330.128 154.555 330.126 154.56C328.133 161.491 328.876 168.965 333.895 175.193C333.914 175.212 333.932 175.231 333.951 175.249C334.378 175.651 334.853 176.158 335.854 176.574C336.869 177.04 338.407 176.808 339.127 176.375C339.14 176.368 339.152 176.362 339.165 176.355C344.887 173.578 345.652 166.624 345.729 162.367C345.733 162.301 345.736 162.235 345.739 162.17C345.993 156.897 345.056 151.599 343.104 146.724L343.023 146.542C343.01 146.518 342.998 146.493 342.986 146.469C342.379 145.272 341.865 144.267 341.423 143.169C341.417 143.155 341.411 143.141 341.405 143.127C341.024 142.193 340.637 141.323 340.203 140.381C339.726 139.353 339.196 138.266 338.588 137.138C338.468 136.915 338.311 136.705 338.102 136.561C337.893 136.418 337.653 136.351 337.416 136.378C337.18 136.405 336.96 136.524 336.789 136.711C336.618 136.898 336.511 137.137 336.445 137.382C336.113 138.68 335.963 140.013 336.047 141.362C336.12 142.585 336.413 143.841 336.873 144.965C336.88 144.982 336.887 144.999 336.894 145.015C337.408 146.296 338.064 147.572 338.617 148.658C338.628 148.681 338.64 148.703 338.651 148.725L338.569 148.543C340.277 152.79 341.101 157.39 340.885 161.942C340.883 161.999 340.88 162.055 340.877 162.112C340.771 166.709 340.03 170.573 336.931 172.049C336.923 172.052 336.916 172.056 336.908 172.06C336.901 172.065 336.979 172.023 337.141 172.009C337.301 171.992 337.505 172.036 337.582 172.074C337.743 172.16 337.526 172.06 337.313 171.838C337.303 171.829 337.293 171.819 337.283 171.808C334.163 168.051 332.91 161.237 334.638 155.935C334.639 155.931 334.64 155.928 334.642 155.924C335.34 153.643 336.377 151.427 337.704 149.538C338.012 149.102 338.337 148.687 338.659 148.335C338.818 148.16 338.98 148 339.104 147.895C339.161 147.845 339.218 147.805 339.21 147.811C339.203 147.815 339.185 147.83 339.097 147.87C339.003 147.9 338.872 148.004 338.34 148.017Z" fill="#F70A0C"/>
<path d="M350.989 163.091C350.712 163.602 350.649 164.202 350.814 164.759C350.979 165.316 351.359 165.784 351.869 166.061C352.38 166.339 352.98 166.401 353.537 166.236C354.094 166.071 354.562 165.692 354.839 165.181C354.922 165.031 355.112 164.727 355.278 164.466C356.891 161.947 358.609 159.379 360.088 156.512C360.088 156.511 360.089 156.51 360.09 156.509L360.375 155.948L360.319 155.322C359.985 152.297 359.176 149.797 358.199 147.294C358.198 147.291 358.196 147.288 358.195 147.285L358.139 147.157C357.953 146.773 357.603 146.453 357.084 146.229C356.843 146.127 356.567 146.045 356.246 145.993C356.085 145.967 355.915 145.949 355.72 145.938C355.51 145.937 355.364 145.896 354.905 145.964C354.833 146.075 354.764 146.181 354.713 146.264C354.662 146.35 354.633 146.415 354.629 146.485C354.625 146.554 354.647 146.623 354.688 146.713C354.729 146.802 354.785 146.915 354.843 147.033C354.551 147.122 354.536 147.202 354.447 147.308C354.374 147.411 354.312 147.516 354.256 147.618C354.144 147.822 354.055 148.013 353.992 148.19C353.854 148.571 353.836 148.882 353.958 149.144L353.902 149.016C353.903 149.018 353.904 149.021 353.905 149.024C354.8 151.267 355.742 153.639 355.955 155.711L356.184 154.523C356.184 154.524 356.183 154.525 356.183 154.526C354.885 157.048 353.236 159.537 351.58 162.116C351.392 162.417 351.226 162.666 350.989 163.091Z" fill="#F70A0C"/>
<path d="M355.235 149.006C355.751 148.836 356.179 148.468 356.424 147.983C356.669 147.497 356.711 146.935 356.542 146.418C356.372 145.902 356.004 145.474 355.518 145.229C355.033 144.984 354.47 144.941 353.954 145.111C353.1 145.439 352.916 145.659 352.569 145.894C352.26 146.124 351.985 146.353 351.723 146.579C350.149 147.963 348.822 149.406 347.532 150.936C347.513 150.96 347.493 150.983 347.473 151.007C344.606 154.824 346.062 158.633 346.486 161.533C347.106 164.551 347.713 167.417 347.958 170.304L348.01 170.894L348.366 171.367C348.398 171.409 348.43 171.45 348.461 171.492C350.366 173.928 352.502 176.341 355.603 178.049L355.548 178.014C355.555 178.018 355.563 178.023 355.571 178.027C355.676 178.086 355.786 178.138 355.901 178.186C356.429 178.404 357.068 178.553 357.664 178.818C357.834 178.893 358.054 178.895 358.257 178.848C358.461 178.8 358.632 178.706 358.75 178.564C358.868 178.422 358.93 178.238 358.94 178.028C358.95 177.82 358.908 177.604 358.804 177.45C358.441 176.914 358.115 176.266 357.623 175.762C357.517 175.654 357.405 175.552 357.285 175.461C357.276 175.454 357.267 175.447 357.258 175.441L357.203 175.406C355.13 173.884 353.546 171.322 351.755 168.999C351.725 168.959 351.695 168.92 351.665 168.88L352.073 169.942C351.796 163.874 348.459 156.5 350.623 153.631C350.641 153.61 350.659 153.588 350.677 153.567C351.843 152.178 353.114 150.811 354.408 149.678C354.616 149.497 354.828 149.323 355.019 149.181C355.114 149.11 355.203 149.047 355.271 149.005C355.325 148.965 355.415 148.939 355.235 149.006Z" fill="#F70A0C"/>
<path d="M367.274 142.471C366.949 142.004 366.451 141.685 365.89 141.585C365.329 141.485 364.752 141.611 364.285 141.937C363.817 142.263 363.499 142.761 363.398 143.321C363.298 143.882 363.425 144.46 363.751 144.927C364.245 145.608 364.602 145.992 364.992 146.46C365.848 147.463 366.854 148.674 367.144 149.283L366.954 148.366C366.954 148.372 366.954 148.377 366.954 148.382C366.862 156.2 366.899 163.868 367.2 171.764L367.197 171.697C367.197 171.698 367.197 171.699 367.197 171.7C367.238 173.127 367.254 174.611 367.285 176.088C367.297 176.675 367.311 177.264 367.326 177.854C367.341 178.405 367.565 178.934 367.958 179.323C368.352 179.713 368.881 179.932 369.432 179.932C369.983 179.932 370.512 179.713 370.906 179.323C371.299 178.934 371.523 178.405 371.537 177.854C371.553 177.264 371.567 176.674 371.577 176.082C371.602 174.59 371.616 173.106 371.572 171.565C371.572 171.564 371.572 171.563 371.572 171.561L371.569 171.495C371.283 163.944 371.156 156.101 371.249 148.45C371.249 148.445 371.249 148.44 371.249 148.435L371.059 147.518C370.09 145.65 369.176 144.804 368.266 143.68C367.897 143.245 367.467 142.742 367.274 142.471Z" fill="#F70A0C"/>
<path d="M367.352 150.151C367.207 150.703 367.287 151.289 367.575 151.782C367.862 152.274 368.333 152.633 368.885 152.778C369.436 152.923 370.023 152.843 370.516 152.555C371.008 152.268 371.366 151.797 371.512 151.245C371.454 151.401 371.552 151.158 371.715 150.964C371.878 150.755 372.098 150.515 372.338 150.279C373.355 149.291 374.656 148.334 375.955 147.526C375.973 147.515 375.992 147.504 376.01 147.492C375.962 147.52 375.859 147.581 375.659 147.62C375.459 147.663 375.164 147.648 374.943 147.566C374.493 147.384 374.48 147.243 374.492 147.285C374.551 147.356 374.73 147.755 374.846 148.154C375.099 148.995 375.275 149.985 375.417 150.992C375.694 153.005 375.839 155.132 375.939 157.229C376.131 161.468 376.135 165.734 376.092 170.023L376.097 169.874C376.092 169.947 376.086 170.019 376.08 170.09C375.996 171.155 375.879 172.232 375.699 173.145C375.517 174.075 375.276 174.628 374.798 175.65C374.782 175.684 374.766 175.719 374.75 175.754C373.947 177.48 373.303 179.371 372.941 181.357C372.789 182.19 372.684 183.041 372.634 183.905C372.621 184.159 372.657 184.421 372.774 184.649C372.891 184.877 373.076 185.052 373.302 185.14C373.528 185.228 373.783 185.224 374.023 185.135C374.263 185.045 374.467 184.877 374.629 184.681C375.165 184.038 375.677 183.393 376.163 182.738C377.321 181.172 378.327 179.568 379.153 177.79C379.17 177.753 379.187 177.717 379.203 177.681C379.674 176.715 380.224 175.188 380.371 173.935C380.55 172.674 380.602 171.542 380.678 170.417C380.683 170.343 380.688 170.267 380.693 170.191L380.698 170.041C380.682 165.697 380.603 161.373 380.342 156.992C380.207 154.819 380.033 152.609 379.704 150.372C379.531 149.24 379.341 148.127 378.965 146.889C378.763 146.27 378.57 145.638 378.019 144.818C377.724 144.424 377.334 143.874 376.368 143.507C375.364 143.127 374.256 143.492 373.758 143.828C373.737 143.841 373.715 143.855 373.693 143.868C372.148 144.837 370.72 145.864 369.324 147.212C368.665 147.938 367.947 148.406 367.352 150.151Z" fill="#F70A0C"/>
<path d="M393.651 136.498C393.894 136.015 393.936 135.455 393.766 134.941C393.596 134.427 393.23 134.002 392.747 133.758C392.263 133.515 391.703 133.473 391.189 133.643C390.676 133.812 390.25 134.179 390.007 134.662C389.745 135.219 389.722 135.47 389.656 135.754C389.602 136.025 389.568 136.266 389.539 136.501C389.484 136.961 389.451 137.403 389.427 137.828C389.296 140.458 389.373 142.935 389.462 145.451C389.462 145.454 389.462 145.457 389.463 145.461C389.739 153.844 389.929 162.013 388.798 170.344C388.797 170.349 388.797 170.355 388.797 170.36L388.812 170.82C389.404 174.897 391.676 177.855 393.745 180.4C393.748 180.404 393.75 180.407 393.753 180.41L393.964 180.633C394.306 180.946 394.543 181.092 394.745 181.197C395.206 181.416 395.773 181.618 396.569 182.037C396.821 182.184 397.081 182.316 397.349 182.376C397.618 182.437 397.876 182.42 398.099 182.313C398.322 182.207 398.497 182.017 398.619 181.77C398.741 181.524 398.802 181.238 398.847 180.95C398.957 179.924 398.642 178.755 397.935 177.873C397.659 177.518 397.38 177.249 397.235 177.111L397.446 177.334C397.444 177.331 397.441 177.328 397.439 177.325C395.468 174.966 393.611 172.583 393.261 170.213L393.276 170.673C393.276 170.669 393.277 170.665 393.277 170.661C394.254 162.344 393.822 153.66 393.54 145.305C393.54 145.302 393.539 145.299 393.539 145.295C393.451 142.849 393.382 140.385 393.501 138.059C393.521 137.691 393.55 137.319 393.59 136.993C393.61 136.828 393.633 136.672 393.657 136.551C393.672 136.445 393.738 136.298 393.651 136.498Z" fill="#F70A0C"/>
<path d="M383.447 144.802C383.888 145.243 384.486 145.491 385.11 145.491C385.734 145.491 386.332 145.243 386.773 144.802C387.214 144.361 387.462 143.763 387.462 143.139C387.462 142.516 387.214 141.917 386.773 141.476C386.844 141.566 386.895 141.539 387.176 142.037C387.233 142.155 387.351 142.38 387.408 142.787C387.487 143.089 387.361 144.075 386.897 144.569C386.689 144.823 386.453 145.001 386.249 145.117C386.037 145.234 385.942 145.265 385.814 145.309C385.57 145.386 385.424 145.4 385.329 145.41C384.924 145.438 384.889 145.405 384.802 145.399C384.735 145.388 384.702 145.381 384.681 145.376C384.603 145.358 384.637 145.365 384.661 145.373C384.721 145.392 384.823 145.429 384.924 145.467C385.235 145.584 385.582 145.725 385.927 145.868L385.977 145.888C386 145.897 386.025 145.906 386.05 145.917C388.832 147.107 391.971 148.581 394.955 149.984L394.986 149.999C394.994 150.003 395.002 150.007 395.011 150.011C395.855 150.395 396.783 150.667 397.742 150.903C398.016 150.97 398.286 151.032 398.54 151.092C398.912 151.18 399.326 151.109 399.683 150.92C400.04 150.729 400.311 150.436 400.445 150.079C400.578 149.723 400.567 149.324 400.423 148.946C400.279 148.568 400.014 148.242 399.676 148.064C399.444 147.942 399.23 147.821 399.022 147.696C398.308 147.265 397.614 146.759 396.847 146.339C396.84 146.335 396.833 146.331 396.825 146.327L396.856 146.342C393.901 144.682 391.155 142.991 387.788 141.546C387.75 141.531 387.713 141.516 387.676 141.502L387.726 141.522C387.355 141.369 386.989 141.219 386.576 141.063C386.435 141.011 386.292 140.958 386.106 140.897C386.008 140.867 385.916 140.835 385.711 140.787C385.661 140.776 385.594 140.762 385.495 140.747C385.376 140.736 385.311 140.699 384.872 140.729C384.769 140.741 384.614 140.756 384.363 140.835C384.231 140.881 384.133 140.913 383.918 141.032C383.709 141.151 383.47 141.33 383.259 141.588C382.79 142.087 382.663 143.084 382.744 143.392C382.801 143.807 382.922 144.04 382.983 144.165C383.28 144.693 383.352 144.687 383.447 144.802Z" fill="#F70A0C"/>
<path d="M408.792 147.146C409.037 146.656 409.079 146.09 408.907 145.57C408.735 145.05 408.363 144.62 407.874 144.374C407.385 144.128 406.818 144.087 406.298 144.259C405.778 144.431 405.348 144.802 405.102 145.292C404.884 145.776 404.919 145.804 404.875 145.951C404.851 146.054 404.829 146.164 404.814 146.243C404.78 146.429 404.756 146.581 404.734 146.733C404.687 147.049 404.651 147.331 404.616 147.631C404.062 152.769 403.892 157.785 403.902 162.871C403.903 162.883 403.903 162.895 403.903 162.907L403.909 162.739C403.52 167.406 403.864 171.918 401.863 175.101C401.863 175.101 401.861 175.104 401.86 175.107C401.505 175.701 401.272 176.36 401.163 176.999C401.05 177.66 401.063 178.291 401.145 178.893C401.189 179.211 401.281 179.529 401.459 179.794C401.638 180.058 401.887 180.248 402.175 180.326C402.463 180.405 402.774 180.368 403.062 180.231C403.35 180.093 403.591 179.866 403.79 179.615C404.167 179.134 404.476 178.683 404.743 178.287C405.002 177.902 405.22 177.565 405.422 177.224C405.423 177.223 405.424 177.221 405.425 177.22C408.254 172.439 407.589 167.318 408.026 163.052L408.031 162.885C408.031 162.874 408.031 162.863 408.031 162.851C408.018 157.93 408.195 152.928 408.716 148.116C408.748 147.845 408.78 147.593 408.818 147.341C408.835 147.221 408.854 147.104 408.874 146.999C408.882 146.955 408.892 146.903 408.897 146.885C408.899 146.875 408.901 146.87 408.896 146.888C408.89 146.899 408.887 146.949 408.792 147.146Z" fill="#F70A0C"/>
<path d="M410.525 136.485C410.617 135.982 410.505 135.462 410.213 135.042C409.922 134.621 409.475 134.333 408.972 134.241C408.468 134.15 407.949 134.262 407.528 134.553C407.107 134.845 406.82 135.291 406.728 135.795C406.715 135.864 406.703 135.933 406.69 136.001C406.634 136.31 406.578 136.615 406.52 136.9C406.491 137.041 406.462 137.179 406.433 137.296C406.42 137.354 406.406 137.407 406.396 137.439C406.392 137.463 406.365 137.51 406.432 137.362C406.449 137.327 406.471 137.282 406.522 137.201C406.583 137.118 406.639 136.99 406.944 136.744C407.152 136.588 407.487 136.388 407.999 136.359C408.499 136.33 408.94 136.53 409.156 136.683C409.585 136.997 409.63 137.158 409.701 137.252C409.814 137.444 409.818 137.48 409.837 137.514C409.863 137.568 409.863 137.539 409.867 137.505C409.869 137.468 409.87 137.416 409.867 137.349C409.861 137.273 409.869 137.236 409.823 137.021C409.814 136.986 409.806 136.948 409.782 136.874C409.772 136.842 409.754 136.789 409.722 136.712C409.691 136.649 409.655 136.509 409.424 136.211C409.192 135.99 408.806 135.327 407.435 135.486C406.88 135.587 406.483 135.943 406.406 136.021C406.269 136.154 406.186 136.266 406.124 136.357C405.993 136.559 405.988 136.592 405.951 136.668C405.923 136.73 405.9 136.789 405.891 136.813C405.845 136.939 405.837 136.976 405.825 137.015C405.806 137.077 405.8 137.098 405.793 137.113C405.782 137.143 405.776 137.146 405.772 137.145C405.764 137.141 405.763 137.11 405.777 137.059C405.801 136.961 405.9 136.744 406.138 136.548C406.244 136.459 406.37 136.384 406.49 136.333C405.924 136.464 405.461 136.812 405.216 137.335C404.969 137.856 404.961 138.51 405.18 139.117C405.398 139.723 405.821 140.222 406.343 140.467C406.865 140.714 407.444 140.686 407.964 140.427C408.216 140.328 408.468 140.186 408.687 140.014C409.172 139.636 409.453 139.161 409.602 138.786C409.679 138.594 409.728 138.419 409.761 138.267C409.778 138.192 409.791 138.121 409.797 138.077C409.799 138.057 409.802 138.038 409.792 138.065C409.786 138.084 409.782 138.103 409.743 138.211C409.735 138.232 409.715 138.285 409.688 138.343C409.653 138.414 409.649 138.444 409.522 138.641C409.461 138.73 409.38 138.84 409.244 138.971C409.169 139.049 408.775 139.402 408.221 139.503C406.855 139.661 406.472 139.001 406.244 138.785C406.018 138.492 405.987 138.363 405.959 138.307C405.93 138.238 405.916 138.194 405.909 138.17C405.891 138.113 405.887 138.093 405.883 138.075C405.872 137.994 405.905 138.092 405.926 138.149C405.951 138.218 405.979 138.3 406.012 138.397C406.047 138.497 406.08 138.6 406.151 138.784C406.193 138.884 406.222 138.984 406.369 139.235C406.457 139.357 406.523 139.549 406.98 139.882C407.21 140.044 407.668 140.251 408.185 140.221C408.715 140.19 409.064 139.984 409.287 139.817C409.616 139.553 409.691 139.399 409.769 139.29C409.837 139.183 409.873 139.111 409.904 139.047C410.039 138.756 410.06 138.649 410.101 138.522C410.135 138.402 410.161 138.301 410.185 138.204C410.231 138.012 410.268 137.838 410.302 137.669C410.371 137.331 410.429 137.01 410.487 136.694C410.5 136.624 410.513 136.554 410.525 136.485Z" fill="#F70A0C"/>
<path d="M408.627 136.14C408.442 137.156 408.257 138.173 408.116 138.28C407.974 138.388 407.882 137.557 407.834 137.498C407.787 137.439 407.787 138.178 407.227 138.38" stroke="#F70A0C" stroke-width="4" stroke-linecap="round"/>
<path d="M425.137 135.022C424.989 134.43 424.612 133.921 424.088 133.607C423.565 133.293 422.938 133.2 422.346 133.348C421.755 133.496 421.246 133.873 420.932 134.396C420.618 134.92 420.524 135.546 420.672 136.138C420.634 135.974 420.645 135.995 420.644 136.003C420.646 136.014 420.65 136.054 420.652 136.082C420.659 136.149 420.665 136.238 420.671 136.323C420.683 136.503 420.693 136.694 420.702 136.877C420.72 137.259 420.735 137.651 420.748 138.042C420.973 145.957 421.013 153.944 421.07 161.921C421.07 161.928 421.07 161.934 421.07 161.941C421.086 164.261 421.071 166.571 421.146 168.955C421.429 171.348 420.694 173.759 423.369 177.177L423.453 177.258C423.454 177.259 423.456 177.26 423.457 177.261C424.702 178.421 425.889 179.51 426.875 180.483C426.876 180.483 426.876 180.483 426.876 180.484C426.974 180.581 427.068 180.678 427.158 180.774C427.601 181.257 427.811 181.549 428.195 182.23C428.538 182.832 429.107 183.273 429.776 183.455C430.445 183.637 431.158 183.547 431.76 183.203C432.362 182.859 432.802 182.29 432.985 181.622C433.167 180.953 433.076 180.239 432.732 179.637C432.347 178.92 431.64 177.892 430.984 177.214C430.844 177.064 430.704 176.92 430.564 176.78C430.564 176.78 430.564 176.78 430.563 176.779C429.261 175.503 427.945 174.571 426.813 173.576C426.812 173.575 426.811 173.575 426.81 173.574L426.895 173.655C426.456 173.495 425.978 170.807 425.879 168.72C425.734 166.502 425.688 164.21 425.671 161.914C425.671 161.907 425.671 161.9 425.671 161.893C425.614 153.89 425.576 145.948 425.347 137.886C425.333 137.481 425.318 137.074 425.298 136.656C425.289 136.455 425.277 136.243 425.262 136.015C425.255 135.907 425.246 135.787 425.235 135.662C425.23 135.609 425.221 135.521 425.211 135.441C425.202 135.373 425.192 135.252 425.137 135.022Z" fill="#F70A0C"/>
<path d="M417.585 145.108C418.108 145.108 418.608 144.9 418.978 144.531C419.347 144.162 419.554 143.661 419.554 143.139C419.554 142.617 419.347 142.116 418.978 141.747C418.608 141.378 418.108 141.17 417.585 141.17C417.686 141.173 417.548 141.167 417.491 141.162C417.416 141.157 417.335 141.152 417.252 141.146C417.086 141.135 416.912 141.125 416.733 141.119C416.439 141.109 416.135 141.104 415.775 141.127L415.099 144.886C415.1 144.886 415.1 144.886 415.1 144.887C419.846 146.817 424.259 147.981 428.668 149.416L428.443 149.331C428.444 149.331 428.444 149.331 428.445 149.332C429.006 149.581 429.614 149.725 430.27 149.763C430.599 149.782 430.941 149.774 431.294 149.74C431.617 149.706 431.94 149.643 432.22 149.502C432.501 149.361 432.716 149.151 432.832 148.889C432.949 148.627 432.96 148.327 432.877 148.024C432.794 147.721 432.624 147.439 432.433 147.177C432.222 146.892 431.999 146.633 431.764 146.401C431.296 145.94 430.782 145.585 430.221 145.336C430.22 145.335 430.22 145.335 430.219 145.335L429.994 145.249C425.477 143.792 420.669 142.916 416.718 141.297C416.718 141.297 416.718 141.297 416.718 141.297L416.042 145.056C416.182 145.046 416.38 145.046 416.588 145.054C416.717 145.058 416.852 145.066 416.994 145.075C417.066 145.08 417.138 145.085 417.218 145.091C417.314 145.096 417.332 145.103 417.585 145.108Z" fill="#F70A0C"/>
<path d="M439.291 146.592C439.39 146.033 439.263 145.457 438.938 144.992C438.612 144.526 438.115 144.209 437.556 144.11C436.997 144.011 436.421 144.138 435.955 144.463C435.49 144.789 435.173 145.286 435.074 145.845C434.987 146.334 434.912 146.825 434.847 147.314C434.178 153.14 434.246 158.606 434.108 164.196C434.108 164.211 434.108 164.227 434.107 164.242L434.12 164.51C434.339 167.373 435.526 170.86 437.828 172.965C437.847 172.983 437.866 173.001 437.885 173.019L438.028 173.147C438.183 173.267 438.351 173.364 438.523 173.433C438.788 173.539 439.075 173.588 439.312 173.548C439.427 173.524 439.536 173.493 439.557 173.357C439.568 173.281 439.535 173.188 439.481 172.906C439.402 172.635 439.53 172.027 439.744 171.88C439.84 172.163 439.933 172.434 440.04 172.657C440.148 172.882 440.275 173.048 440.447 173.152C440.619 173.257 440.825 173.293 441.074 173.286C441.321 173.278 441.605 173.235 441.9 173.19C442.178 172.943 442.316 172.209 442.19 171.83C442.093 171.441 441.984 171.254 441.915 171.095C441.773 170.792 441.698 170.62 441.627 170.456C441.492 170.139 441.396 169.922 441.289 169.748C441.221 169.637 441.15 169.546 441.071 169.473L441.214 169.601C441.201 169.587 441.188 169.574 441.174 169.561C439.603 168.064 438.635 166.408 438.378 164.047L438.39 164.316C438.39 164.3 438.391 164.285 438.391 164.27C438.521 158.743 438.486 153.098 439.093 147.877C439.15 147.445 439.216 147.018 439.291 146.592Z" fill="#F70A0C"/>
<path d="M453.055 143.45C453.435 142.953 453.601 142.326 453.518 141.706C453.435 141.086 453.109 140.524 452.612 140.145C452.115 139.765 451.487 139.599 450.867 139.682C450.247 139.765 449.686 140.091 449.306 140.588C448.375 141.861 447.949 142.946 447.488 144.066C444.744 151.673 443.381 159.087 442.726 167.007C442.722 167.076 442.717 167.145 442.712 167.214C442.657 168.185 442.447 168.742 442.344 168.936C442.337 168.953 442.329 168.969 442.322 168.984C440.781 172.015 437.403 174.356 434.289 177.963C434.226 178.039 434.164 178.117 434.103 178.195C433.758 178.686 433.12 179.285 432.717 180.719C432.666 180.926 432.628 181.149 432.609 181.377C432.361 185.922 435.855 188.321 437.671 189.871C437.715 189.907 437.756 189.942 437.795 189.975C438.59 190.677 439.83 191.209 440.99 191.224C442.153 191.255 443.11 190.931 443.887 190.57C445.426 189.832 446.525 188.826 447.43 187.98L448.035 187.1C448.055 187.051 448.074 187.003 448.092 186.954C448.743 184.668 448.203 183.635 447.833 182.41C447.828 182.396 447.822 182.381 447.817 182.366C447.794 182.308 447.772 182.251 447.748 182.193C447.167 180.785 446.274 179.788 445.435 179.016C445.022 178.644 444.504 178.38 443.942 178.319C443.381 178.258 442.828 178.402 442.39 178.729C441.953 179.057 441.659 179.547 441.56 180.103C441.46 180.659 441.568 181.231 441.808 181.732C442.277 182.714 442.687 183.509 442.925 184.143C442.936 184.171 442.947 184.198 442.957 184.226C442.96 184.233 442.963 184.24 442.965 184.247C443.075 184.534 443.163 184.833 443.205 185.061C443.26 185.276 443.199 185.471 443.286 185.182C443.291 185.169 443.296 185.156 443.302 185.143L443.906 184.263C443.084 185.077 442.345 185.694 441.709 186.009C441.403 186.164 441.174 186.203 441.128 186.201C441.081 186.193 441.149 186.24 441.027 186.154C440.973 186.108 440.919 186.063 440.865 186.019C438.698 184.373 437.376 182.835 437.562 181.779C437.558 181.828 437.55 181.873 437.541 181.907C437.446 182.144 437.635 181.784 438.037 181.321C438.081 181.267 438.125 181.212 438.171 181.157C440.477 178.353 444.372 175.819 446.797 171.299C446.857 171.183 446.913 171.067 446.963 170.95C447.575 169.511 447.391 168.255 447.426 167.472C447.428 167.411 447.431 167.35 447.434 167.288C448.005 160.098 449.449 152.459 451.874 145.801C452.235 144.883 452.687 143.932 453.055 143.45Z" fill="#F70A0C"/>
<path d="M6.43161 5.01385C6.21801 4.48308 5.80232 4.05891 5.27598 3.83464C4.74963 3.61036 4.15576 3.60436 3.62499 3.81796C3.09423 4.03156 2.67005 4.44725 2.44578 4.97359C2.2215 5.49994 2.21551 6.09381 2.4291 6.62458C2.75902 9.35385 2.65655 14.5106 2.54899 18.543C2.54894 18.545 2.54888 18.5469 2.54883 18.5488C2.50221 20.2061 2.46433 21.8911 2.43096 23.549C2.21315 35.115 2.10558 46.6582 2.20713 58.2188C2.20714 58.2195 2.20715 58.2203 2.20715 58.221C2.30566 70.6322 2.86074 83.006 2.92913 95.3022C2.92915 95.3047 2.92916 95.3071 2.92917 95.3096C2.97322 105.434 2.6786 115.586 2.2731 125.74C2.27293 125.744 2.27276 125.748 2.27259 125.752C1.92692 134.314 1.63022 142.916 1.58198 151.516C1.58194 151.522 1.58189 151.528 1.58185 151.534C1.47327 159.549 1.76801 167.714 1.453 175.462C1.45266 175.468 1.45231 175.475 1.45196 175.481C1.0148 188.433 1.35854 200.967 1.10322 213.641C1.10311 213.647 1.10301 213.654 1.1029 213.661C0.820068 224.86 -0.0947323 236.398 0.0079267 247.878C0.0079391 247.884 0.00795174 247.889 0.00796437 247.894C0.074877 263.899 0.779948 279.833 1.24071 295.716C1.24092 295.724 1.24113 295.732 1.24134 295.739C1.75422 309.216 0.850368 322.316 0.153673 336.034L0.152997 336.06C0.152977 336.061 0.152956 336.062 0.152935 336.063C0.0992808 338.669 0.060252 341.292 0.0492971 343.899C0.0196216 348.642 0.141501 353.376 0.180506 358.035L0.181946 358.104C0.181954 358.104 0.181962 358.104 0.181971 358.104C0.225451 359.39 0.771411 360.691 1.84153 361.854C2.04956 362.067 2.26499 362.27 2.50279 362.409C2.7412 362.549 2.98818 362.613 3.23097 362.583C3.47377 362.553 3.69752 362.43 3.8946 362.237C4.09107 362.043 4.25045 361.794 4.40003 361.536C5.16745 360.256 5.55349 359.099 5.5129 357.924C5.51289 357.924 5.51289 357.924 5.51288 357.923L5.51432 357.992C5.47411 353.244 5.33475 348.581 5.34992 343.914C5.35285 341.345 5.3849 338.753 5.43699 336.171C5.43701 336.17 5.43703 336.169 5.43705 336.168L5.43638 336.195C6.1046 322.966 7.04322 309.14 6.51277 295.594C6.51256 295.586 6.51234 295.578 6.51213 295.57C6.04289 279.62 5.33578 263.722 5.25796 247.88C5.25794 247.874 5.25792 247.869 5.25791 247.864C5.1481 236.524 5.99901 225.317 6.2354 213.727C6.23547 213.72 6.23554 213.713 6.23561 213.706C6.42361 200.998 5.83992 188.154 6.21046 175.743C6.21081 175.736 6.21116 175.729 6.2115 175.723C6.50907 167.454 6.20344 159.593 6.29665 151.562C6.29668 151.556 6.29671 151.55 6.29674 151.544C6.32606 143.007 6.58929 134.493 6.92532 125.934C6.92548 125.929 6.92565 125.925 6.92581 125.921C7.32114 115.738 7.61843 105.52 7.56192 95.2849C7.56191 95.2824 7.5619 95.28 7.56188 95.2775C7.47701 82.837 6.89792 70.5003 6.76156 58.17C6.76155 58.1693 6.76154 58.1686 6.76154 58.1679C6.62382 46.6636 6.57528 35.1338 6.75341 23.6285C6.78101 21.9806 6.81552 20.3073 6.86157 18.6704C6.86162 18.6685 6.86167 18.6667 6.86173 18.6648C6.86972 14.1714 7.41269 10.7071 6.43161 5.01385Z" fill="#F70A0C"/>
<path d="M2.79346 360.693C2.1804 360.693 1.59246 360.937 1.15896 361.37C0.725468 361.804 0.481934 362.392 0.481934 363.005C0.481934 363.618 0.725468 364.206 1.15896 364.639C1.59246 365.073 2.1804 365.316 2.79346 365.316C8.33048 365.662 14.5294 366.399 20.363 367.149C20.3645 367.149 20.366 367.149 20.3675 367.149C24.8844 367.681 28.8064 367.183 32.8013 367.214C39.3478 367.15 45.8548 367.444 52.4451 367.868C52.4893 367.871 52.5335 367.874 52.5779 367.877C63.2675 368.476 73.7799 367.963 84.2418 367.623C84.2851 367.622 84.3282 367.62 84.3712 367.619C88.6186 367.477 92.9761 367.276 97.2005 366.847C97.24 366.844 97.2784 366.841 97.3163 366.837C114.259 366.498 131.874 366.649 149.193 366.536C149.227 366.535 149.261 366.535 149.296 366.535C215.357 366.258 281.534 365.931 347.568 365.943C347.58 365.943 347.592 365.943 347.604 365.943C368.997 366.022 390.286 365.871 411.532 366.773C411.539 366.773 411.547 366.773 411.554 366.773C422.238 367.123 432.784 366.564 443.313 365.912C443.316 365.912 443.32 365.912 443.323 365.912C462.197 364.671 481.035 363.066 499.829 361.786C499.832 361.786 499.835 361.786 499.838 361.785C508.665 361.225 517.287 360.648 525.924 361.459C525.932 361.46 525.939 361.46 525.946 361.461C538.756 362.5 551.694 363.31 564.281 364.688C564.293 364.69 564.304 364.691 564.315 364.693C567.589 365.088 570.783 365.28 573.983 365.438C579.247 365.687 584.481 365.781 589.724 365.785C589.739 365.785 589.753 365.785 589.768 365.785L589.691 365.784C593.52 365.897 597.546 365.56 601.53 364.948C601.546 364.946 601.561 364.943 601.576 364.941L601.939 364.878C602.546 364.671 603.537 364.046 603.801 362.944C604.008 361.896 603.601 361.368 603.422 360.935C603.347 360.78 603.191 360.642 603.019 360.547C602.845 360.453 602.67 360.41 602.501 360.431C602.331 360.452 602.172 360.537 602.027 360.671C601.884 360.805 601.766 360.977 601.732 361.146C601.657 361.608 601.404 362.031 601.25 361.837C601.184 361.749 601.211 361.597 601.186 361.539C601.163 361.475 601.09 361.459 600.978 361.465L601.341 361.402C601.327 361.402 601.312 361.401 601.298 361.401C597.526 361.3 593.777 360.57 589.848 360.445L589.77 360.443C589.756 360.443 589.741 360.443 589.727 360.443C584.546 360.439 579.376 360.367 574.227 360.142C571.108 360 567.965 359.816 564.962 359.457C564.95 359.455 564.938 359.454 564.927 359.453C551.937 358.05 539.21 357.269 526.348 356.242C526.341 356.242 526.333 356.241 526.326 356.24C517.348 355.41 508.298 356.06 499.493 356.625C499.49 356.625 499.487 356.625 499.484 356.626C480.615 357.922 461.787 359.527 442.989 360.774C442.986 360.774 442.983 360.774 442.979 360.775C432.508 361.431 422.056 362.178 411.719 361.846C411.712 361.846 411.705 361.846 411.698 361.846C390.328 360.959 369.013 361.129 347.609 361.052C347.597 361.052 347.585 361.052 347.573 361.052C281.51 361.047 215.339 361.376 149.274 361.66C149.24 361.66 149.206 361.66 149.171 361.661C131.733 361.781 114.638 361.73 96.9219 362.104C96.8776 362.107 96.8341 362.111 96.7911 362.115C92.5767 362.541 88.4503 362.72 84.2133 362.864C84.1708 362.865 84.1282 362.867 84.0854 362.868C73.6081 363.212 63.1301 363.721 52.8741 363.158C52.8319 363.155 52.7898 363.152 52.7477 363.15C46.082 362.731 39.463 362.469 32.7463 362.561C28.6829 362.564 24.4973 363.014 20.9739 362.566C20.9724 362.566 20.9708 362.566 20.9693 362.565C14.9226 361.8 9.20435 361.078 2.79346 360.693Z" fill="#F70A0C"/>
<path d="M599.638 365.71C599.921 366.316 600.434 366.784 601.062 367.012C601.691 367.24 602.385 367.209 602.99 366.926C603.596 366.642 604.065 366.13 604.292 365.501C604.52 364.873 604.489 364.179 604.206 363.573C603.097 360.432 602.535 355.589 602.369 351.478C602.369 351.477 602.369 351.475 602.369 351.473C602.315 349.916 602.306 348.285 602.31 346.687C602.359 336.774 602.966 326.839 603.474 316.905C603.474 316.904 603.474 316.903 603.474 316.902C603.971 305.112 605.462 293.906 606.569 281.689C606.57 281.681 606.57 281.673 606.57 281.665C606.742 275.047 605.224 269.308 604.307 263.547C604.305 263.538 604.304 263.529 604.302 263.52C603.246 255.589 602.627 246.926 601.69 238.578C601.689 238.568 601.688 238.559 601.687 238.549C600.755 229.284 601.238 219.545 601.231 209.848C601.231 209.839 601.231 209.83 601.231 209.821C601.283 198.485 601.028 187.161 600.107 175.799C600.107 175.793 600.106 175.787 600.106 175.78C599.628 168.947 599.796 161.722 599.908 154.604C599.908 154.6 599.909 154.595 599.909 154.59C600.166 142.195 600.721 129.732 600.984 117.219C600.984 117.218 600.984 117.216 600.984 117.215C601.304 105.626 600.914 93.8757 601.524 82.6581C601.524 82.6568 601.524 82.6555 601.524 82.6542C602.113 72.8091 602.242 63.1215 602.725 53.4958C602.725 53.495 602.725 53.4942 602.725 53.4934C603.142 44.5005 603.974 35.8637 604.75 26.6382C604.75 26.638 604.75 26.6378 604.75 26.6376C604.87 24.5389 604.89 22.4742 604.881 20.4369C604.867 17.4869 604.789 14.5904 604.78 11.7316C604.78 11.7311 604.78 11.7305 604.78 11.73L604.743 12.2067C605.102 9.9028 604.844 7.33827 604.282 4.92171C604.282 4.92095 604.282 4.92018 604.281 4.91942L604.244 4.67007C603.854 3.41734 602.884 2.47848 602.191 1.83012C601.976 1.62254 601.643 1.49533 601.309 1.45238C600.972 1.41082 600.661 1.45698 600.402 1.6048C600.144 1.75262 599.946 1.99695 599.811 2.30815C599.678 2.61794 599.619 2.96917 599.688 3.26046C599.939 4.23011 599.85 4.98388 599.823 5.58351L599.785 5.33416C599.785 5.33478 599.785 5.33541 599.785 5.33603C599.638 7.32628 598.992 9.20116 598.662 11.2572L598.626 11.7339C598.626 11.7345 598.626 11.735 598.626 11.7356C598.619 14.6853 598.679 17.5952 598.682 20.4536C598.683 22.4268 598.656 24.3766 598.547 26.2818C598.547 26.282 598.547 26.2822 598.547 26.2824C597.815 34.9458 596.934 44.2062 596.522 53.1741C596.522 53.1749 596.522 53.1757 596.522 53.1765C596.034 62.9478 595.899 72.6973 595.327 82.2422C595.327 82.2434 595.327 82.2447 595.327 82.2459C594.689 94.1422 595.097 105.519 594.774 117.09C594.774 117.092 594.774 117.094 594.774 117.095C594.514 129.495 593.935 141.952 593.675 154.469C593.675 154.474 593.675 154.479 593.675 154.483C593.566 161.703 593.392 168.826 593.92 176.29C593.92 176.297 593.921 176.304 593.922 176.311C594.838 187.406 595.107 198.59 595.083 209.795C595.083 209.804 595.083 209.814 595.083 209.823C595.123 219.497 594.704 229.166 595.73 239.195C595.731 239.205 595.732 239.215 595.733 239.225C596.705 247.62 597.264 255.762 598.448 264.521C598.45 264.533 598.452 264.545 598.454 264.557C599.424 270.393 600.824 276.214 600.658 281.411C600.657 281.417 600.657 281.423 600.657 281.429C599.651 292.644 598.074 304.853 597.626 316.609C597.626 316.61 597.626 316.611 597.626 316.611C597.146 326.637 597.113 336.653 597.226 346.712C597.249 348.344 597.272 349.984 597.33 351.657C597.33 351.659 597.33 351.661 597.33 351.662C597.603 356.367 597.799 360.494 599.638 365.71Z" fill="#F70A0C"/>
<path d="M599.269 4.544C599.625 4.90038 600.109 5.10058 600.613 5.10056C601.117 5.10054 601.6 4.90031 601.956 4.5439C602.313 4.18749 602.513 3.70412 602.513 3.2001C602.513 2.69609 602.313 2.21272 601.956 1.85634C589.319 0.201603 581.348 1.39651 571.047 1.22309C570.321 1.22935 569.578 1.23584 568.816 1.24257C568.808 1.24263 568.801 1.2427 568.794 1.24276C509.157 1.81016 449.532 1.57477 389.833 1.43604C389.829 1.43603 389.826 1.43602 389.822 1.43601C296.602 1.20935 203.279 0.47913 110.055 0.08323C110.052 0.0832212 110.05 0.0832119 110.047 0.0832031C86.1989 0.00416207 62.2963 -0.0749519 38.4609 0.131603C33.6125 0.173092 28.6786 0.264791 23.8613 0.323307C23.858 0.323335 23.8547 0.323365 23.8513 0.323395C20.0179 0.37743 16.3375 1.37988 12.3278 1.21111C12.3261 1.2111 12.3244 1.2111 12.3227 1.21109C11.1354 1.17941 9.57465 1.43355 8.48767 1.97225C8.162 2.11182 7.90512 2.37504 7.77353 2.70401C7.64194 3.03298 7.64642 3.40076 7.78599 3.72642C7.92556 4.05209 8.18879 4.30897 8.51776 4.44056C8.84673 4.57215 9.2145 4.56766 9.54016 4.4281C10.505 3.98041 11.2381 3.88536 12.3153 3.88296C12.3167 3.88296 12.3181 3.88297 12.3196 3.88297C16.0034 4.04265 20.0147 5.36069 23.894 5.30758C23.8973 5.30755 23.9007 5.30753 23.9041 5.3075C28.8027 5.24797 33.6622 5.15649 38.5098 5.11357C62.289 4.90065 86.1932 4.9581 110.031 5.02068C110.033 5.02069 110.036 5.02069 110.038 5.0207C203.243 5.35206 296.575 6.04132 389.814 6.16257C389.818 6.16257 389.821 6.16257 389.825 6.16258C449.539 6.23379 509.183 5.61088 568.827 5.0434C568.835 5.04333 568.842 5.04327 568.849 5.0432C569.611 5.03647 570.354 5.02998 571.08 5.02373C580.491 4.82612 592.297 5.23923 599.269 4.544Z" fill="#F70A0C"/>
</svg>
